<?xml version="1.0" encoding="UTF-8" standalone="no"?>
<!DOCTYPE svg PUBLIC "-//W3C//DTD SVG 1.1//EN"
"http://www.w3.org/Graphics/SVG/1.1/DTD/svg11.dtd">


<!-- Page 1 -->
<svg x="0" y="0" width="1286" height="909" viewBox="0 0 1286 909" version="1.1" xmlns="http://www.w3.org/2000/svg" xmlns:xlink="http://www.w3.org/1999/xlink"
style="display: block;margin-left: auto;margin-right: auto;">
<defs>

<style type="text/css"><![CDATA[

.g0_1{
}
.g1_1{
stroke: #000000;
stroke-width: 0.15277778;
stroke-linecap: butt;
stroke-linejoin: miter;
}
.g2_1{
fill: none;
stroke: #000000;
stroke-width: 0.18333334;
stroke-linecap: round;
stroke-linejoin: miter;
}
.g3_1{
fill: none;
stroke: #636466;
stroke-width: 1.1;
stroke-linecap: round;
stroke-linejoin: round;
}
.g4_1{
fill: none;
stroke: #000000;
stroke-width: 1.1;
stroke-linecap: round;
stroke-linejoin: round;
}
.g5_1{
stroke: #000000;
stroke-width: 0.15277778;
stroke-linecap: round;
stroke-linejoin: miter;
}
.g6_1{
fill: none;
stroke: #000000;
stroke-width: 0.18333334;
stroke-linecap: round;
stroke-linejoin: round;
}
.g7_1{
fill: none;
stroke: #000000;
stroke-width: 0.15277778;
stroke-linecap: round;
stroke-linejoin: round;
}
.g8_1{
fill: none;
stroke: #000000;
stroke-width: 0.16027184;
stroke-linecap: round;
stroke-linejoin: round;
}
.g9_1{
fill: none;
stroke: #000000;
stroke-width: 0.15961917;
stroke-linecap: round;
stroke-linejoin: round;
}
.g10_1{
fill: none;
stroke: #000000;
stroke-width: 0.1805595;
stroke-linecap: round;
stroke-linejoin: round;
}
.g11_1{
fill: none;
stroke: #000000;
stroke-width: 0.16584334;
stroke-linecap: round;
stroke-linejoin: round;
}
.g12_1{
fill: none;
stroke: #000000;
stroke-width: 0.16752633;
stroke-linecap: round;
stroke-linejoin: round;
}
.g13_1{
fill: none;
stroke: #000000;
stroke-width: 0.16042584;
stroke-linecap: round;
stroke-linejoin: round;
}


]]></style>

</defs>
<path d="M0,0
L0,909
L1286,909
L1286,0 Z " 
fill="#FFFFFF" stroke="none" />
<path d="M411,627.7l-8.3,-20.9v17.6l.2,.5v.8l.2,.1v.2l.2,.2l.2,.4l.1,.2h.2l.4,.1h.4l.3,.2h.9v.6h-7.5v-.6h1.3l.2,-.2h.4l.1,-.1l.4,-.2l.2,-.2l.2,-.2v-.4l.2,-.1v-.6l.1,-.5V606.2l-.1,-.3v-.8l-.2,-.2v-.1l-.2,-.4l-.2,-.2l-.2,-.2l-.2,-.2h-.1l-.4,-.1h-.2l-.4,-.2h-.9v-.8h6.1l7.7,19.7l7.5,-19.7h6v.8h-1.1l-.3,.2H424l-.4,.1l-.2,.2l-.1,.2l-.2,.2l-.2,.2v.3l-.2,.2v20.2l.2,.4v.3l.2,.2l.2,.4l.1,.2h.4l.2,.1h.4l.3,.2h.9v.6h-8.9v-.6h1.1l.3,-.2h.4l.2,-.1l.2,-.2l.1,-.2l.2,-.2V626l.2,-.2v-.1l.2,-.2V606.8l-8.1,20.9H411Z" class="g0_1" />
<path d="M431,601.6h.3l.2,.2h.4l.2,.4l.1,.2l.2,.3v.4l.2,.4l-.2,.3v.4l-.2,.4l-.1,.2l-.2,.3h-.4l-.2,.2h-.7l-.2,-.2H430l-.1,-.3l-.2,-.2l-.2,-.4l-.2,-.4v-.7l.2,-.4l.2,-.3l.2,-.2l.1,-.2l.4,-.2l.2,-.2h.4Zm1.2,8.8v14.9l.2,.4v.3l.2,.4l.2,.2l.2,.2l.2,.1h.3l.4,.2h.5v.6h-6.9v-.6h.3l.4,-.2h.6l.1,-.1l.2,-.2l.2,-.2l.2,-.4v-.5l.2,-.2V614.8l-.2,-.3v-.9l-.2,-.4l-.2,-.2h-.2l-.3,-.2h-.4l-.2,.2h-.3l-.2,.2l-.2,-.7l4.2,-2.1h.7Z" class="g0_1" />
<path d="M445.4,610.4v5.7h-.5v-.3l-.2,-.6l-.2,-.4v-.3l-.2,-.4l-.1,-.4l-.2,-.3v-.2l-.2,-.2l-.2,-.4l-.2,-.1l-.2,-.2l-.3,-.2l-.2,-.2l-.4,-.2h-.2l-.3,-.2h-1.5l-.2,.2h-.3l-.2,.2l-.2,.2h-.2l-.2,.4l-.2,.3l-.1,.2v1.5l.1,.3v.2l.2,.4l.2,.2l.2,.2l.2,.3l.3,.2l.2,.2l.4,.2l.4,.2l.1,.1l2.4,1.3l.2,.2l.4,.2l.3,.4l.2,.1l.4,.2l.2,.2l.2,.4l.1,.2l.2,.1l.2,.4l.2,.2l.2,.4v.3l.2,.2v.4l.1,.2v1.4l-.1,.4v.4l-.2,.3v.4l-.2,.2l-.2,.3l-.2,.4l-.2,.2l-.1,.2l-.2,.2l-.4,.3l-.2,.2l-.2,.2l-.3,.2l-.2,.2h-.4l-.3,.1h-.2l-.4,.2h-1.8l-.4,-.2h-.7l-.2,-.1H439l-.3,-.2h-.2l-.4,-.2h-.2l-.3,.2l-.2,.2v.1h-.6v-6h.6v.4l.2,.3v.6l.1,.3l.2,.2v.4l.2,.4l.2,.3l.2,.2l.2,.2l.1,.4l.2,.1l.2,.2l.4,.4l.2,.2l.3,.2l.2,.1h.4l.2,.2h1.6l.2,-.2h.4l.1,-.1l.2,-.4h.2l.2,-.2l.2,-.4v-.3l.2,-.4v-1.3l-.2,-.2v-.3l-.2,-.4l-.2,-.2l-.2,-.2l-.2,-.1l-.1,-.2l-.2,-.2l-.2,-.2l-.2,-.2l-.4,-.2l-.1,-.1l-.4,-.2l-.4,-.2l-.3,-.2l-.4,-.4l-.4,-.1l-.3,-.4l-.4,-.2l-.4,-.2l-.2,-.2l-.3,-.1l-.2,-.2l-.2,-.2l-.2,-.4l-.2,-.2l-.1,-.1h-.2v-.4l-.2,-.2L437,617v-.3l-.2,-.4v-2.2l.2,-.4v-.1l.2,-.4l.2,-.4v-.2l.2,-.3l.1,-.4l.2,-.2l.4,-.2l.2,-.1l.2,-.2l.3,-.2l.2,-.2l.2,-.2h.4l.3,-.2H442l.3,.2h.2l.4,.2h.2l.5,.2h.4l.2,.2l.3,-.2l.2,-.2l.2,-.4h.5Z" class="g0_1" />
<path d="M460.8,621.3l-.1,.5v.4l-.2,.3v.4l-.2,.4v.3l-.2,.4l-.2,.2l-.2,.4l-.1,.3v.2l-.2,.4l-.2,.2l-.2,.3l-.2,.2l-.3,.2l-.2,.4l-.2,.1l-.4,.2l-.2,.2l-.3,.2l-.2,.2l-.4,.2l-.2,.1h-.3l-.2,.2h-2l-.2,-.2h-.4l-.3,-.1h-.2l-.4,-.2l-.2,-.2l-.2,-.2l-.3,-.2l-.2,-.2l-.2,-.3l-.4,-.2l-.1,-.4l-.2,-.2l-.2,-.1l-.2,-.4l-.2,-.2l-.2,-.4l-.1,-.1v-.4l-.2,-.4l-.2,-.2v-.3l-.2,-.4v-.4l-.2,-.3v-.8l-.2,-.3v-3.3l.2,-.4v-.7l.2,-.4v-.4l.2,-.3v-.2l.2,-.4l.2,-.3l.1,-.2l.2,-.4v-.4l.2,-.1l.2,-.4l.2,-.2l.2,-.2l.1,-.2l.2,-.3l.4,-.2l.2,-.2l.3,-.2l.2,-.2l.2,-.1l.4,-.2l.2,-.2l.3,-.2h.2l.4,-.2h.2l.3,-.2h2.2l.2,.2h.4l.3,.2h.2l.4,.2l.2,.2l.3,.2l.2,.1l.2,.2l.4,.4l.2,.2l.1,.3l.2,.2l.2,.4l.2,.4v.5l.2,.4l-.2,.3v.4l-.2,.2l-.2,.2l-.2,.2l-.1,.1h-1.3l-.2,-.1l-.4,-.2l-.2,-.2l-.1,-.4v-.2l-.2,-.3v-1.1L457,613v-.2l-.2,-.3l-.2,-.2l-.3,-.2l-.2,-.2l-.4,-.2h-1.6l-.2,.2l-.4,.2l-.2,.2l-.2,.2l-.3,.1l-.2,.2v.2l-.2,.2l-.2,.4l-.2,.3l-.1,.2v.4l-.2,.3l-.2,.2v.8l-.2,.3v3.1l.2,.4v.7l.2,.4v.4l.2,.3v.4l.1,.2l.2,.4l.2,.3v.2l.2,.2l.2,.4l.2,.1l.1,.4l.2,.2l.2,.2l.4,.3l.2,.2h.1l.4,.2l.2,.2h.7l.2,.2h.2l.4,-.2h.5l.4,-.2h.2l.3,-.2l.2,-.2l.4,-.1l.2,-.2l.1,-.2l.2,-.2l.2,-.2l.2,-.3l.2,-.2l.2,-.4l.1,-.2l.2,-.3V622l.2,-.6l.2,-.3l.5,.2Z" class="g0_1" />
<path d="M465.2,617.2v1.7l.2,.3v.8l.2,.3v.4l.2,.4v.3l.2,.2l.2,.4v.2l.1,.3l.2,.2l.2,.4l.4,.4l.2,.1l.1,.4l.4,.2l.2,.2l.2,.2l.3,.1l.2,.2h.4l.2,.2h.3l.2,.2h1.3l.4,-.2h.2l.3,-.2l.2,-.2l.4,-.1l.2,-.2h.1l.2,-.2l.2,-.2l.2,-.4l.2,-.1l.2,-.4l.1,-.2l.2,-.4v-.3l.2,-.4l.2,-.5l.5,.3v.4l-.1,.4v.3l-.2,.2v.4l-.2,.3l-.2,.4v.4l-.2,.2l-.2,.3l-.1,.4l-.2,.2l-.2,.3l-.2,.4l-.4,.2l-.1,.4l-.2,.1l-.4,.2l-.2,.2l-.2,.2l-.3,.2l-.2,.2h-.4l-.2,.1h-.3l-.4,.2h-1.6L468,628h-.2l-.4,-.1h-.1l-.4,-.2l-.2,-.2l-.4,-.2l-.1,-.2l-.4,-.2l-.2,-.1l-.2,-.2l-.2,-.4l-.3,-.2v-.2l-.2,-.1l-.2,-.4l-.2,-.2l-.2,-.4l-.1,-.1v-.4l-.2,-.2l-.2,-.4v-.3l-.2,-.4v-.4l-.2,-.3v-.8l-.2,-.3V618l.2,-.4v-.9l.2,-.4v-.5l.2,-.4l.2,-.4v-.3l.2,-.2l.1,-.4v-.2l.2,-.3l.2,-.2l.2,-.4l.2,-.2l.2,-.3l.3,-.2l.2,-.2l.2,-.2l.4,-.4l.1,-.1l.2,-.2h.4l.2,-.2l.3,-.2h.2l.4,-.2h.4l.1,-.2h2.1l.3,.2h.4l.2,.2h.3l.2,.2l.4,.2l.2,.2l.2,.1l.3,.2l.2,.2l.2,.4l.4,.2l.1,.3v.2l.2,.4l.2,.2l.2,.3v.4l.2,.4l.2,.3v.6l.1,.5v1.1h-9.9Zm0,-1.1h6.6v-.9l-.1,-.4v-.5l-.2,-.4v-.3l-.2,-.4l-.2,-.2l-.4,-.4l-.1,-.1l-.2,-.2l-.4,-.2l-.2,-.2h-.3l-.2,-.2h-1.1l-.4,.2h-.2l-.3,.2l-.2,.2l-.4,.2l-.2,.3l-.3,.4l-.2,.2v.3l-.2,.2l-.2,.4v.4l-.2,.3v.4l-.2,.4v.3Z" class="g0_1" />
<path d="M481.9,601.6v23.7l.2,.4v.3l.2,.4l.2,.2l.2,.2l.3,.1h.2l.4,.2h.7v.6h-7.1v-.6h.5l.4,-.2h.3l.2,-.1l.2,-.2l.2,-.2l.2,-.4v-.5l.2,-.2V605.5l-.2,-.2v-.5l-.2,-.4v-.2l-.4,-.2h-.5l-.4,.2h-.4l-.1,.2l-.2,-.7l4.2,-2.1h.7Z" class="g0_1" />
<path d="M490.9,601.6v24.2l.2,.2l.2,.4l.2,.2l.1,.2l.2,.1h.2l.4,.2h.7v.6h-7v-.6h.4l.4,-.2h.5v-.1l.4,-.2l.2,-.2V626l.2,-.2V605.1l-.2,-.3v-.4l-.2,-.2l-.2,-.2h-.7l-.2,.2h-.4l-.2,.2l-.3,-.7l4.4,-2.1h.7Z" class="g0_1" />
<path d="M502.8,625.3l-.3,.4l-.4,.3l-.4,.2l-.2,.4l-.3,.2l-.2,.1l-.2,.2l-.4,.2v.2h-.1l-.2,.2l-.2,.2h-.4l-.3,.1h-1.9l-.2,-.1l-.3,-.2l-.2,-.2l-.2,-.2l-.4,-.2l-.1,-.2l-.2,-.3l-.2,-.2l-.2,-.4v-.3l-.2,-.2v-.4l-.2,-.4v-1.8l.2,-.4v-.1l.2,-.4v-.4h.2v-.2l.2,-.3l.2,-.2l.1,-.4l.4,-.2l.2,-.1l.2,-.2l.3,-.4l.4,-.2l.2,-.2l.2,-.1h.2l.1,-.2l.2,-.2h.2l.4,-.2l.2,-.2l.1,-.2h.4l.4,-.1l.2,-.2l.3,-.2l.4,-.2l.4,-.2l.3,-.2h.4l.4,-.1l.3,-.2v-2.6l-.2,-.4v-.5l-.1,-.4l-.2,-.2v-.1l-.2,-.2l-.4,-.2l-.2,-.2l-.1,-.2l-.4,-.2h-1.5l-.2,.2l-.3,.2l-.2,.2h-.2l-.2,.4l-.2,.3v.2l-.1,.4v2l-.2,.4l-.2,.1l-.2,.2l-.2,.2l-.3,.2h-.2l-.4,-.2h-.2l-.2,-.2l-.1,-.2l-.2,-.1l-.2,-.4v-1.5l.2,-.2v-.3l.2,-.4l.1,-.2l.2,-.3l.2,-.4l.4,-.2v-.2l.3,-.2l.2,-.1l.2,-.2l.4,-.2h.2l.1,-.2l.4,-.2h.6l.3,-.2h2.6l.4,.2h.1l.4,.2h.2l.4,.2l.1,.2h.2l.2,.2l.2,.1l.2,.2l.3,.4l.2,.4v.1l.2,.4v.2l.2,.2v9.5l.2,.6v1.8l.2,.2v.2h.3l.2,.1l.2,-.1h.2l.2,-.2l.1,-.2l.2,-.2l.2,-.4l.4,-.3h.2v.9l-.4,.4l-.2,.3l-.2,.4l-.3,.4l-.2,.1l-.2,.2l-.4,.2l-.2,.2l-.1,.2l-.4,.2l-.2,.1h-.9l-.4,-.1h-.2l-.1,-.4h-.2l-.2,-.2v-.4l-.2,-.3v-.8l-.2,-.3v-.2Zm0,-1.1v-6.4l-.3,.2l-.4,.1l-.4,.2l-.3,.2l-.4,.2h-.2l-.4,.2l-.1,.2h-.2l-.2,.1l-.4,.2l-.3,.4l-.2,.2l-.2,.2l-.4,.1l-.2,.4l-.1,.2l-.2,.4l-.2,.3v.8l-.2,.3v.6l.2,.3v.4l.2,.4v.2l.2,.3l.1,.2l.2,.2l.4,.4l.2,.1h.3l.2,.2h.6l.2,-.2h.1l.2,-.1h.4l.2,-.2l.3,-.2l.2,-.2l.4,-.4l.4,-.1l.3,-.4Z" class="g0_1" />
<path d="M513.1,613.9l.4,-.3l.1,-.4l.4,-.2l.2,-.4l.2,-.3l.3,-.2l.2,-.2l.4,-.4l.2,-.1l.2,-.2l.3,-.2h.2l.2,-.2l.4,-.2h.1l.2,-.2h1.5l.4,.2h.1l.4,.2l.2,.2l.2,.2l.3,.2l.2,.1l.2,.2l.2,.4l.2,.4l.2,.1v.6l.1,.2v.2l.2,.3v1.5l.2,.4v9.9l.2,.1v.2l.2,.4l.2,.4h.1l.2,.1h.2l.4,.2h.7v.6h-7.1v-.6h.7l.4,-.2h.1l.4,-.1l.2,-.4l.2,-.2l.2,-.4v-.3l.1,-.2v-8.8l-.1,-.4V615l-.2,-.3v-.6l-.2,-.4l-.2,-.3l-.2,-.2L518,613l-.3,-.2h-.2l-.4,-.2h-.7l-.4,.2h-.2l-.3,.2l-.2,.2h-.2l-.4,.2l-.1,.2l-.4,.3l-.2,.2l-.4,.4l-.1,.2l-.2,.3h-.2v9.9l.2,.4v.7l.2,.4l.1,.2l.4,.2l.2,.1h.2l.3,.2h.8v.6h-7.2v-.6h.8l.3,-.2h.4l.2,-.1l.2,-.2v-.2l.1,-.2V626l.2,-.3V613.9l-.2,-.3l-.1,-.4V613h-.4l-.2,-.2h-.4l-.3,.2h-.4l-.2,.2l-.2,-.7l4.4,-2.1h.6v3.5Z" class="g0_1" />
<path d="M527.4,617.2v1.7l.2,.3v.8l.2,.3v.4l.1,.4v.3l.2,.2l.2,.4v.2l.2,.3l.2,.2l.2,.4l.3,.4l.2,.1l.2,.4l.4,.2l.1,.2l.2,.2l.4,.1l.2,.2h.3l.2,.2h.4l.2,.2h1.3l.3,-.2h.2l.4,-.2l.2,-.2l.3,-.1l.2,-.2h.2l.2,-.2l.2,-.2l.1,-.4l.2,-.1l.2,-.4l.2,-.2l.2,-.4v-.3l.2,-.4l.1,-.5l.6,.3v.4l-.2,.4v.3l-.2,.2v.4l-.2,.3l-.1,.4v.4l-.2,.2l-.2,.3l-.2,.4l-.2,.2l-.2,.3l-.1,.4h-.2l-.2,.2l-.2,.4l-.2,.1l-.3,.2l-.2,.2l-.2,.2l-.4,.2l-.2,.2h-.3l-.2,.1h-.4l-.3,.2h-1.7l-.4,-.2H530l-.4,-.1h-.2l-.4,-.2l-.1,-.2l-.4,-.2l-.2,-.2l-.4,-.2l-.1,-.1l-.2,-.2l-.4,-.4L527,626v-.2l-.2,-.1l-.1,-.4l-.2,-.2l-.2,-.4l-.2,-.1v-.4l-.2,-.2l-.2,-.4v-.3l-.1,-.4v-.4l-.2,-.3v-.8l-.2,-.3v-3.5l.2,-.6v-.7l.2,-.2v-.3l.1,-.4l.2,-.4v-.3l.2,-.2l.2,-.4v-.2l.2,-.3l.2,-.2l.1,-.4l.2,-.2l.2,-.3l.4,-.2l.2,-.2l.1,-.2l.2,-.4l.4,-.1l.2,-.2h.3l.2,-.2l.4,-.2h.2l.3,-.2h.4l.2,-.2h2l.4,.2h.3l.2,.2h.4l.2,.2l.3,.2l.2,.2l.2,.1l.4,.2l.2,.2l.1,.4l.2,.2l.2,.3l.2,.2l.2,.4l.2,.2l.1,.3v.4l.2,.4v.3l.2,.2v.9l.2,.4v.7h-9.9Zm0,-1.1H534v-.9l-.2,-.4v-.5l-.2,-.4l-.2,-.3v-.4l-.1,-.2l-.4,-.4l-.2,-.1l-.2,-.2l-.3,-.2l-.2,-.2h-.4l-.2,-.2h-1.1l-.3,.2h-.2l-.4,.2l-.2,.2l-.3,.2l-.2,.3h-.2l-.2,.4l-.2,.2v.3l-.2,.2l-.1,.4l-.2,.4v.7l-.2,.4v.3Z" class="g0_1" />
<path d="M546.1,610.4h1.1l.2,.2h.7l.2,.2l.4,.2h.1l.4,.2l.2,.2l.2,.1l.3,.2l.2,.2l.2,.2l.4,.2l.2,.3l.1,.2l.2,.4l.2,.2l.2,.2l.2,.3l.2,.4l.1,.2v.3l.2,.4l.2,.4v.2l.2,.3v.4l.2,.4v.7l.2,.4v2.2l-.2,.1v.8l-.2,.3v.4l-.2,.4v.3l-.2,.4v.4l-.2,.3l-.1,.4l-.2,.4l-.2,.2l-.2,.3l-.2,.4l-.2,.2l-.1,.3l-.2,.2l-.2,.2l-.2,.4l-.4,.2l-.1,.1l-.2,.2l-.2,.2l-.4,.2l-.2,.2h-.3l-.4,.2l-.2,.1h-.5l-.4,.2h-2l-.2,-.2h-.7l-.2,-.1l-.4,-.2h-.2l-.3,-.2l-.2,-.2l-.2,-.2l-.4,-.2l-.1,-.1l-.2,-.2l-.2,-.4l-.4,-.2l-.2,-.3l-.1,-.2l-.2,-.2l-.2,-.4l-.2,-.3v-.2l-.2,-.4l-.2,-.4l-.1,-.3v-.4l-.2,-.2v-.3l-.2,-.4v-.4l-.2,-.3v-3.5l.2,-.4V617l.2,-.3v-.4l.2,-.4v-.3l.1,-.4l.2,-.4l.2,-.3l.2,-.4l.2,-.2l.2,-.3l.1,-.4l.2,-.2l.2,-.4l.2,-.1l.2,-.2l.3,-.4l.2,-.2l.2,-.2h.2l.4,-.1l.1,-.2l.4,-.2l.2,-.2h.4l.1,-.2h.4l.4,-.2h.9Zm-.4,1.1h-.3l-.2,.2h-.4l-.4,.2l-.1,.2h-.2l-.4,.2l-.2,.3l-.2,.2l-.1,.2l-.2,.4l-.2,.3l-.2,.4v.4l-.2,.3v.6l-.2,.4v1.6l-.1,.4v.2l.1,.3v2l.2,.4v.7l.2,.4v.4l.2,.2v.3l.2,.4v.4l.2,.1l.1,.4v.4l.2,.3l.2,.2l.2,.4l.4,.4l.1,.1l.2,.2l.2,.2l.2,.2l.4,.2l.1,.2h.4l.2,.1h1.1l.4,-.1h.3l.2,-.2l.2,-.2l.4,-.2l.1,-.4l.2,-.1l.2,-.2v-.2l.2,-.2l.2,-.4v-.1l.2,-.4v-.4l.1,-.2v-.7l.2,-.5v-4.1l-.2,-.3v-.8l-.1,-.3v-.4l-.2,-.4v-.3l-.2,-.2v-.4l-.2,-.4v-.3l-.2,-.2l-.2,-.4l-.1,-.2l-.2,-.1v-.2l-.2,-.4l-.2,-.2l-.2,-.3l-.3,-.2l-.2,-.2l-.2,-.2h-.4l-.2,-.2h-.3l-.4,-.2h-.2Z" class="g0_1" />
<path d="M567.7,611v13.7l.2,.4l.2,.4l.2,.2l.2,.1h.9l.3,-.1l.2,-.2l.2,.7l-4.2,2h-.7v-3.5l-.4,.4l-.2,.4l-.4,.3l-.1,.2l-.4,.4l-.2,.2l-.2,.2l-.2,.3l-.3,.2h-.2l-.2,.2l-.2,.2l-.2,.2l-.3,.1h-.2l-.4,.2h-1.4l-.4,-.2h-.2l-.4,-.1l-.1,-.2l-.4,-.2l-.2,-.4l-.4,-.2l-.1,-.3l-.2,-.2V626l-.2,-.3l-.2,-.4v-.6l-.2,-.3v-1.5l-.2,-.4V613l-.1,-.4v-.1l-.2,-.2l-.2,-.4l-.2,-.2h-.5l-.2,-.2h-.9V611h4.9v11.2l.2,.5V624l.2,.2v.4l.2,.3v.2l.1,.2l.4,.2l.2,.2l.4,.1h.1l.4,.2h.6l.1,-.2h.4l.4,-.1l.3,-.2l.2,-.2h.2l.2,-.4l.4,-.2l.1,-.1l.2,-.2l.4,-.4l.2,-.4h.2v-10l-.2,-.4v-.7l-.2,-.2l-.2,-.2l-.2,-.2h-.2l-.1,-.2h-.4l-.4,-.2h-.5V611h4.9Z" class="g0_1" />
<path d="M580.4,610.4v5.7h-.6v-.3l-.2,-.6l-.1,-.4v-.3l-.2,-.4l-.2,-.4v-.3l-.2,-.2l-.2,-.2l-.2,-.4l-.1,-.1l-.2,-.2l-.4,-.2l-.2,-.2l-.3,-.2h-.2l-.4,-.2h-1.5l-.1,.2h-.4l-.2,.2l-.2,.2h-.2l-.1,.4l-.2,.3l-.2,.2v1.5l.2,.3v.2l.2,.4l.1,.2l.2,.2l.2,.3l.4,.2l.2,.2l.3,.2l.4,.2l.2,.1l2.4,1.3l.1,.2l.4,.2l.4,.4l.2,.1l.3,.2l.2,.2l.2,.4l.2,.2l.2,.1l.1,.4l.2,.2l.2,.4l.2,.3v.6l.2,.2v1.4l-.2,.4v.4l-.2,.3v.4l-.2,.2l-.2,.3l-.1,.4l-.2,.2l-.2,.2l-.2,.2l-.2,.3l-.3,.2l-.2,.2l-.4,.2l-.2,.2h-.3l-.4,.1h-.2l-.4,.2h-1.8l-.4,-.2h-.7l-.2,-.1H574l-.2,-.2h-.4l-.4,-.2h-.1l-.4,.2l-.2,.2v.1h-.5v-6h.5v.4l.2,.3v.6l.2,.3l.2,.2v.4l.1,.4l.2,.3l.2,.2l.2,.2l.2,.4l.2,.1l.1,.2l.4,.4l.2,.2l.4,.2l.1,.1h.4l.2,.2h1.6l.2,-.2h.4l.2,-.1l.2,-.4h.1l.2,-.2l.2,-.4l.2,-.3v-1.7l-.2,-.2v-.3l-.2,-.4l-.2,-.2l-.1,-.2l-.2,-.1v-.2l-.4,-.2l-.2,-.2l-.2,-.2l-.1,-.2l-.4,-.1l-.4,-.2l-.3,-.2l-.4,-.2l-.4,-.4l-.3,-.1l-.4,-.4l-.4,-.2l-.3,-.2l-.2,-.2l-.4,-.1l-.2,-.2l-.2,-.2l-.1,-.4l-.2,-.2l-.2,-.1l-.2,-.4l-.2,-.2l-.2,-.4v-.3l-.1,-.4v-2.2l.1,-.4v-.1l.2,-.4l.2,-.4v-.2l.2,-.3l.4,-.4v-.2l.3,-.2l.2,-.1l.2,-.2l.4,-.2l.1,-.2l.4,-.2h.2l.4,-.2h1.8l.4,.2h.1l.4,.2h.4l.3,.2h.4l.2,.2l.4,-.2l.1,-.2l.2,-.4h.6Z" class="g0_1" />
<path d="M605.3,602.2v8.6h-.7v-.7l-.2,-.4v-.9l-.2,-.4v-.2l-.2,-.3l-.2,-.4v-.2l-.1,-.3l-.2,-.4l-.2,-.2l-.2,-.4l-.2,-.1l-.2,-.4l-.3,-.2l-.2,-.2l-.2,-.2l-.4,-.3l-.3,-.2l-.2,-.2h-.4l-.3,-.2l-.2,-.2h-.8l-.1,-.1h-.8l-.3,.1h-.4l-.2,.2h-.4l-.1,.2l-.4,.2l-.2,.2l-.2,.2l-.2,.1l-.1,.2l-.4,.4l-.2,.4v.1l-.2,.4v.4l-.2,.3v1.1l.2,.4l.2,.4v.2l.2,.3l.2,.2l.2,.2l.1,.2l.2,.2l.2,.1l.2,.2l.2,.2l.2,.2l.3,.2l.2,.3l.4,.2l.3,.2l.2,.2l.4,.2l.4,.3l.3,.2l.4,.2l.4,.4l.3,.2l.4,.1l.4,.2l.3,.4l.4,.2l.2,.2l.3,.1l.2,.2l.4,.2l.2,.2l.2,.2l.1,.2l.2,.1h.2l.2,.2l.2,.4l.3,.2l.2,.2l.2,.3l.2,.2l.2,.4l.2,.3l.1,.2v.2l.2,.4l.2,.3v.8l.2,.3v2.4l-.2,.4v.4l-.2,.3l-.2,.4v.2l-.1,.3l-.2,.4l-.2,.2l-.2,.4l-.2,.1l-.3,.4l-.2,.4l-.2,.2l-.4,.1l-.2,.2l-.1,.2l-.4,.2l-.2,.2h-.4l-.1,.2l-.4,.1h-.6l-.3,.2h-3.1V628h-.6l-.4,-.1l-.3,-.2l-.4,-.2h-.2l-.5,-.2l-.4,-.2H595l-.3,-.2h-.8l-.1,.2l-.2,.2l-.2,.4v.5h-.6v-8.4h.6v.4l.2,.5v.4l.2,.3v.4l.1,.4v.3l.2,.4v.2l.2,.4v.1l.2,.2l.2,.2l.2,.4l.1,.2l.2,.3l.2,.2l.2,.2l.4,.2l.1,.3l.4,.2l.4,.2l.2,.2h.3l.2,.2h.4l.3,.2h.6l.4,.1h.7l.4,-.1h.5l.4,-.2h.3l.2,-.2l.2,-.2l.4,-.2l.2,-.2l.1,-.1l.2,-.2l.2,-.4l.2,-.4l.2,-.1l.2,-.4v-.4l.1,-.3v-1.3l-.1,-.4v-.4l-.2,-.3v-.2l-.2,-.2l-.2,-.4l-.2,-.1l-.2,-.4l-.1,-.2l-.4,-.4l-.2,-.1h-.2l-.2,-.2l-.1,-.2l-.2,-.2l-.2,-.2l-.4,-.2l-.3,-.1l-.4,-.2l-.2,-.4l-.5,-.2l-.4,-.3h-.2l-.4,-.2l-.3,-.4l-.2,-.2l-.4,-.2l-.3,-.1l-.2,-.2l-.4,-.4l-.2,-.2l-.3,-.2l-.2,-.1l-.2,-.2l-.2,-.2h-.2l-.2,-.2l-.1,-.2l-.2,-.2l-.2,-.1l-.4,-.4l-.2,-.2l-.1,-.4l-.2,-.1l-.2,-.4l-.2,-.4l-.2,-.3l-.2,-.4v-.4l-.1,-.3v-3l.1,-.2v-.3l.2,-.4V606l.2,-.3l.2,-.2l.2,-.4l.2,-.2l.1,-.3l.4,-.2v-.2l.2,-.2l.4,-.3l.1,-.2l.2,-.2l.4,-.2l.2,-.2h.3l.2,-.2l.4,-.1h.2l.3,-.2h1l.3,-.2h.6l.3,.2h.8l.3,.2h.4l.2,.1h.4l.3,.2l.4,.2l.2,.2l.3,.2l.4,.2h.7l.4,-.2l.2,-.4l.2,-.2v-.7h.7Z" class="g0_1" />
<path d="M613.6,605.3V611h3.3v1.3h-3.3v12.1l.1,.3v.4l.2,.2l.2,.4l.4,.1h1.1l.2,-.1l.1,-.2l.2,-.2l.2,-.2l.2,-.4l.2,-.3h.5v.3l-.2,.4l-.1,.4l-.2,.3l-.2,.4l-.2,.2l-.2,.2l-.2,.3l-.1,.2l-.4,.2l-.2,.2l-.4,.2l-.1,.2h-.4l-.2,.1h-.7l-.4,-.1h-.2l-.3,-.2l-.2,-.2l-.2,-.2l-.4,-.2l-.2,-.3l-.1,-.2v-.4h-.2v-.5l-.2,-.4v-13h-2.4v-.8h.4l.2,-.1l.3,-.2l.2,-.2l.2,-.4l.4,-.2l.1,-.1l.2,-.4l.2,-.2l.2,-.2l.4,-.3l.1,-.4l.2,-.2l.2,-.4l.2,-.3v-.2l.2,-.2v-.4l.2,-.1l.1,-.4l.2,-.6l.2,-.3v-.4h.6Z" class="g0_1" />
<path d="M620.7,617.2v2l.2,.4v.7l.2,.4v.4l.2,.3l.1,.2v.4l.2,.2l.2,.3l.2,.2l.2,.4l.2,.4l.3,.1l.2,.4l.2,.2l.4,.2l.1,.2l.4,.1l.2,.2h.2l.3,.2h.4l.2,.2h1.3l.2,-.2h.3l.4,-.2l.2,-.2l.2,-.1l.3,-.2l.4,-.2l.2,-.2l.2,-.4l.1,-.1l.2,-.4v-.2l.2,-.4l.2,-.3l.2,-.4l.2,-.5l.5,.3l-.2,.4v.7l-.2,.2l-.1,.4v.3l-.2,.4l-.2,.4v.2l-.2,.3l-.2,.4l-.2,.2l-.1,.3l-.4,.4l-.2,.2l-.2,.4l-.3,.1l-.2,.2l-.2,.2l-.4,.2l-.2,.2l-.3,.2h-.2l-.4,.1h-.2l-.3,.2h-1.7l-.3,-.2h-.4l-.2,-.1h-.4l-.1,-.2l-.4,-.2l-.2,-.2l-.2,-.2l-.3,-.2l-.2,-.1l-.2,-.2l-.4,-.4l-.2,-.2v-.2l-.1,-.1l-.2,-.4l-.2,-.2l-.2,-.4l-.2,-.1l-.2,-.4V624l-.1,-.4l-.2,-.3v-.4l-.2,-.4v-.7l-.2,-.4v-3.8l.2,-.6v-.7l.2,-.2v-.3l.2,-.4V615l.1,-.3l.2,-.2v-.4l.2,-.2l.2,-.3l.2,-.2l.2,-.4l.1,-.2l.2,-.3l.2,-.2l.4,-.2l.2,-.2l.1,-.4l.4,-.1l.2,-.2h.2l.3,-.2l.2,-.2h.4l.4,-.2h.1l.4,-.2h2l.4,.2h.2l.3,.2h.2l.4,.2l.2,.2l.3,.2l.2,.1l.2,.2l.4,.2l.2,.4l.1,.2l.2,.3l.2,.2l.2,.4l.2,.2l.2,.3v.4l.1,.4v.3l.2,.2v1.3l.2,.4v.3h-9.9Zm0,-1.1h6.6v-.3l-.2,-.6v-.9l-.2,-.4l-.1,-.3l-.2,-.4l-.2,-.2l-.2,-.4l-.2,-.1l-.2,-.2l-.3,-.2l-.2,-.2h-.4l-.3,-.2h-1l-.3,.2h-.4l-.2,.2l-.2,.2l-.3,.2l-.2,.3h-.2l-.2,.4l-.2,.2l-.1,.3v.2l-.2,.4l-.2,.4v.3l-.2,.4v.7Z" class="g0_1" />
<path d="M634.8,617.2v1.3l.2,.4V620l.2,.3v.4l.2,.4v.3l.2,.2l.1,.4l.2,.2v.3l.2,.2l.2,.4h.2l.2,.4l.1,.1l.2,.4l.4,.2l.2,.2l.2,.2l.3,.1l.2,.2h.4l.2,.2h.3l.4,.2h1.1l.4,-.2h.1l.4,-.2l.2,-.2l.4,-.1l.1,-.2h.2l.2,-.2l.2,-.2l.2,-.4l.2,-.1l.1,-.4l.2,-.2l.2,-.4l.2,-.3v-.4l.2,-.5l.5,.3v.4l-.2,.4v.3l-.1,.2v.4l-.2,.3v.4l-.2,.4l-.2,.2l-.2,.3l-.2,.4l-.1,.2l-.2,.3l-.2,.4l-.4,.2l-.2,.4l-.1,.1l-.2,.2l-.4,.2l-.2,.2l-.3,.2l-.2,.2h-.4l-.2,.1H640l-.4,.2h-1.7l-.3,-.2h-.2l-.4,-.1h-.2l-.3,-.2l-.2,-.2l-.4,-.2l-.2,-.2l-.1,-.2l-.4,-.1l-.2,-.2l-.2,-.4l-.3,-.2v-.2l-.2,-.1l-.2,-.4l-.2,-.2l-.2,-.4l-.2,-.1v-.4l-.1,-.2l-.2,-.4v-.3l-.2,-.4v-.4l-.2,-.3v-.8l-.2,-.3V618l.2,-.4v-.9l.2,-.4v-.2l.2,-.3v-.4l.2,-.4v-.3l.1,-.2l.2,-.4l.2,-.2v-.3l.2,-.2l.2,-.4l.2,-.2l.3,-.3l.2,-.2l.2,-.2l.2,-.2l.3,-.4l.2,-.1l.2,-.2h.4l.2,-.2l.3,-.2h.2l.4,-.2h.3l.2,-.2h2l.4,.2h.4l.2,.2h.3l.2,.2l.4,.2l.2,.2l.3,.1l.2,.2l.2,.2l.2,.4h.2l.1,.2l.2,.3l.2,.2v.4l.2,.2l.2,.3l.2,.4v.4l.1,.3v.6l.2,.5v1.1h-9.9Zm0,-1.1h6.6v-1.3l-.2,-.3v-.6h-.1v-.3l-.2,-.4l-.2,-.2l-.2,-.4l-.4,-.1l-.1,-.2l-.2,-.2l-.4,-.2H639l-.1,-.2h-1.1l-.4,.2h-.2l-.4,.2l-.1,.2l-.2,.2l-.4,.3l-.2,.4l-.2,.2l-.1,.3l-.2,.2l-.2,.4v.4l-.2,.3v.4l-.2,.4v.3Z" class="g0_1" />
<path d="M651.5,601.6v23.3l.2,.4v.7l.2,.4l.2,.2l.3,.2l.2,.1h.2l.4,.2h.7v.6h-7v-.6h.4l.4,-.2h.5v-.1l.2,-.2l.2,-.2l.2,-.4v-.2l.1,-.3V605.3l-.1,-.2v-.3l-.2,-.4v-.2l-.4,-.2h-.5l-.4,.2h-.4v.2l-.3,-.7l4.2,-2.1h.7Z" class="g0_1" />
<path d="M670.2,608.6v-.7l-.2,-.4v-.7l-.2,-.4V606l-.1,-.5l-.2,-.4v-.3l-.2,-.4v-1.7l.2,-.3l.2,-.2l.1,-.4l.4,-.2h.7l.2,.2l.2,.2l.2,.2v.2l.2,.3v.4l.2,.4v.3l-.2,.2v.8l-.2,.5v.4l-.2,.2v.3l-.2,.4v.4l-.2,.3v1.3l.2,-.2l.2,-.3l.4,-.2l.2,-.2l.1,-.4l.2,-.2l.2,-.1l.4,-.4l.2,-.4l.1,-.2l.4,-.3l.2,-.2l.2,-.2l.2,-.2l.1,-.2h1.5l.2,.4l.2,.2l.2,.4v.7l-.2,.4l-.2,.1l-.2,.4h-.2l-.2,.2l-.1,.2H675l-.4,.2l-.4,.1h-.3l-.4,.2l-.4,.2h-.3l-.4,.2h-.2l-.3,.2h-.4l-.2,.2h-.2l.4,.1l.2,.2l.3,.2h.2l.4,.2h.4l.1,.2h.4l.4,.2h.3l.4,.1l.4,.2h.2l.1,.2l.2,.2h.2l.2,.4l.2,.1v.4l.2,.4l-.2,.3v.4l-.2,.4l-.4,.2h-.2l-.3,.1h-.2l-.4,-.1l-.2,-.2h-.1l-.2,-.2l-.2,-.2l-.4,-.2l-.2,-.3l-.1,-.2l-.4,-.4l-.2,-.4l-.2,-.1L672,611l-.1,-.2l-.2,-.2l-.4,-.3l-.2,-.2l-.2,-.2v1.5l.2,.3v.4h.2v.5l.2,.6v.4l.2,.3v.8l.2,.1v.4l-.2,.4v.2l-.2,.3v.2l-.4,.4l-.2,.2h-.5l-.4,-.2l-.2,-.2l-.3,-.2v-.2l-.2,-.3v-1.7l.2,-.4v-.3l.2,-.4v-.5l.1,-.4l.2,-.4V611l.2,-.4v-.7l-.2,.2l-.3,.2l-.2,.3l-.2,.2l-.4,.2l-.2,.4l-.1,.1l-.2,.4l-.4,.4l-.2,.2l-.2,.3l-.3,.2l-.2,.2l-.2,.2l-.4,.2l-.1,.1H666l-.2,-.1h-.4l-.1,-.2l-.2,-.2l-.2,-.2v-.4l-.2,-.3l.2,-.2v-.4l.2,-.3l.2,-.2l.1,-.4l.4,-.2l.2,-.2h.4l.3,-.1h.4l.4,-.2l.3,-.2h.4l.4,-.2h.3l.2,-.2l.4,-.2h.3v-.1h-.1l-.4,-.2l-.2,-.2h-.4l-.3,-.2h-.2l-.4,-.2h-.3l-.6,-.2l-.4,-.1h-.1l-.4,-.2h-.2l-.2,-.2h-.2l-.1,-.4l-.2,-.2l-.2,-.3l-.2,-.4v-.2l.2,-.3v-.4l.2,-.2l.3,-.4h.2l.4,-.1h.2l.3,.1l.4,.2h.2l.2,.2l.2,.2l.1,.2l.2,.3l.4,.4l.2,.2l.2,.2l.1,.3l.2,.2l.2,.4l.4,.2l.2,.2l.1,.1l.2,.2l.2,.2Z" class="g0_1" />
<path d="M699.5,627.7l-8,-20.9v18.9l.2,.1v.2l.1,.2l.2,.4l.2,.2h.4l.2,.1h.3l.4,.2h.9v.6h-7.3v-.6h1.1l.3,-.2h.2l.4,-.1l.2,-.2l.2,-.2l.1,-.2V626l.2,-.2v-.3l.2,-.4V605.9l-.2,-.4v-.6l-.2,-.1v-.4l-.3,-.2l-.2,-.2l-.2,-.2h-.2l-.3,-.1h-.2l-.4,-.2h-.7v-.8h5.8l7.7,19.7l7.7,-19.7h5.9v.8h-1.1l-.4,.2h-.1l-.4,.1l-.2,.2l-.2,.2l-.2,.2l-.1,.2v.5l-.2,.4v19.8l.2,.4v.1l.1,.2v.2l.2,.4l.4,.2h.2l.2,.1h.3l.4,.2h.9v.6h-9v-.6h1.1l.4,-.2h.4l.1,-.1l.2,-.2l.4,-.2l.2,-.2v-.4l.2,-.1v-1.5l.1,-.6V606.8l-8.2,20.9h-.6Z" class="g0_1" />
<path d="M718.2,617.2v.4l.2,.5v1.5l.2,.4v.3l.2,.4v.4l.2,.3v.2l.2,.4l.1,.2l.2,.3l.2,.2l.2,.4l.2,.4l.2,.1l.3,.4l.2,.2l.2,.2l.4,.2l.1,.1l.4,.2h.2l.4,.2h.1l.4,.2h1.1l.4,-.2h.3l.2,-.2l.4,-.2l.2,-.1l.3,-.2l.2,-.2l.2,-.2l.2,-.4l.2,-.1l.2,-.4l.1,-.2l.2,-.4l.2,-.3l.2,-.4l.2,-.5l.3,.3v.8l-.1,.3v.2l-.2,.4v.3l-.2,.4l-.2,.4l-.2,.2l-.2,.3l-.1,.4l-.2,.2l-.2,.3l-.2,.4l-.2,.2l-.2,.4l-.3,.1l-.2,.2l-.2,.2l-.4,.2l-.1,.2l-.4,.2h-.2l-.4,.1h-.1l-.4,.2h-1.8l-.2,-.2h-.4l-.2,-.1h-.3l-.2,-.2l-.4,-.2l-.2,-.2l-.3,-.2l-.2,-.2l-.2,-.1l-.4,-.2l-.2,-.4l-.1,-.2l-.2,-.2l-.2,-.1l-.2,-.4l-.2,-.2v-.4l-.2,-.1l-.1,-.4l-.2,-.2v-.4l-.2,-.3v-.4l-.2,-.4v-.3l-.2,-.4v-1.1l-.2,-.4v-1.6l.2,-.4V617l.2,-.3v-.6l.2,-.3v-.4l.2,-.4l.2,-.3v-.2l.1,-.4l.2,-.2l.2,-.3l.2,-.2l.2,-.4l.2,-.2l.1,-.3l.2,-.2l.2,-.2l.4,-.2l.2,-.4l.1,-.1l.4,-.2h.2l.4,-.2l.1,-.2h.4l.2,-.2h.4l.3,-.2h2l.2,.2h.4l.4,.2h.1l.4,.2l.2,.2l.4,.2l.1,.1l.2,.2l.2,.2l.4,.4l.2,.2l.1,.3l.2,.2l.2,.4l.2,.2v.3l.2,.4l.2,.4v.5l.1,.4v1.6h-9.9Zm0,-1.1H725l-.2,-.3v-1.3l-.1,-.2v-.4l-.2,-.3l-.2,-.4l-.2,-.2l-.2,-.4l-.2,-.1l-.3,-.2l-.2,-.2l-.4,-.2h-.2l-.3,-.2h-1.1l-.2,.2h-.4l-.2,.2l-.3,.2l-.2,.2l-.2,.3h-.2l-.2,.4l-.1,.2l-.2,.3l-.2,.2v.4l-.2,.4l-.2,.3v.8l-.2,.3Z" class="g0_1" />
<path d="M734.2,605.3V611h3.5v1.3h-3.5v11.3l.2,.4v.7l.2,.4v.2h.1l.2,.4l.2,.1h1.1l.4,-.1l.2,-.2l.1,-.2l.2,-.2l.2,-.4l.2,-.3h.5l-.1,.3v.4l-.2,.4l-.2,.3l-.2,.4l-.2,.2l-.2,.2l-.1,.3l-.2,.2l-.4,.2l-.2,.2l-.3,.2l-.4,.2h-.2l-.4,.1h-.5l-.4,-.1h-.3l-.2,-.2l-.2,-.2l-.4,-.2l-.2,-.2l-.1,-.3l-.2,-.2l-.2,-.4V626l-.2,-.3v-1.1l-.2,-.4V612.3h-2.2v-.8h.2l.4,-.1l.2,-.2l.3,-.2l.2,-.4l.2,-.2l.4,-.1l.1,-.4l.2,-.2l.2,-.2l.2,-.3l.2,-.4l.2,-.2l.1,-.4l.2,-.3l.2,-.2v-.2l.2,-.4l.2,-.1l.2,-.4V606l.1,-.3l.2,-.4h.4Z" class="g0_1" />
<path d="M747,625.3l-.3,.4l-.4,.3l-.4,.2l-.2,.4l-.3,.2l-.2,.1l-.2,.2l-.4,.2v.2h-.1l-.2,.2l-.2,.2h-.4l-.2,.1h-2l-.2,-.1l-.3,-.2l-.2,-.2l-.2,-.2l-.4,-.2l-.1,-.2l-.2,-.3l-.2,-.2l-.2,-.4v-.3l-.2,-.2v-.4l-.2,-.4v-1.8l.2,-.4v-.1l.2,-.4v-.4h.2v-.2l.2,-.3l.2,-.2l.1,-.4l.4,-.2l.2,-.1l.2,-.2l.3,-.4l.4,-.2l.2,-.2l.2,-.1h.2l.1,-.2l.2,-.2h.2l.4,-.2l.2,-.2l.1,-.2h.4l.4,-.1l.2,-.2l.3,-.2l.4,-.2l.4,-.2l.3,-.2h.4l.4,-.1l.3,-.2v-2.6l-.2,-.4v-.5l-.1,-.4l-.2,-.2v-.1l-.2,-.2l-.4,-.2l-.2,-.2l-.1,-.2l-.4,-.2h-1.5l-.2,.2l-.3,.2l-.2,.2h-.2l-.2,.4l-.2,.3v.2l-.1,.4v2l-.2,.4l-.2,.1l-.2,.2l-.2,.2l-.3,.2H741l-.4,-.2h-.2l-.2,-.2l-.1,-.2l-.2,-.1l-.2,-.4v-1.5l.2,-.2v-.3l.2,-.4l.1,-.2l.2,-.3l.2,-.4l.4,-.2v-.2l.3,-.2l.2,-.1l.2,-.2l.4,-.2h.2l.1,-.2l.4,-.2h.6l.3,-.2h2.6l.4,.2h.1l.4,.2h.2l.4,.2l.1,.2h.2l.2,.2l.2,.1l.2,.2l.3,.4l.2,.4v.1l.2,.4v.2l.2,.2v9.5l.2,.6v1.8l.2,.2v.2h.3l.2,.1l.2,-.1h.2l.2,-.2l.1,-.2l.2,-.2l.2,-.4l.4,-.3h.2v.9l-.4,.4l-.2,.3l-.2,.4l-.3,.4l-.2,.1l-.2,.2l-.4,.2l-.2,.2l-.1,.2l-.4,.2l-.2,.1h-.9l-.4,-.1h-.2l-.1,-.4h-.2l-.2,-.2v-.4l-.2,-.3v-.8l-.2,-.3v-.2Zm0,-1.1v-6.4l-.3,.2l-.4,.1l-.4,.2l-.3,.2l-.4,.2H745l-.4,.2l-.1,.2h-.2l-.2,.1l-.4,.2l-.3,.4l-.2,.2l-.2,.2l-.4,.1l-.2,.4l-.1,.2l-.2,.4l-.2,.3v.8l-.2,.3v.6l.2,.3v.4l.2,.4v.2l.2,.3l.1,.2l.2,.2l.4,.4l.2,.1h.3l.2,.2h.6l.2,-.2h.1l.2,-.1h.4l.2,-.2l.3,-.2l.2,-.2l.4,-.4l.4,-.1l.3,-.4Z" class="g0_1" />
<path d="M758,601.6v22.8l.2,.5v.9l.2,.2v.4l.4,.2l.1,.2l.2,.1h.2l.4,.2h.7v.6h-7v-.6h.4l.4,-.2h.5v-.1l.2,-.2l.2,-.2l.2,-.4l.2,-.2V605.1l-.2,-.3l-.2,-.4v-.2l-.4,-.2h-.5l-.4,.2h-.2l-.2,.2l-.3,-.7l4.4,-2.1h.5Z" class="g0_1" />
<path d="M783.7,602.2v8.6h-.6v-.4l-.1,-.3v-.9l-.2,-.4v-.4l-.2,-.2v-.3l-.2,-.4l-.2,-.2V607l-.2,-.4l-.1,-.2l-.2,-.4l-.2,-.1l-.4,-.4l-.2,-.2l-.1,-.2l-.4,-.2l-.2,-.3H780l-.2,-.2l-.3,-.2h-.4l-.2,-.2l-.3,-.2H778l-.4,-.1h-.7l-.2,.1h-.3l-.4,.2h-.2l-.4,.2l-.1,.2l-.4,.2l-.2,.2l-.2,.1l-.2,.2l-.1,.4l-.2,.4l-.2,.1v.4l-.2,.4v1.4l.2,.4v.4l.2,.2l.2,.3v.2h.1l.2,.2l.2,.2v.2l.2,.1l.4,.2l.1,.2l.2,.2l.2,.2l.4,.3l.2,.2l.3,.2l.4,.2l.4,.2l.3,.3l.4,.2l.4,.2l.1,.4l.6,.2l.4,.1l.3,.2l.2,.4l.4,.2l.3,.2l.2,.1l.4,.2l.2,.2l.2,.2l.3,.2l.2,.2l.2,.1h.2l.2,.2l.1,.4l.2,.2l.2,.2l.4,.3l.2,.2l.1,.4l.2,.3v.2l.2,.2v.4l.2,.3l.2,.4v.7l.2,.4v1.5l-.2,.3v.6l-.2,.4v.3l-.2,.4l-.2,.2l-.2,.3v.4l-.1,.2l-.4,.4l-.2,.1l-.2,.4l-.3,.4l-.2,.2l-.2,.1l-.2,.2l-.4,.2l-.1,.2l-.4,.2h-.2l-.4,.2l-.1,.1H780l-.2,.2h-3.1l-.2,-.2H776l-.2,-.1l-.4,-.2l-.3,-.2h-.4l-.4,-.2l-.5,-.2h-.2l-.4,-.2h-.7l-.4,.2v.2l-.1,.4v.5h-.8v-8.4h.6l.2,.4v.5l.1,.4v.3l.2,.4v.4l.2,.3v.4l.2,.2v.4l.2,.1v.2l.2,.2l.1,.4l.2,.2l.2,.3l.4,.2l.2,.2l.1,.2l.4,.3l.4,.2l.2,.2l.3,.2h.2l.4,.2h.3l.2,.2h.8l.1,.1h1l.1,-.1h.8l.3,-.2h.2l.4,-.2l.2,-.2l.2,-.2l.3,-.2l.2,-.1l.2,-.2l.2,-.4l.2,-.4l.1,-.1v-.4l.2,-.4v-.3l.2,-.4v-.7l-.2,-.2v-.4l-.2,-.4v-.3l-.1,-.2v-.2l-.2,-.4l-.2,-.1l-.4,-.4l-.2,-.2l-.1,-.4h-.2l-.2,-.1l-.2,-.2l-.2,-.2l-.3,-.2l-.2,-.2l-.2,-.2l-.4,-.1l-.3,-.2l-.4,-.4l-.4,-.2l-.3,-.3h-.2l-.4,-.2l-.4,-.4l-.3,-.2l-.4,-.2l-.2,-.1l-.3,-.2l-.2,-.4l-.4,-.2l-.2,-.2l-.2,-.1l-.3,-.2l-.2,-.2h-.2l-.2,-.2v-.2l-.3,-.2l-.2,-.1l-.2,-.4l-.2,-.2l-.2,-.4l-.2,-.1l-.1,-.4l-.2,-.4h-.2v-.3l-.2,-.4l-.2,-.4v-.7l-.2,-.4v-1.4l.2,-.4v-.6l.2,-.3v-.4l.2,-.4l.2,-.3l.2,-.2l.1,-.4l.2,-.2l.2,-.3l.2,-.2l.2,-.2l.2,-.2l.1,-.3l.2,-.2l.4,-.2l.2,-.2l.3,-.2h.2l.4,-.2l.2,-.1h.3l.4,-.2h.9l.4,-.2h.5l.2,.2h.9l.4,.2h.2l.4,.1h.3l.2,.2l.4,.2l.2,.2l.5,.2l.2,.2h.9l.2,-.2h.2l.2,-.4v-.2l.1,-.5v-.2h.6Z" class="g0_1" />
<path d="M791.9,605.3V611h3.5v1.3h-3.5v11.3l.2,.4v.7l.2,.4v.2h.2l.2,.4l.2,.1H794l.3,-.1l.2,-.2l.2,-.2l.2,-.2l.2,-.4l.1,-.3h.6l-.2,.3l-.2,.4v.4l-.2,.3l-.1,.4l-.2,.2l-.2,.2l-.2,.3l-.2,.2l-.3,.2l-.4,.2l-.2,.2l-.4,.2h-.1l-.4,.1h-.6l-.3,-.1h-.4l-.2,-.2l-.2,-.2l-.3,-.2l-.2,-.2l-.2,-.3l-.2,-.2l-.2,-.4V626l-.1,-.3v-.8l-.2,-.3V612.3h-2.2v-.8h.2l.3,-.1l.2,-.2l.4,-.2l.2,-.4l.1,-.2l.4,-.1l.2,-.4l.2,-.2l.2,-.2l.1,-.3l.2,-.4l.2,-.2l.2,-.4l.2,-.3l.2,-.2v-.2l.1,-.4l.2,-.1v-.4l.2,-.6l.2,-.3l.2,-.4h.3Z" class="g0_1" />
<path d="M804.8,625.3l-.4,.4l-.4,.3l-.3,.2l-.2,.4l-.4,.2l-.2,.1l-.3,.2l-.2,.2v.2h-.2l-.2,.2l-.2,.2h-.3l-.4,.1h-1.8l-.2,-.1l-.4,-.2l-.2,-.2l-.3,-.2l-.2,-.2l-.2,-.2l-.2,-.3l-.2,-.2l-.1,-.4v-.3l-.2,-.2v-.4l-.2,-.4v-1.8l.2,-.4v-.1l.2,-.4v-.4l.1,-.2l.2,-.3l.2,-.2l.2,-.4l.2,-.2l.3,-.1l.2,-.2l.4,-.4l.2,-.2l.3,-.2l.2,-.1h.2l.2,-.2l.2,-.2h.2l.3,-.2l.2,-.2l.2,-.2h.4l.3,-.1l.2,-.2l.4,-.2l.3,-.2l.4,-.2l.4,-.2h.3l.4,-.1l.4,-.2v-2.6l-.2,-.4v-.3l-.2,-.2v-.4l-.2,-.2v-.1l-.2,-.2l-.3,-.2l-.2,-.2l-.4,-.2l-.2,-.2h-1.4l-.2,.2l-.4,.2l-.2,.2h-.1l-.2,.4l-.2,.3l-.2,.2v2.4l-.2,.4l-.2,.1l-.1,.2l-.2,.2l-.4,.2h-.2l-.3,-.2h-.2l-.4,-.2v-.2l-.2,-.1l-.2,-.4v-1.5l.2,-.2v-.3l.2,-.4l.2,-.2l.2,-.3l.2,-.4l.3,-.2v-.2l.4,-.2l.2,-.1l.2,-.2l.1,-.2h.4l.2,-.2l.4,-.2h.5l.4,-.2H804l.4,.2h.2l.4,.2h.1l.4,.2l.2,.2l.4,.2l.1,.1l.2,.2l.2,.4l.2,.4l.2,.1l.2,.4v.4l.1,.3v10.1l.2,.4v1.1l.2,.2v.2h.4v.1l.3,-.1h.2l.2,-.2l.2,-.2l.2,-.2l.2,-.4l.3,-.3h.2v.9l-.4,.4l-.1,.3l-.2,.4l-.4,.4l-.2,.1l-.2,.2l-.3,.2l-.2,.2l-.2,.2l-.4,.2l-.1,.1h-1l-.3,-.1h-.2l-.4,-.4l-.2,-.2v-.4l-.1,-.3v-.4l-.2,-.4v-.5Zm0,-1.1v-6.4l-.4,.2l-.4,.1l-.3,.2l-.4,.2l-.4,.2h-.1l-.4,.2l-.2,.2H802l-.2,.1l-.3,.2l-.4,.4l-.2,.2l-.2,.2l-.3,.1l-.2,.4l-.2,.2l-.2,.4l-.2,.3v.4l-.1,.4v.9l.1,.3v.4l.2,.4v.2l.2,.3l.2,.2l.2,.2l.3,.4l.2,.1h.2l.4,.2h.3l.4,-.2h.2l.2,-.1h.3l.2,-.2l.4,-.2l.2,-.2l.3,-.4l.4,-.1l.4,-.4Z" class="g0_1" />
<path d="M814.5,601.6h.4l.3,.2h.2l.2,.4h.2l.2,.2v.3l.1,.4v.7l-.1,.4v.4l-.2,.2l-.4,.3h-.2l-.3,.2h-.6l-.4,-.2h-.1l-.4,-.3l-.2,-.2l-.2,-.4v-1.5l.2,-.3l.2,-.2l.4,-.2l.1,-.2l.4,-.2h.2Zm1.3,8.8v14l.2,.5v.9l.1,.2v.4l.2,.2l.4,.2l.2,.1h.2l.3,.2h.6v.6h-7v-.6h.6l.3,-.2h.6v-.1l.2,-.2l.1,-.2l.2,-.4l.2,-.2V613.9l-.2,-.3l-.2,-.4V613h-.3l-.2,-.2h-.4l-.3,.2h-.4l-.2,.2l-.2,-.7l4.4,-2.1h.6Z" class="g0_1" />
<path d="M824,610.4v3.9l.2,-.6l.2,-.3l.2,-.4l.2,-.4l.3,-.3l.2,-.4l.2,-.2l.2,-.2l.2,-.3l.3,-.2l.2,-.2h.2l.2,-.2l.2,-.2h1.2l.4,.2l.2,.2l.4,.2l.1,.4l.2,.1v.4l.2,.4v.5l-.2,.4l-.2,.4v.1l-.3,.2l-.2,.2h-1.1l-.2,-.2l-.4,-.3l-.3,-.4l-.4,-.2h-.2l-.2,-.2l-.1,.2l-.4,.2l-.2,.2l-.2,.3l-.2,.2l-.1,.4l-.2,.2l-.2,.3l-.2,.4l-.2,.6v9.3l.2,.4v.3l.2,.4l.2,.2l.3,.4l.4,.1h.6l.3,.2h.2v.6h-7.1v-.6h.3l.4,-.2h.5l.2,-.1l.4,-.4l.2,-.2v-.5l.2,-.2V614.7l-.2,-.4v-.7l-.2,-.4h-.2l-.2,-.2l-.3,-.2H820l-.4,.2h-.2l-.1,.2l-.2,-.7l4.2,-2.1h.7Z" class="g0_1" />
<path d="M393.6,645.3l.3,.2h1.3l.2,.1h.5l.4,.2h.4l.2,.2l.3,.2h.2l.4,.2l.2,.2l.1,.1l.4,.2l.2,.2l.4,.2l.1,.2l.2,.2l.4,.3l.2,.2l.2,.2l.3,.4l.2,.1v.2l.2,.2l.2,.2l.3,.4l.2,.3l.2,.2v.4l.2,.2l.2,.3l.2,.4l.1,.2l.2,.3v.4l.2,.2l.2,.4v.3l.2,.4v.4l.2,.3v.6l.1,.3v1.7l.2,.4V659l-.2,.4v1.5l-.1,.3v.8l-.2,.3v.4l-.2,.4v.3l-.2,.2l-.2,.4v.3l-.2,.4l-.1,.2l-.2,.4v.3l-.2,.2l-.2,.4l-.2,.2l-.2,.3l-.1,.2l-.2,.4l-.2,.2l-.2,.1l-.2,.4l-.2,.2l-.3,.2l-.2,.3l-.2,.2l-.4,.2l-.1,.2l-.2,.2l-.4,.3h-.2l-.3,.2l-.2,.2l-.4,.2l-.2,.2l-.3,.2h-.2l-.4,.1h-.2l-.3,.2h-.4l-.2,.2h-1.3l-.3,.2H393l-.4,-.2h-1.2l-.2,-.2h-.4l-.2,-.2h-.3l-.4,-.1h-.2l-.4,-.2l-.1,-.2l-.4,-.2l-.2,-.2l-.2,-.2l-.3,-.1l-.2,-.2l-.4,-.2l-.2,-.2l-.2,-.2l-.3,-.2l-.2,-.3l-.2,-.2l-.2,-.2l-.2,-.2l-.1,-.3l-.2,-.2l-.2,-.4l-.2,-.2l-.2,-.3l-.2,-.2l-.1,-.4l-.2,-.2l-.2,-.3l-.2,-.4v-.2l-.2,-.4l-.2,-.3v-.4l-.1,-.4v-.1l-.2,-.4v-.4l-.2,-.3v-.8l-.2,-.3v-4.8l.2,-.4V655l.2,-.4v-.3l.2,-.4v-.4l.1,-.3V653l.2,-.4l.2,-.4v-.3l.2,-.2l.2,-.4l.2,-.3l.1,-.2l.2,-.4l.2,-.2l.2,-.3l.2,-.2l.2,-.4l.1,-.2l.2,-.2l.2,-.3l.4,-.2l.2,-.2l.1,-.4l.4,-.1l.2,-.2l.2,-.2l.3,-.2l.2,-.2l.4,-.2l.2,-.1l.3,-.2l.2,-.2h.4l.2,-.2l.3,-.2h.2l.4,-.2h.5l.4,-.1h1.3l.2,-.2h.2Zm-.2,1.4h-1.1l-.2,.2h-.7l-.2,.2l-.4,.2l-.2,.2h-.3l-.2,.2l-.2,.3l-.4,.2l-.2,.2l-.1,.2l-.2,.3l-.2,.2l-.2,.4l-.2,.2l-.2,.2l-.1,.3v.2l-.2,.4l-.2,.2v.3l-.2,.4l-.2,.2v.3l-.2,.4v.7l-.1,.4v.4l-.2,.3v1.1l-.2,.4v4.4l.2,.6V662l.2,.3v.8l.1,.3v.4l.2,.4v.1l.2,.4v.4l.2,.3l.2,.2v.4l.2,.2l.1,.3v.2l.2,.4l.2,.2l.2,.3l.2,.2l.2,.4l.3,.2l.2,.3l.2,.2l.2,.2l.3,.2l.2,.2h.4l.2,.2l.3,.1h.2l.4,.2h2.4l.3,-.2h.4l.2,-.1h.4l.1,-.2l.4,-.2l.2,-.2l.2,-.2l.3,-.2l.2,-.1l.2,-.2l.4,-.4l.2,-.2l.1,-.3h.2v-.4l.2,-.2l.2,-.2l.2,-.3v-.2l.2,-.4l.1,-.2v-.3l.2,-.2v-.4l.2,-.4V664l.2,-.4v-.7l.2,-.4v-.7l.2,-.4v-5.3l-.2,-.4v-1.3l-.2,-.3v-.8l-.2,-.1v-.4l-.2,-.4v-.3l-.2,-.4v-.2l-.1,-.4l-.2,-.1v-.4l-.2,-.2l-.2,-.4v-.1l-.2,-.4l-.2,-.2l-.1,-.2l-.2,-.2l-.2,-.1l-.2,-.4l-.2,-.2L397,648l-.3,-.2l-.2,-.1l-.4,-.2l-.2,-.2l-.1,-.2h-.4l-.4,-.2h-.2l-.3,-.2h-1.1Z" class="g0_1" />
<path d="M410.2,653.5v3.9l.2,-.6l.2,-.3l.2,-.4l.2,-.4l.2,-.3l.3,-.2l.2,-.4l.2,-.2l.2,-.3l.2,-.2h.3l.2,-.2l.2,-.2h.2l.2,-.2h1.1l.3,.2l.2,.2l.2,.2l.4,.3l.1,.4v.6l.2,.1l-.2,.4v.4l-.1,.3l-.2,.2l-.2,.2l-.2,.2h-1.1l-.2,-.2l-.3,-.4h-.2l-.2,-.3l-.4,-.2h-.2l-.1,-.2l-.4,.2l-.2,.2v.2l-.2,.1l-.2,.2l-.1,.2l-.2,.4l-.2,.3l-.2,.2l-.2,.4l-.2,.5v9.8l.2,.1v.4l.2,.2l.2,.2l.4,.3l.1,.2h.4l.4,.2h.5v.6h-7.3v-.6h.7l.4,-.2h.2l.3,-.2l.2,-.3l.2,-.2l.2,-.4v-.5l.2,-.4v-9.2l-.2,-.3V657l-.2,-.4v-.3h-.2l-.2,-.2l-.3,-.2h-.4l-.4,.2h-.3l-.2,.2l-.2,-.8l4.4,-2h.7Z" class="g0_1" />
<path d="M420.9,657l.2,-.4l.1,-.1l.4,-.4l.2,-.4l.4,-.2l.1,-.3l.2,-.2l.4,-.2l.2,-.4l.3,-.1l.2,-.2h.2l.4,-.2l.2,-.2h.1l.4,-.2h1.3l.4,.2h.3l.2,.2l.4,.2l.2,.2l.1,.1l.2,.2l.2,.2l.2,.4l.2,.3l.2,.4l.1,.4v.3l.2,.4v.7l.2,.2v10.8l.2,.2v.4l.2,.2l.2,.3h.1l.2,.2h.4l.2,.2h.7v.6h-7.1v-.6h.7l.4,-.2h.3l.2,-.2h.2l.2,-.1l.2,-.4v-.4l.1,-.2v-9.9l-.1,-.3v-.8l-.2,-.3v-.2l-.2,-.4l-.2,-.3l-.2,-.2l-.2,-.2l-.3,-.2h-.2l-.4,-.2h-.5l-.2,.2h-.6l-.1,.2l-.4,.2h-.2l-.4,.2l-.1,.3l-.2,.2l-.4,.2l-.2,.4l-.3,.1l-.2,.4v11h.2v.4l.3,.2l.2,.1l.2,.2h.2l.3,.2h.8v.6h-7v-.6h.6l.3,-.2h.4l.2,-.2l.2,-.1l.1,-.2v-.2l.2,-.2V668l.2,-.5v-8.3l-.2,-.5v-1.5l-.2,-.6v-.3h-.1l-.2,-.2l-.4,-.2h-.4l-.3,.2h-.2l-.2,.2l-.4,-.8l4.4,-2h.8V657Z" class="g0_1" />
<path d="M440.7,668.4l-.4,.3l-.4,.4l-.3,.4l-.2,.2l-.4,.1l-.2,.4l-.3,.2h-.2l-.2,.2v.2h-.2l-.2,.1h-.3l-.4,.2h-1.8l-.2,-.2l-.4,-.1l-.2,-.2l-.3,-.2l-.2,-.2l-.2,-.2l-.2,-.3l-.2,-.2l-.1,-.4v-.2l-.2,-.3v-.4l-.2,-.4v-2l.2,-.4l.2,-.3v-.4l.1,-.2l.2,-.3l.2,-.2l.2,-.2l.2,-.4l.3,-.2l.2,-.1l.4,-.4l.2,-.2l.3,-.2h.2l.2,-.2l.2,-.1l.2,-.2h.2l.3,-.2l.2,-.2l.2,-.2h.4l.3,-.2l.2,-.1l.4,-.2l.3,-.2l.4,-.2h.4l.3,-.2l.4,-.2l.4,-.1v-2.6l-.2,-.4v-.2l-.2,-.3v-.4l-.2,-.2v-.2l-.2,-.1l-.3,-.2l-.2,-.2l-.4,-.2h-.2l-.3,-.2h-.8l-.3,.2h-.2l-.4,.2l-.2,.2h-.1l-.2,.3l-.2,.4l-.2,.2v2.4l-.2,.3l-.2,.2l-.1,.2l-.2,.2l-.4,.2h-.5l-.2,-.2l-.4,-.2V659l-.2,-.2l-.2,-.3V657l.2,-.2v-.3l.2,-.4l.2,-.2l.2,-.4l.2,-.1l.1,-.4l.2,-.2l.2,-.2l.4,-.2l.2,-.1l.1,-.2h.4l.2,-.2h.4l.3,-.2h.2l.4,-.2h2.2l.3,.2h.6l.4,.2h.1l.4,.2l.2,.2l.4,.1l.1,.2l.2,.4l.2,.2l.2,.3l.2,.2l.2,.4v.4l.1,.3v10.1l.2,.4v1.1l.2,.2v.1l.4,.2l.3,-.2h.2l.2,-.1l.2,-.2l.2,-.2l.2,-.4l.3,-.3h.2v.9l-.4,.3l-.1,.4l-.2,.4l-.4,.3l-.2,.2l-.2,.2l-.3,.4l-.2,.2h-.2l-.4,.1l-.1,.2h-1.3l-.2,-.2l-.4,-.1v-.2l-.2,-.2l-.1,-.4v-.7l-.2,-.4v-.5Zm0,-1.1v-6.4l-.4,.1l-.4,.2l-.3,.2l-.4,.2l-.4,.2h-.1l-.4,.2l-.2,.1h-.2l-.2,.2l-.3,.2l-.4,.4l-.2,.2l-.3,.1l-.2,.2l-.2,.4l-.2,.2l-.2,.3l-.2,.4v.4l-.1,.3v1.3l.1,.4l.2,.4v.3l.2,.2l.2,.2l.2,.2l.2,.3l.3,.2h.2l.4,.2h.3l.4,-.2h.4l.3,-.2l.2,-.1l.4,-.2l.2,-.2l.3,-.2l.4,-.4l.2,-.3h.2Z" class="g0_1" />
<path d="M451.1,657.2l.4,-.6l.2,-.3l.3,-.4l.2,-.2l.2,-.3l.2,-.2h.2l.2,-.2l.1,-.2l.2,-.2l.4,-.3l.2,-.2h.3l.2,-.2l.4,-.2h.2l.3,-.2h1.3l.4,.2h.4l.1,.2l.4,.2l.2,.2l.2,.1l.3,.2l.2,.4l.2,.2l.2,.3v.2l.2,.4l.2,.4v.7l.3,-.4l.2,-.3l.4,-.4l.2,-.4l.1,-.2l.4,-.3l.2,-.2l.2,-.2l.2,-.2l.1,-.2l.2,-.1h.2l.4,-.2l.2,-.2l.3,-.2h.4l.2,-.2h1.4l.4,.2h.2l.4,.2l.1,.2l.4,.2l.2,.1l.2,.2l.2,.2l.1,.4l.2,.3l.2,.2l.2,.4v.4l.2,.1v.8l.2,.2v10.8l.1,.3v.6l.2,.2l.2,.2l.2,.1l.4,.2h.1l.4,.2h.6v.6h-7.2v-.6h.7l.4,-.2h.2l.4,-.2h.1l.2,-.3l.2,-.2l.2,-.4V658.5l-.2,-.4v-.7l-.2,-.2v-.4l-.2,-.2l-.1,-.3l-.2,-.2l-.4,-.2h-.2l-.3,-.2h-1.1l-.4,.2h-.2l-.4,.2l-.1,.2h-.2l-.2,.2l-.4,.1l-.2,.2l-.1,.4l-.4,.2l-.2,.3l-.4,.2v10.8l.2,.4l.2,.4l.2,.2l.2,.1l.2,.2h.3l.2,.2h.9v.6h-7.3v-.6h.9l.2,-.2h.4l.1,-.2l.2,-.1l.2,-.4l.2,-.2l.2,-.2V658.5l-.2,-.4v-.7l-.2,-.2l-.2,-.2v-.2l-.2,-.2l-.1,-.3l-.2,-.2l-.4,-.2l-.2,-.2h-1.4l-.2,.2h-.4l-.2,.2l-.2,.2l-.3,.2l-.4,.1l-.2,.2l-.3,.2l-.2,.2l-.2,.4l-.2,.1l-.2,.2v11l.2,.2l.2,.4l.2,.3h.2l.1,.2h.2l.4,.2h.7v.6h-6.9v-.6h.7l.2,-.2h.3v-.2l.4,-.1l.2,-.2l.2,-.4v-.7l.2,-.6V659l-.2,-.3V657l-.2,-.4v-.3H448l-.2,-.2l-.3,-.2h-.4l-.4,.2h-.2l-.1,.2l-.4,-.8l4.4,-2h.7v3.7Z" class="g0_1" />
<path d="M474,660.3v.9l.2,.4v1.1l.2,.4v.3l.2,.4v.4l.2,.3v.2l.2,.4l.1,.3l.2,.2v.4l.2,.2h.2l.2,.3l.2,.2l.3,.4l.2,.2l.2,.2l.4,.1l.1,.2l.4,.2l.2,.2h.5l.4,.2h1.1l.4,-.2h.3l.2,-.2l.4,-.2l.2,-.2l.2,-.1h.1l.2,-.2l.2,-.2l.2,-.4l.2,-.2l.2,-.3l.1,-.2l.2,-.4l.2,-.3l.2,-.4v-.4l.2,-.2l.3,.4v.7l-.1,.4v.4l-.2,.2l-.2,.3v.4l-.2,.4l-.2,.1l-.2,.4l-.1,.4l-.2,.3l-.2,.2l-.2,.4l-.2,.2l-.3,.3l-.2,.2l-.2,.2l-.4,.2l-.2,.2l-.1,.2l-.4,.1l-.2,.2h-.4l-.3,.2h-2l-.2,-.2h-.4l-.4,-.2h-.1l-.4,-.1l-.2,-.2l-.2,-.2l-.3,-.2l-.2,-.2l-.4,-.2l-.2,-.1l-.2,-.4l-.1,-.2l-.2,-.2l-.2,-.2l-.2,-.1l-.2,-.4l-.2,-.2v-.4l-.1,-.3l-.2,-.2v-.4l-.2,-.3l-.2,-.4v-.7l-.2,-.4v-.7l-.2,-.4v-2.4l.2,-.4v-1.1l.2,-.3v-.4l.2,-.4v-.3l.2,-.4l.2,-.2v-.3l.1,-.4l.2,-.2l.2,-.4l.2,-.1v-.4l.2,-.2l.3,-.2l.2,-.3l.2,-.2l.4,-.2l.2,-.2l.1,-.4h.4l.2,-.1l.4,-.2l.1,-.2h.4l.2,-.2h.4l.3,-.2h2l.2,.2h.4l.2,.2h.3l.2,.2l.4,.2l.2,.1l.3,.2l.2,.2l.2,.2l.2,.4h.2l.2,.1l.1,.4l.2,.2l.2,.4v.3l.2,.2l.2,.4v.3l.2,.4v.4l.1,.3v1.5H474Zm0,-1.1h6.6v-1.3l-.1,-.3V657l-.2,-.4l-.2,-.3l-.2,-.2l-.2,-.4l-.3,-.2l-.2,-.1l-.2,-.2l-.4,-.2h-.2l-.3,-.2H477l-.2,.2h-.4l-.2,.2l-.3,.2l-.2,.1l-.4,.4l-.2,.4l-.1,.2l-.2,.3l-.2,.2l-.2,.4v.3l-.2,.4v.7l-.2,.4Z" class="g0_1" />
<path d="M490,657l.4,-.4l.1,-.1l.4,-.4l.2,-.4l.2,-.2l.3,-.3l.2,-.2l.4,-.2l.2,-.4l.2,-.1l.3,-.2h.2l.2,-.2l.4,-.2h.1l.2,-.2h1.5l.4,.2h.1l.4,.2l.2,.2l.2,.2l.3,.1l.2,.2l.2,.2l.2,.4l.2,.3v.4l.2,.4l.1,.2v.5l.2,.4v1.1l.2,.3v10.1l.2,.4l.2,.2l.2,.3h.1l.2,.2h.2l.4,.2h.7v.6h-7.1v-.6h.7l.4,-.2h.1l.4,-.2l.2,-.1l.2,-.4l.2,-.4v-.5l.1,-.4v-8.2l-.1,-.6v-1.1l-.2,-.4v-.5l-.2,-.4l-.2,-.3l-.2,-.2l-.2,-.2l-.3,-.2h-.2l-.4,-.2h-.5l-.2,.2h-.6l-.3,.2l-.2,.2h-.4l-.2,.2l-.1,.3l-.4,.2l-.2,.2l-.4,.4l-.1,.1l-.2,.4H490V668l.2,.4v.7l.2,.4l.1,.2l.4,.1l.2,.2h.2l.3,.2h.8v.6h-7.2v-.6h.8l.3,-.2h.4l.2,-.2l.2,-.1v-.2l.1,-.2v-.2l.2,-.4V657.2l-.2,-.6l-.1,-.3l-.4,-.2l-.2,-.2h-.4l-.3,.2h-.4l-.2,.2l-.2,-.8l4.4,-2h.6V657Z" class="g0_1" />
<path d="M505.9,648.6v5.5h3.5v1.3h-3.5v11.3l.2,.4v.7l.2,.4v.2h.2l.2,.3l.2,.2H508l.3,-.2l.2,-.1l.2,-.2l.2,-.2l.2,-.4l.1,-.3h.6l-.2,.3v.4l-.2,.4l-.2,.3l-.1,.4l-.2,.2l-.2,.3l-.2,.2l-.2,.2l-.3,.2l-.2,.2l-.4,.2l-.4,.1h-.1l-.4,.2h-.6l-.3,-.2h-.4l-.2,-.1l-.2,-.2l-.3,-.2l-.2,-.2l-.2,-.2l-.2,-.3l-.2,-.4v-.2l-.1,-.4v-1.1l-.2,-.3V655.4h-2.2v-.8h.2l.3,-.2l.2,-.1l.4,-.2l.2,-.4l.3,-.2l.2,-.2l.2,-.1l.2,-.4l.2,-.2l.1,-.4l.2,-.1l.2,-.4l.2,-.4l.2,-.3l.2,-.2v-.2l.1,-.4l.2,-.2l.2,-.3v-.6l.2,-.3l.2,-.2h.3Z" class="g0_1" />
<path d="M518.8,668.4l-.4,.3l-.4,.4l-.3,.4l-.2,.2l-.4,.1l-.2,.4l-.1,.2h-.2l-.2,.2l-.2,.2H516l-.2,.1h-.3l-.2,.2h-2l-.2,-.2l-.4,-.1l-.2,-.2l-.1,-.2l-.4,-.2l-.2,-.2l-.2,-.3l-.2,-.2l-.1,-.4v-.2l-.2,-.3v-.4l-.2,-.4V666l.2,-.2v-.4l.2,-.3v-.4h.1v-.2l.2,-.3l.2,-.2l.2,-.2l.4,-.4l.1,-.2l.2,-.1l.4,-.4l.4,-.2l.1,-.2h.2l.2,-.2l.2,-.1l.2,-.2h.2l.3,-.2l.2,-.2l.4,-.2h.2l.3,-.2l.2,-.1l.4,-.2l.3,-.2l.4,-.2h.4l.3,-.2l.4,-.2l.4,-.1v-2.6l-.2,-.4v-.5l-.2,-.4l-.2,-.2v-.2l-.2,-.1l-.3,-.2l-.2,-.2l-.2,-.2h-.4l-.3,-.2h-.8l-.3,.2h-.2l-.4,.2l-.2,.2h-.1l-.2,.3l-.2,.4v.2l-.2,.4v2l-.2,.3l-.2,.2l-.1,.2l-.2,.2l-.4,.2h-.5l-.2,-.2l-.2,-.2l-.2,-.2l-.2,-.2l-.2,-.3V657l.2,-.2v-.3l.2,-.4l.2,-.2l.2,-.4l.2,-.1l.3,-.4v-.2l.4,-.2l.2,-.2l.2,-.1l.3,-.2h.2l.4,-.2h.2l.3,-.2h.2l.4,-.2h2.2l.3,.2h.6l.4,.2h.1l.4,.2l.2,.2h.2l.2,.1l.1,.2l.4,.4l.2,.2l.2,.3v.2l.2,.4v.2l.1,.2v9.1l.2,.6v2.2l.2,.2v.1l.4,.2h.2l.1,-.2h.2l.2,-.1l.2,-.2l.2,-.2l.2,-.4l.3,-.3h.2v.9l-.4,.3l-.1,.4l-.2,.4l-.4,.3l-.2,.2l-.2,.2l-.3,.4l-.2,.2h-.2l-.2,.1l-.3,.2h-1.3l-.2,-.2l-.2,-.1l-.2,-.2l-.2,-.2V670l-.1,-.3v-.8l-.2,-.3v-.2Zm0,-1.1v-6.4l-.4,.1l-.4,.2l-.3,.2l-.4,.2l-.4,.2h-.1l-.4,.2l-.2,.1H516l-.2,.2l-.3,.2l-.4,.4l-.2,.2l-.2,.1l-.3,.2l-.2,.4l-.2,.2l-.2,.3v.4l-.2,.4v.3l-.1,.4v.6l.1,.3v.4l.2,.4v.3l.2,.2l.2,.2l.2,.2l.3,.3l.2,.2h.4l.2,.2h.5l.2,-.2h.4l.3,-.2l.2,-.1l.4,-.2l.2,-.2l.3,-.2l.4,-.4l.4,-.3Z" class="g0_1" />
<path d="M529.8,644.7v22.4l.2,.5v1.3l.1,.2v.4l.4,.2l.2,.1l.2,.2h.2l.3,.2h.8v.6h-7v-.6h.7l.4,-.2h.2l.2,-.3l.1,-.2l.2,-.4l.2,-.2V648.2l-.2,-.4l-.2,-.3v-.2l-.3,-.2h-.6l-.3,.2h-.2l-.2,.2l-.4,-.8l4.4,-2h.6Z" class="g0_1" />
<path d="M550.7,670.2v.6h-9v-.6h1.1l.2,-.2h.3l.4,-.2l.2,-.1l.2,-.2l.2,-.2l.1,-.2v-.5l.2,-.4v-20l-.2,-.2v-.2l-.1,-.3l-.2,-.2l-.2,-.2l-.4,-.2l-.3,-.2H543l-.4,-.1h-.9V646h9v.6h-1.1l-.4,.1h-.4l-.1,.2l-.2,.2l-.2,.2l-.2,.2l-.2,.2v.1l-.2,.4v1.1l-.1,.6v17l.1,.6v1.2l.2,.2v.4l.2,.2l.4,.2l.3,.1l.2,.2h.4l.4,.2h.9Z" class="g0_1" />
<path d="M556.7,653.5v3.9l.2,-.6l.2,-.3l.2,-.4l.2,-.4l.1,-.3l.4,-.2l.2,-.4l.2,-.2l.2,-.3l.1,-.2h.4l.2,-.2l.2,-.2h.2l.1,-.2h1.1l.4,.2l.2,.2l.2,.2l.3,.3l.2,.4v.6l.2,.1l-.2,.4v.4l-.2,.3l-.1,.2l-.2,.2l-.2,.2h-1.1l-.2,-.2l-.4,-.4h-.1l-.2,-.3l-.4,-.2h-.2l-.2,-.2l-.3,.2l-.2,.2v.2l-.2,.1l-.2,.2l-.2,.2l-.1,.4l-.2,.3l-.2,.2l-.2,.4l-.2,.5v9.8l.2,.1v.4l.2,.2l.2,.2l.3,.3l.2,.2h.4l.4,.2h.5v.6h-7.3v-.6h.7l.4,-.2h.2l.3,-.2l.2,-.3l.2,-.2l.2,-.4V668l.2,-.5v-8.7l-.2,-.3V657l-.2,-.4v-.3h-.2l-.2,-.2l-.3,-.2h-.4l-.4,.2H552l-.2,.2l-.2,-.8l4.4,-2h.7Z" class="g0_1" />
<path d="M570.1,653.5h.9l.4,.2h.5l.4,.2l.2,.2h.4l.1,.2l.4,.1l.2,.2l.2,.2l.3,.2l.2,.2l.2,.3l.2,.2l.4,.2l.1,.4v.2l.4,.1v.4l.2,.4l.2,.2l.2,.3l.1,.4v.4l.2,.3l.2,.2v.7l.2,.4v1.1l.2,.4v.7l-.2,.4v.9l-.2,.4v.7l-.2,.4v.3l-.2,.4l-.1,.4v.3l-.2,.4l-.2,.4l-.2,.1l-.2,.4l-.2,.4l-.1,.2l-.2,.3l-.2,.2l-.2,.4l-.4,.2l-.1,.1l-.2,.2l-.2,.2l-.4,.2l-.2,.2l-.3,.2h-.2l-.4,.1l-.2,.2h-.3l-.4,.2h-2.6l-.1,-.2h-.4l-.4,-.2h-.2l-.3,-.1l-.2,-.2l-.2,-.2l-.4,-.2l-.1,-.2l-.2,-.2l-.4,-.1l-.2,-.4l-.2,-.2l-.1,-.4l-.2,-.1l-.2,-.2l-.2,-.4l-.2,-.4l-.2,-.1l-.1,-.4v-.4l-.2,-.3l-.2,-.2v-.4l-.2,-.4v-.3l-.2,-.4v-1.1l-.2,-.4V662l.2,-.4v-1.1l.2,-.4v-.3l.2,-.4V659l.2,-.3l.2,-.4l.1,-.4l.2,-.3v-.2l.2,-.4l.2,-.4l.2,-.3l.2,-.2l.3,-.4l.2,-.2l.2,-.1l.2,-.2l.3,-.4l.2,-.2h.2l.2,-.2l.4,-.1l.1,-.2l.4,-.2h.2l.4,-.2h.3l.2,-.2h1.1Zm-.5,1.1l-.2,.2h-.6l-.3,.2l-.4,.2l-.2,.2l-.2,.1l-.2,.2l-.1,.2l-.2,.4l-.2,.2l-.2,.3l-.2,.4v.2l-.2,.2v.7l-.1,.4v.5l-.2,.6v2.9l.2,.4v1.1l.1,.3v.4l.2,.4v.1l.2,.4v.4l.2,.3l.2,.2v.4l.2,.4l.1,.3l.2,.2l.2,.4l.2,.3l.2,.2l.3,.2l.2,.4l.2,.2h.2l.4,.1l.1,.2h1.5l.4,-.2h.2l.3,-.1l.2,-.2l.2,-.2l.4,-.4l.1,-.2v-.1l.2,-.2l.2,-.2v-.4l.2,-.2v-.3l.2,-.4v-.2l.2,-.3v-1.3l.1,-.4v-2.4l-.1,-.5v-1.1l-.2,-.4v-.7l-.2,-.4v-.4l-.2,-.1v-.4l-.2,-.4l-.2,-.2v-.3l-.1,-.2l-.2,-.4l-.2,-.2v-.1l-.2,-.4l-.4,-.2l-.1,-.2l-.2,-.3l-.2,-.2L571,655h-.2l-.3,-.2h-.6l-.3,-.2Z" class="g0_1" />
<path d="M583.3,657l.2,-.4l.4,-.1l.1,-.4l.2,-.4l.4,-.2l.2,-.3l.3,-.2l.2,-.2l.2,-.4l.4,-.1l.2,-.2h.3l.2,-.2l.2,-.2h.4l.1,-.2h1.5l.2,.2h.4l.1,.2l.4,.2l.2,.2l.2,.1l.2,.2l.1,.2l.2,.4l.2,.3l.2,.4l.2,.4v.2l.2,.1v.8l.1,.3v10.7l.2,.3v.6l.2,.2l.2,.3h.2l.2,.2h.3l.4,.2h.5v.6h-7.1v-.6h.7l.4,-.2h.4l.1,-.2h.2l.2,-.1l.2,-.4l.2,-.4V658.5l-.2,-.4v-.7l-.2,-.2v-.4h-.2l-.2,-.3l-.1,-.2l-.2,-.2l-.2,-.2h-.4l-.3,-.2h-.4l-.4,.2h-.5l-.2,.2l-.4,.2h-.2l-.1,.2l-.4,.3l-.2,.2l-.4,.2l-.1,.4l-.4,.1l-.2,.4v10.6l.2,.4l.2,.4l.2,.2l.1,.1l.2,.2h.2l.4,.2h.7v.6h-7v-.6h.8l.2,-.2h.3l.2,-.2l.2,-.1l.2,-.2v-.2l.2,-.2v-.7l.1,-.4V657.9l-.1,-.2v-1.1l-.2,-.3h-.2l-.2,-.2l-.4,-.2h-.3l-.2,.2h-.4l-.2,.2l-.1,-.8l4.2,-2h.7V657Z" class="g0_1" />
<path d="M609.7,651.7v-1.5l-.2,-.3v-.4l-.2,-.4l-.1,-.5v-.4l-.2,-.4v-.3l-.2,-.4v-.9l.2,-.4v-.2l.2,-.3l.3,-.4l.2,-.2h.7l.4,.2l.2,.2v.2l.2,.2v.3l.2,.4v1.3l-.2,.3v.6l-.2,.4v.1l-.2,.4v.4l-.2,.3v.8l-.2,.3v.6l.2,-.2l.4,-.2l.2,-.3l.2,-.2l.3,-.2l.2,-.4V650l.4,-.3l.2,-.4l.3,-.2l.2,-.3l.2,-.2l.2,-.2h.2l.3,-.2l.2,-.2h.7l.4,.2l.2,.2l.4,.2V650l-.2,.2l-.2,.4l-.2,.2H615l-.2,.2h-.3l-.2,.1l-.4,.2h-.3l-.6,.2l-.2,.2h-.3l-.4,.2h-.4l-.3,.2l-.2,.1h-.4v.2h.2l.2,.2l.3,.2h.4l.2,.2h.4l.1,.2h.6l.4,.1h.3l.4,.2l.2,.2h.2l.3,.2l.2,.2l.2,.3l.2,.2l.2,.4v.7l-.2,.4l-.2,.4l-.2,.1l-.4,.2h-.5l-.2,-.2l-.4,-.1h-.1l-.2,-.2l-.2,-.2l-.2,-.2l-.2,-.4l-.3,-.1l-.2,-.4l-.2,-.4l-.2,-.2l-.4,-.3l-.1,-.2l-.2,-.2l-.2,-.4l-.4,-.1l-.2,-.2v.7l.2,.4v.7l.2,.4l.2,.5v.6l.2,.3v.4l.2,.4v1.3l-.2,.3v.2l-.2,.2l-.2,.4l-.4,.1h-.5l-.4,-.1l-.2,-.2l-.1,-.2l-.2,-.2l-.2,-.4v-1.2l.2,-.4v-.4l.2,-.3v-.4l.1,-.6v-.3l.2,-.4v-.2l.2,-.2V653l-.2,.2l-.2,.1l-.3,.4l-.2,.2l-.2,.2l-.2,.3l-.2,.2l-.3,.4l-.2,.4l-.4,.1l-.2,.4l-.1,.2l-.2,.2l-.2,.2h-.2l-.2,.1l-.3,.2h-.6l-.2,-.2l-.3,-.1l-.2,-.4l-.2,-.4v-.5l.2,-.4l.2,-.4l.1,-.1l.2,-.2l.2,-.4h.4l.2,-.2h.1l.2,-.2h.4l.4,-.1h.3l.2,-.2h.4l.3,-.2h.2l.4,-.2h.2l.3,-.2h.2l-.3,-.2l-.2,-.1l-.4,-.2h-.4l-.1,-.2h-.4l-.2,-.2H607l-.4,-.2l-.4,-.2h-.3l-.2,-.1h-.4l-.2,-.2l-.3,-.4l-.2,-.2l-.2,-.3v-1l.2,-.3l.2,-.2l.1,-.4h.4l.2,-.2l.4,.2h.1l.4,.2l.2,.2h.2l.2,.2l.3,.3l.2,.2l.2,.4l.4,.4l.1,.3l.2,.2l.4,.4l.2,.2l.2,.1l.3,.2l.2,.2v.2Z" class="g0_1" />
<path d="M640.7,645.3v8.6h-.6v-.4l-.1,-.3v-.8l-.2,-.3v-.4l-.2,-.4V651l-.2,-.4l-.2,-.2V650l-.2,-.3l-.1,-.2l-.2,-.4l-.2,-.2l-.4,-.3l-.2,-.2l-.1,-.2l-.4,-.2l-.2,-.2l-.2,-.1l-.2,-.2l-.3,-.2h-.4l-.2,-.2h-.3l-.2,-.2h-2l-.4,.2h-.2l-.4,.2l-.1,.2l-.4,.2l-.2,.1l-.2,.2l-.2,.2l-.1,.4l-.2,.3l-.2,.2v.4l-.2,.4v1.4l.2,.4v.4l.2,.3l.2,.2v.2l.1,.2h.2l.2,.2v.1l.2,.2l.4,.2l.1,.2l.2,.2l.2,.3l.4,.2l.2,.2l.3,.2l.4,.2l.4,.3l.3,.2l.4,.2l.4,.4l.1,.2l.6,.1l.4,.2l.3,.4l.2,.2l.4,.2l.3,.1l.2,.2l.4,.2l.2,.2l.2,.2l.3,.2l.2,.1l.2,.2l.2,.2h.2l.1,.4l.2,.2l.2,.3l.4,.2l.2,.4l.1,.2l.2,.3v.4h.2v.4l.2,.3l.2,.4v.7l.2,.4v1.5l-.2,.3v.6l-.2,.3v.4l-.2,.4l-.2,.3l-.2,.2v.4l-.1,.2l-.4,.3l-.2,.4l-.2,.2l-.2,.4l-.3,.1l-.2,.2l-.2,.2l-.4,.2l-.1,.2l-.4,.2h-.2l-.4,.1l-.1,.2h-.4l-.4,.2h-.9l-.4,.2h-.5l-.4,-.2h-1.1l-.2,-.2H633l-.2,-.2l-.4,-.1h-.3l-.4,-.2l-.4,-.2l-.5,-.2h-.2l-.4,-.2h-.7l-.4,.2v.4l-.1,.2v.5l-.2,.2h-.6v-8.6h.6l.2,.3v.6l.1,.4v.3l.2,.4v.4l.2,.3v.4l.2,.2v.3l.2,.2v.2l.2,.2l.1,.4l.2,.1l.2,.4l.4,.2l.2,.2l.1,.3l.4,.2l.4,.2l.2,.2l.3,.2h.2l.4,.2h.3l.2,.1h.4l.4,.2h1.4l.2,-.2h.4l.3,-.1h.2l.4,-.2l.2,-.2l.2,-.2l.3,-.2l.2,-.2l.2,-.1l.2,-.4l.2,-.4l.1,-.2v-.3l.2,-.4v-.4l.2,-.3v-.6l-.2,-.3v-.4l-.2,-.4v-.3l-.1,-.2v-.2l-.2,-.4l-.2,-.2l-.4,-.3l-.2,-.2l-.1,-.4h-.2l-.2,-.2l-.2,-.1l-.2,-.2l-.3,-.2l-.2,-.2l-.2,-.2l-.4,-.2l-.3,-.1l-.4,-.4l-.4,-.2l-.3,-.2l-.2,-.2l-.4,-.1l-.4,-.4l-.3,-.2l-.4,-.2l-.2,-.2l-.3,-.1l-.2,-.2l-.4,-.4l-.2,-.2l-.2,-.2H631l-.2,-.1l-.2,-.2l-.2,-.2l-.3,-.4l-.2,-.2l-.2,-.3l-.2,-.2l-.2,-.4l-.2,-.2l-.1,-.3l-.2,-.2l-.2,-.2v-.4l-.2,-.3l-.2,-.4V653l-.2,-.4v-1.5l.2,-.3v-.6l.2,-.3v-.4l.2,-.4l.2,-.2l.2,-.3l.1,-.4l.2,-.2l.2,-.3l.2,-.2l.2,-.2l.2,-.2l.1,-.2l.2,-.3l.4,-.2l.2,-.2h.3l.2,-.2l.4,-.2l.2,-.2h.3l.4,-.1h1.3l.2,-.2l.3,.2h1.1l.4,.1h.2l.4,.2l.3,.2h.2l.4,.2l.2,.2l.5,.2l.2,.1h.9l.2,-.1h.2l.2,-.2V646l.1,-.4v-.3h.6Z" class="g0_1" />
<path d="M648.9,648.6v5.5h3.5v1.3h-3.5v11.3l.2,.4v.7l.2,.4v.2h.2l.2,.3l.2,.2H651l.3,-.2l.2,-.1l.2,-.2l.2,-.2l.2,-.4l.1,-.3h.6l-.2,.3l-.2,.4v.4l-.2,.3l-.1,.4l-.2,.2l-.2,.3l-.2,.2l-.2,.2l-.3,.2l-.4,.2l-.2,.2l-.4,.1h-.1l-.4,.2h-.6l-.3,-.2h-.4l-.2,-.1l-.2,-.2l-.3,-.2l-.2,-.2l-.2,-.2l-.2,-.3l-.2,-.4v-.2l-.1,-.4V668l-.2,-.4V655.4h-2.2v-.8h.2l.3,-.2l.2,-.1l.4,-.2l.2,-.4l.1,-.2l.4,-.2l.2,-.1l.2,-.4l.2,-.2l.1,-.4l.2,-.1l.2,-.4l.2,-.4l.2,-.3l.2,-.2v-.2l.1,-.4l.2,-.2v-.3l.2,-.6l.2,-.3l.2,-.2h.3Z" class="g0_1" />
<path d="M657.9,653.5v3.9l.2,-.6l.2,-.3l.2,-.4l.3,-.4l.2,-.3l.2,-.2l.2,-.4l.2,-.2l.3,-.3l.2,-.2h.2l.2,-.2l.2,-.2h.3l.2,-.2h1.1l.2,.2l.2,.2l.4,.2l.1,.3l.2,.4l.2,.2v.9l-.2,.4l-.2,.3v.2l-.3,.2l-.2,.2h-.9l-.4,-.2l-.4,-.4l-.3,-.3l-.4,-.2h-.2l-.2,-.2l-.1,.2l-.4,.2v.2l-.2,.1l-.2,.2l-.2,.2l-.1,.4l-.2,.3l-.2,.2l-.2,.4l-.2,.5v9.4l.2,.4v.1l.2,.4v.2l.4,.2l.1,.3l.4,.2h.2l.4,.2h.7v.6h-7.3v-.6h.7l.2,-.2h.3l.2,-.2h.2l.2,-.3l.2,-.2v-.4l.2,-.2V657.2l-.2,-.2v-.4l-.2,-.3h-.2l-.2,-.2l-.3,-.2h-.4l-.4,.2h-.2l-.1,.2l-.2,-.8l4.2,-2h.7Z" class="g0_1" />
<path d="M677,654.1v13.7l.2,.4l.2,.4v.1l.3,.2h.9l.2,-.2l.4,-.1l.2,.7l-4.4,2h-.6v-3.5l-.3,.4l-.4,.4l-.2,.3l-.4,.2l-.1,.4l-.2,.2l-.4,.3l-.2,.2l-.2,.2l-.1,.2h-.2l-.2,.2l-.2,.1l-.4,.2h-.3l-.2,.2h-1.5l-.3,-.2h-.4l-.2,-.2l-.4,-.1l-.1,-.2l-.4,-.4l-.2,-.2l-.2,-.2l-.2,-.3l-.1,-.4v-.4l-.2,-.3v-.2l-.2,-.4v-.9l-.2,-.4V656.1l-.2,-.4v-.2l-.2,-.1l-.1,-.2l-.4,-.2l-.2,-.2h-.5l-.4,-.2h-.4v-.5h5v12.1l.2,.5v.8l.1,.1l.2,.4v.2l.2,.2l.2,.2l.4,.1l.1,.2l.4,.2h1.1l.4,-.2l.3,-.2l.2,-.1h.2l.2,-.2h.2l.2,-.2l.1,-.4l.4,-.2l.2,-.1l.4,-.4l.1,-.4h.2v-9.5l-.2,-.6v-.7l-.1,-.4v-.1l-.2,-.2l-.2,-.2h-.2l-.2,-.2h-.7l-.4,-.2H672v-.5h5Z" class="g0_1" />
<path d="M692.6,664.5l-.2,.4v.4l-.2,.3v.4l-.2,.4l-.2,.3v.4l-.1,.4l-.2,.1l-.2,.4v.4l-.2,.2l-.2,.1l-.2,.4l-.3,.2l-.2,.2l-.2,.3l-.2,.2l-.3,.2l-.2,.2l-.4,.2l-.2,.2l-.3,.1l-.2,.2h-.4l-.4,.2h-1.8l-.2,-.2h-.3l-.4,-.2h-.2l-.4,-.1l-.1,-.2l-.2,-.2l-.4,-.2l-.2,-.2l-.2,-.3l-.3,-.2l-.2,-.2l-.2,-.4l-.2,-.2l-.2,-.3l-.1,-.2l-.2,-.4l-.2,-.2v-.3l-.2,-.4l-.2,-.2v-.3l-.2,-.4v-.4l-.1,-.3v-.8l-.2,-.3v-3.3l.2,-.4v-.7l.1,-.4V659l.2,-.2v-.3l.2,-.4l.2,-.4l.2,-.1v-.4l.2,-.2l.1,-.4l.2,-.1l.2,-.4l.2,-.2l.2,-.2l.2,-.2l.3,-.3l.2,-.2l.2,-.2l.4,-.2l.1,-.2l.4,-.1l.2,-.2l.4,-.2h.1l.4,-.2h.6l.3,-.2h1.9l.1,.2h.4l.4,.2h.2l.3,.2l.2,.2l.2,.1l.4,.2l.1,.2l.4,.4l.2,.2l.2,.3l.2,.4l.1,.2l.2,.3v1.7l-.2,.4h-.1l-.2,.1l-.2,.2h-.4l-.2,.2l-.3,-.2H690l-.2,-.2l-.3,-.1l-.2,-.2l-.2,-.2v-.4l-.2,-.3v-1l-.2,-.3v-.4l-.2,-.4l-.1,-.1l-.4,-.2l-.2,-.2l-.4,-.2h-1.6l-.2,.2l-.4,.2l-.1,.2l-.4,.1l-.2,.2l-.2,.4l-.2,.4l-.1,.1l-.2,.4l-.2,.2v.4l-.2,.3l-.2,.4v.5l-.2,.4v3.5l.2,.4v.3l.2,.4v.4l.2,.3v.4l.2,.2l.2,.3l.1,.4v.4h.2l.2,.3l.2,.2l.2,.4l.2,.2l.1,.3l.4,.2l.2,.2h.2l.3,.2l.2,.2h.6l.3,.2h.6l.2,-.2h.3l.4,-.2h.2l.4,-.2l.1,-.2l.4,-.2l.2,-.1l.2,-.2l.2,-.2l.1,-.2l.2,-.4l.2,-.1l.2,-.4l.2,-.2l.2,-.4v-.3l.1,-.6l.2,-.3l.6,.3Z" class="g0_1" />
<path d="M698.6,648.6v5.5h3.5v1.3h-3.5v10.8l.2,.5v1.1l.2,.4l.2,.2l.2,.3l.1,.2h1.1l.4,-.2l.2,-.1l.2,-.2l.2,-.2l.1,-.4l.2,-.3h.6l-.2,.3v.4l-.2,.4l-.2,.3l-.2,.4l-.1,.2l-.2,.3l-.2,.2l-.2,.2l-.4,.2l-.1,.2l-.4,.2l-.2,.1h-.4l-.3,.2h-.6l-.3,-.2h-.2l-.4,-.1l-.2,-.2l-.3,-.2l-.2,-.2l-.2,-.2l-.2,-.3l-.2,-.4v-.2l-.2,-.4v-1.1l-.1,-.3V655.4h-2.2v-.8h.1l.4,-.2l.2,-.1l.4,-.2l.1,-.4l.4,-.2l.2,-.2l.2,-.1l.2,-.4l.1,-.2l.2,-.4l.2,-.1l.2,-.4l.2,-.4l.2,-.3l.1,-.2l.2,-.2v-.4l.2,-.2l.2,-.3v-.6l.2,-.3l.2,-.2h.3Z" class="g0_1" />
<path d="M716,654.1v13.7l.2,.4l.2,.4v.1l.4,.2h.9l.2,-.2l.3,-.1l.2,.7l-4.4,2h-.5v-3.5l-.4,.4l-.4,.4l-.1,.3l-.4,.2l-.2,.4l-.2,.2l-.2,.3l-.3,.2l-.2,.2l-.2,.2h-.2l-.2,.2l-.1,.1l-.4,.2h-.2l-.4,.2H708l-.4,-.2h-.4l-.1,-.2l-.4,-.1l-.2,-.2l-.2,-.4L706,670l-.2,-.2l-.2,-.3l-.2,-.4v-.4l-.2,-.3v-.2l-.2,-.4v-1.3l-.1,-.3V656.1l-.2,-.4v-.2l-.2,-.1l-.2,-.2l-.2,-.2l-.3,-.2h-.6l-.4,-.2h-.3v-.5h4.9v11.7l.2,.4v.9l.2,.4v.1l.2,.4v.2l.2,.2l.1,.2l.4,.1l.2,.2l.4,.2h1.1l.3,-.2l.4,-.2l.2,-.1h.2l.1,-.2h.2l.2,-.2l.4,-.4l.2,-.2l.1,-.1l.4,-.4l.2,-.4h.2V656.6l-.2,-.3v-.4l-.2,-.4v-.1l-.2,-.2l-.2,-.2h-.1l-.2,-.2h-.8l-.3,-.2h-.2v-.5H716Z" class="g0_1" />
<path d="M723.6,653.5v3.9l.1,-.6l.4,-.3l.2,-.4l.2,-.4l.2,-.3l.1,-.2l.4,-.4l.2,-.2l.2,-.3l.2,-.2h.1l.2,-.2l.4,-.2h.2l.2,-.2H728l.1,.2l.4,.2l.2,.2l.2,.3l.2,.4l.1,.2v1.3l-.1,.3l-.2,.2l-.2,.2l-.4,.2h-.9L727,657l-.1,-.4h-.2l-.4,-.3l-.2,-.2h-.3v-.2l-.4,.2l-.2,.2l-.2,.2l-.2,.1l-.1,.2l-.2,.2l-.2,.4l-.2,.3l-.2,.2l-.2,.4v.5h-.1v8.7l.1,.3v.9l.2,.4l.2,.2l.2,.2l.2,.3h.2l.1,.2h.4l.2,.2h.7v.6h-7.3v-.6h.7l.4,-.2h.2l.2,-.2h.1l.2,-.3l.2,-.2l.2,-.4V657l-.2,-.4l-.2,-.3l-.3,-.2l-.2,-.2h-.6l-.2,.2H719l-.2,.2l-.2,-.8l4.4,-2h.6Z" class="g0_1" />
<path d="M738.2,668.4l-.3,.3l-.4,.4l-.4,.4l-.3,.2l-.2,.1l-.4,.4l-.2,.2h-.2l-.1,.2l-.2,.2l-.4,.1h-.2l-.3,.2h-1.9l-.3,-.2l-.2,-.1l-.4,-.2l-.2,-.2l-.2,-.2l-.1,-.2l-.2,-.3l-.2,-.2l-.2,-.4l-.2,-.2v-.3l-.2,-.4v-.4l-.1,-.3v-1l.1,-.5v-.6l.2,-.3l.2,-.4l.2,-.2l.2,-.3l.2,-.2l.1,-.2l.2,-.4l.2,-.2l.4,-.1l.2,-.4l.3,-.2l.2,-.2h.2l.2,-.2l.2,-.1l.1,-.2h.4l.2,-.2l.2,-.2l.3,-.2h.2l.4,-.2l.4,-.1l.1,-.2l.4,-.2l.4,-.2h.3l.4,-.2l.4,-.2l.3,-.1h.2v-1.7l-.2,-.5v-.8l-.1,-.2v-.3l-.2,-.4v-.2l-.2,-.2l-.2,-.1l-.2,-.2l-.3,-.2l-.2,-.2h-.4l-.2,-.2h-.9l-.2,.2h-.3l-.2,.2l-.4,.2l-.2,.3l-.2,.4l-.1,.2v2l-.2,.4v.3l-.2,.2l-.4,.2l-.2,.2l-.3,.2h-.4l-.4,-.2l-.1,-.2l-.2,-.2l-.2,-.2v-.3l-.2,-.4v-.7l.2,-.4v-.2l.2,-.3v-.4l.2,-.2l.1,-.4l.4,-.1l.2,-.4l.2,-.2l.2,-.2l.1,-.2l.4,-.1l.2,-.2h.2l.3,-.2h.2l.4,-.2h.4l.3,-.2h2.2l.2,.2h.7l.2,.2h.4l.2,.2l.3,.2l.2,.1l.4,.2l.2,.4l.2,.2l.1,.3l.2,.2v.4l.2,.2v.9l.2,.4V668l.2,.4v.2l.2,.1l.1,.2h.2l.4,-.2l.2,-.1l.2,-.2l.1,-.2l.4,-.4l.2,-.3h.2v.9l-.2,.3l-.4,.4l-.2,.4l-.1,.3l-.4,.2l-.2,.2l-.2,.4l-.3,.2H741l-.2,.1l-.2,.2h-1.3l-.3,-.2l-.2,-.1l-.2,-.2v-.2l-.2,-.4l-.2,-.3v-1.3Zm0,-1.1v-6.4l-.5,.1l-.4,.2l-.4,.2l-.3,.2l-.2,.2H736l-.2,.2l-.3,.1h-.2v.2h-.2l-.4,.2l-.1,.4l-.4,.2l-.2,.1l-.2,.2l-.2,.4l-.1,.2l-.2,.3l-.2,.4l-.2,.4v2l.2,.4l.2,.3l.2,.2v.2l.3,.2l.2,.3l.2,.2h.4l.1,.2h.6l.2,-.2h.5l.2,-.2l.4,-.1l.2,-.2l.3,-.2l.2,-.2l.4,-.4l.3,-.3h.2Z" class="g0_1" />
<path d="M749.2,644.7v24l.2,.2v.2l.2,.4l.2,.2l.2,.1l.1,.2h.4l.2,.2h.7v.6h-6.9v-.6h.7l.4,-.2h.3l.2,-.3l.2,-.2l.2,-.4v-.7l.2,-.6V649.3l-.2,-.4v-1.1l-.2,-.3l-.2,-.2l-.2,-.2h-.7l-.2,.2h-.4l-.1,.2l-.2,-.8l4.2,-2h.7Z" class="g0_1" />
<path d="M774.9,645.3v8.6h-.7v-.7l-.2,-.4v-.7l-.2,-.4v-.4l-.2,-.3l-.2,-.4v-.2l-.2,-.4l-.1,-.3l-.2,-.2l-.2,-.4l-.2,-.2l-.2,-.3l-.3,-.2l-.2,-.2l-.2,-.2l-.4,-.2v-.1l-.3,-.2l-.4,-.2h-.2l-.4,-.2h-.1l-.4,-.2h-2l-.2,.2h-.4l-.2,.2l-.3,.2l-.2,.2l-.4,.1v.2l-.2,.2l-.3,.4l-.2,.3v.2l-.2,.4v.4l-.2,.3v1.1l.2,.4l.2,.4v.3l.2,.2l.2,.2v.2h.1l.2,.2l.2,.1l.2,.2l.2,.2l.2,.2l.1,.2l.4,.3l.2,.2l.4,.2l.1,.2l.4,.2l.4,.3l.3,.2l.4,.2l.4,.4l.3,.2l.4,.1l.4,.2l.3,.4l.4,.2l.2,.2l.4,.1l.3,.2l.2,.2l.4,.2l.2,.2l.1,.2l.2,.1l.2,.2l.2,.2h.2l.2,.4l.3,.2l.2,.3l.2,.2l.2,.4l.2,.2l.1,.3l.2,.4l.2,.4v.3l.2,.4v.4l.2,.3V666l-.2,.2v.3l-.2,.4l-.2,.4v.3l-.2,.2l-.1,.4l-.2,.2l-.2,.3l-.2,.4l-.4,.2l-.1,.4l-.2,.1l-.4,.2l-.2,.2l-.2,.2l-.3,.2l-.2,.2h-.4l-.2,.1l-.3,.2h-.4l-.2,.2h-.9l-.4,.2h-.7l-.4,-.2h-1.1l-.1,-.2h-.4l-.4,-.2l-.3,-.1h-.4l-.2,-.2l-.5,-.2l-.4,-.2h-.4l-.3,-.2h-.8l-.2,.2l-.1,.4l-.2,.2v.7h-.6v-8.6h.6v.3l.2,.6v.7l.1,.4v.4l.2,.3l.2,.4v.2l.2,.3v.2l.2,.2l.2,.2l.1,.4l.2,.1l.2,.4l.2,.2l.2,.2l.3,.3l.2,.2l.4,.2l.4,.2l.1,.2h.4l.2,.2h.4l.3,.1h.2l.4,.2h1.4l.4,-.2h.2l.4,-.1h.3l.2,-.2l.2,-.2l.4,-.2l.1,-.2l.2,-.2l.2,-.1l.2,-.4l.2,-.4l.2,-.2l.1,-.3v-.4l.2,-.4v-1.2l-.2,-.4v-.4l-.1,-.3V664l-.2,-.2l-.2,-.4l-.2,-.2l-.2,-.3l-.2,-.2l-.3,-.4h-.2v-.2h-.2l-.2,-.1l-.2,-.2l-.1,-.2l-.4,-.2l-.2,-.2l-.4,-.2l-.3,-.1l-.4,-.4l-.4,-.2l-.3,-.2l-.2,-.2l-.4,-.1l-.3,-.4l-.2,-.2L767,659l-.4,-.2l-.3,-.1l-.2,-.2l-.2,-.4l-.4,-.2l-.1,-.2h-.2l-.2,-.1l-.2,-.2l-.2,-.2h-.2l-.1,-.4l-.4,-.2l-.2,-.3l-.2,-.2l-.2,-.4l-.1,-.2l-.2,-.3l-.2,-.2v-.2l-.2,-.4l-.2,-.3v-.4l-.2,-.4v-1.1l-.1,-.3l.1,-.4v-1.1l.2,-.2v-.3l.2,-.4v-.4l.2,-.2l.2,-.3l.2,-.4l.1,-.2l.2,-.3l.2,-.2l.2,-.2l.2,-.2l.3,-.2l.2,-.3l.2,-.2l.4,-.2h.2l.3,-.2l.2,-.2l.4,-.2h.2l.3,-.1h1.3l.2,-.2l.4,.2h1.1l.3,.1h.4l.2,.2l.3,.2h.4l.2,.2l.4,.2l.3,.2l.4,.1h.7l.4,-.1l.2,-.2l.2,-.4v-.7h.7Z" class="g0_1" />
<path d="M783.1,648.6v5.5h3.3v1.3h-3.3v12.1l.2,.3v.4l.2,.2l.2,.3l.2,.2h1.3l.1,-.2l.2,-.1l.2,-.2l.2,-.2l.2,-.4l.2,-.3h.5v.3l-.2,.4l-.2,.4l-.1,.3l-.2,.4l-.2,.2l-.2,.3l-.2,.2l-.2,.2l-.3,.2l-.2,.2l-.4,.2l-.2,.1h-.3l-.2,.2H783l-.4,-.2h-.2l-.4,-.1l-.1,-.2l-.2,-.2l-.4,-.2l-.2,-.2l-.2,-.3l-.1,-.4v-.6l-.2,-.3v-13h-2.4v-.8h.4l.1,-.2l.2,-.1l.4,-.2l.2,-.4l.3,-.2l.2,-.2l.2,-.1l.2,-.4l.2,-.2l.3,-.4l.2,-.1l.2,-.4l.2,-.4l.2,-.3v-.2l.2,-.2v-.4l.1,-.2l.2,-.3l.2,-.6l.2,-.3v-.2h.5Z" class="g0_1" />
<path d="M790.3,660.3v2l.2,.4v.7l.2,.4v.4l.1,.3l.2,.2v.4l.2,.3l.2,.2l.2,.4l.2,.2l.1,.3l.4,.2l.2,.4l.2,.2l.3,.2l.2,.1l.2,.2l.4,.2l.2,.2h.7l.2,.2h1.3l.1,-.2h.4l.2,-.2l.4,-.2l.1,-.2l.4,-.1l.4,-.2l.2,-.2l.1,-.4l.2,-.2v-.3l.2,-.2l.2,-.4l.2,-.3l.2,-.4l.1,-.4v-.2l.6,.4l-.2,.4v.3l-.2,.4v.4l-.2,.2v.3l-.1,.4l-.2,.4l-.2,.1v.4l-.2,.4l-.2,.3l-.3,.2l-.2,.4l-.2,.2l-.2,.3l-.4,.2l-.1,.2l-.2,.2l-.4,.2l-.2,.2l-.3,.1l-.2,.2h-.4l-.2,.2h-2l-.4,-.2h-.3l-.2,-.2h-.4l-.2,-.1l-.3,-.2l-.2,-.2l-.4,-.2l-.2,-.2l-.1,-.2l-.4,-.1l-.2,-.4l-.2,-.2v-.2l-.2,-.2l-.1,-.1l-.2,-.4l-.2,-.2l-.2,-.4l-.2,-.3v-.2l-.2,-.4l-.1,-.3V666l-.2,-.4v-.7l-.2,-.4v-4.2l.2,-.4v-.3l.2,-.4v-.4l.1,-.3v-.4l.2,-.2l.2,-.3v-.4l.2,-.2l.2,-.4l.2,-.1l.1,-.4l.2,-.2l.2,-.2l.2,-.3l.4,-.2l.1,-.2l.2,-.2l.4,-.4h.2l.2,-.1l.3,-.2l.2,-.2h.4l.3,-.2h.2l.4,-.2h2l.4,.2h.2l.3,.2h.2l.4,.2l.2,.2l.3,.1l.2,.2l.2,.2l.4,.2l.1,.4l.2,.1l.2,.4l.2,.2l.2,.4l.2,.3v.2l.1,.4l.2,.3v.4l.2,.4v1.4l.2,.4h-9.9Zm0,-1.1h6.6v-.4l-.2,-.5v-.7l-.2,-.2V657l-.2,-.4l-.1,-.3l-.2,-.2l-.2,-.4l-.2,-.2l-.2,-.1l-.3,-.2l-.2,-.2h-.4l-.4,-.2H793l-.1,.2h-.4l-.2,.2l-.4,.2l-.1,.1l-.2,.4h-.2l-.2,.4l-.2,.2l-.2,.3l-.1,.2v.4l-.2,.3v.4l-.2,.4v.7Z" class="g0_1" />
<path d="M804.4,660.3V662l.2,.3v.8l.2,.3v.4l.2,.4v.3l.1,.2l.2,.4l.2,.3v.2l.2,.4l.2,.2l.3,.3l.2,.2l.2,.4l.4,.2l.2,.2l.1,.1l.4,.2l.2,.2l.4,.2h.5l.4,.2h1.1l.3,-.2h.2l.4,-.2l.2,-.2l.3,-.2l.2,-.1h.2l.2,-.2l.2,-.2l.2,-.4l.1,-.2l.2,-.3l.2,-.2l.2,-.4l.2,-.3v-.4l.2,-.4v-.2l.5,.4v.4l-.2,.3v.4l-.2,.4v.2l-.1,.3l-.2,.4v.4l-.2,.1l-.2,.4l-.2,.4l-.2,.3l-.1,.2l-.2,.4l-.4,.2l-.2,.3l-.2,.2l-.3,.2l-.2,.2l-.2,.2l-.4,.2l-.1,.1l-.4,.2h-.2l-.4,.2h-2l-.3,-.2H807l-.4,-.2h-.2l-.3,-.1l-.2,-.2l-.4,-.2l-.2,-.2l-.2,-.2l-.3,-.2l-.2,-.1l-.2,-.4l-.4,-.2v-.2l-.1,-.2l-.2,-.1l-.2,-.4l-.2,-.2l-.2,-.4v-.3l-.2,-.2l-.1,-.4v-.3l-.2,-.4v-.4l-.2,-.3v-.8l-.2,-.3V661l.2,-.3v-.8l.2,-.3v-.4l.2,-.4v-.3l.1,-.4v-.2l.2,-.3l.2,-.4l.2,-.2v-.4l.2,-.1l.2,-.4l.1,-.2l.2,-.2l.4,-.3l.2,-.2l.2,-.2l.3,-.2l.2,-.4h.2l.4,-.1l.1,-.2l.4,-.2h.2l.4,-.2h.3l.2,-.2h2l.4,.2h.4l.1,.2h.4l.2,.2l.4,.2l.1,.1l.2,.2l.4,.2l.2,.2l.2,.4h.1l.2,.1l.2,.4l.2,.2v.4l.2,.3l.2,.2l.1,.4v.3l.2,.4v.7l.2,.4v1.1h-9.9Zm0,-1.1H811v-1.3l-.2,-.3v-.2l-.2,-.4v-.4l-.1,-.3l-.2,-.2l-.4,-.4l-.2,-.2l-.2,-.1l-.3,-.2L809,655h-.4l-.2,-.2h-1.1l-.3,.2h-.2l-.4,.2l-.2,.2l-.3,.1l-.2,.4l-.2,.4l-.2,.2l-.2,.3l-.1,.2l-.2,.4v.3l-.2,.4v.4l-.2,.3v.4Z" class="g0_1" />
<path d="M821.1,644.7v23.7l.2,.3v.4l.2,.4l.1,.2l.2,.1l.4,.2h.2l.3,.2h.8v.6h-7v-.6h.7l.2,-.2h.4l.2,-.3l.2,-.2l.1,-.4v-.2l.2,-.3v-20l-.2,-.2v-.6l-.1,-.3v-.2l-.4,-.2h-.6l-.3,.2h-.4v.2l-.4,-.8l4.3,-2h.7Z" class="g0_1" />
<path d="M462.3,459.7l-1.6,.2l1.6,2Zm-1.6,.2l1.6,2l-1.6,-.1Zm1.6,2l-1.6,-.1l1.4,1.6Zm-1.6,-.1l1.4,1.6l-1.6,-.2Zm1.4,1.6l-1.6,-.2l1.4,1.9Zm-1.6,-.2l1.4,1.9l-1.6,-.4Zm1.4,1.9l-1.6,-.4l1.3,1.8Zm-1.6,-.4l1.3,1.8l-1.7,-.5Zm1.3,1.8l-1.7,-.5l1.1,2.2Zm-1.7,-.5l1.1,2.2l-1.6,-.6Zm1.1,2.2l-1.6,-.6l1.1,1.9Zm-1.6,-.6l1.1,1.9l-1.7,-.8Zm1.1,1.9l-1.7,-.8l.8,2.4Zm-1.7,-.8l.8,2.4l-1.5,-.9Zm.8,2.4l-1.5,-.9l.4,2.6Zm-1.5,-.9l.4,2.6l-1.3,-1.1Zm.4,2.6l-1.3,-1.1l.5,2Zm-1.3,-1.1l.5,2l-1.3,-1.1Zm.5,2l-1.3,-1.1l.2,2.4Zm-1.3,-1.1l.2,2.4l-1.3,-1.3Zm.2,2.4l-1.3,-1.3l-.1,2.5Zm-1.3,-1.3l-.1,2.5L454.1,475Zm-.1,2.5L454.1,475l-.2,2.2ZM454.1,475l-.2,2.2l-.9,-1.3Zm-.2,2.2l-.9,-1.3l-.8,2.4Zm-.9,-1.3l-.8,2.4l-.9,-1.5Zm-.8,2.4l-.9,-1.5l-.5,2.2Zm-.9,-1.5l-.5,2.2l-.8,-1.5Zm-.5,2.2l-.8,-1.5l-1.1,2.4Zm-.8,-1.5l-1.1,2.4l-.7,-1.5Zm-1.1,2.4l-.7,-1.5l-.6,2.2Zm-.7,-1.5l-.6,2.2l-1.1,-1.2Zm-.6,2.2l-1.1,-1.2l.4,2.3Zm-1.1,-1.2l.4,2.3l-1.5,-.7Zm.4,2.3l-1.5,-.7l1.5,1.3Zm-1.5,-.7l1.5,1.3h-1.8Zm1.5,1.3h-1.8l1.8,1.3Zm-1.8,0l1.8,1.3l-1.6,.3Zm1.8,1.3l-1.6,.3l2,.2Zm-1.6,.3l2,.2l-1.5,.9Zm2,.2l-1.5,.9H448Zm-1.5,.9H448l-.9,1.5Zm2.2,0l-.9,1.5l2.6,-.9Zm-.9,1.5l2.6,-.9l-.6,1.6Zm2.6,-.9l-.6,1.6l2.2,-1.1Zm-.6,1.6l2.2,-1.1l-.2,1.7Zm2.2,-1.1l-.2,1.7l3.3,-1.5Zm-.2,1.7l3.3,-1.5V488Zm3.3,-1.5V488l28.8,-1.7Zm0,1.7l28.8,-1.7V488Zm28.8,-1.7V488l1.3,-1.7Zm0,1.7l1.3,-1.7l.4,1.7Zm1.3,-1.7l.4,1.7l2,-2.8Zm.4,1.7l2,-2.8l.9,1.5Zm2,-2.8l.9,1.5l.4,-2.6Zm.9,1.5l.4,-2.6l1.4,.9Zm.4,-2.6l1.4,.9l-1.1,-2Zm1.4,.9l-1.1,-2l1.7,.2Zm-1.1,-2l1.7,.2l-1.9,-1.6Zm1.7,.2l-1.9,-1.6L490,481Zm-1.9,-1.6L490,481l-2.2,-.4ZM490,481l-2.2,-.4l1.3,-1.1Zm-2.2,-.4l1.3,-1.1l-3.1,-.1Zm1.3,-1.1l-3.1,-.1l1.1,-1.5Zm-3.1,-.1l1.1,-1.5l-3,.4Zm1.1,-1.5l-3,.4l.9,-1.5Zm-3,.4l.9,-1.5l-3.1,.2Zm.9,-1.5l-3.1,.2l.8,-1.5Zm-3.1,.2l.8,-1.5l-3,.4Zm.8,-1.5l-3,.4l.8,-1.5Zm-3,.4l.8,-1.5l-2.4,.2Zm.8,-1.5l-2.4,.2l.9,-1.3Zm-2.4,.2l.9,-1.3l-1.8,.6Zm.9,-1.3l-1.8,.6l1.1,-1.3Zm-1.8,.6l1.1,-1.3l-2.2,.2Zm1.1,-1.3l-2.2,.2l1.2,-1.1Zm-2.2,.2l1.2,-1.1l-2.5,-.6Zm1.2,-1.1l-2.5,-.6l1.4,-.9Zm-2.5,-.6l1.4,-.9l-2.2,-.4Zm1.4,-.9l-2.2,-.4l1.5,-.7Zm-2.2,-.4l1.5,-.7l-2.6,-1.5Zm1.5,-.7l-2.6,-1.5l1.7,-.7Zm-2.6,-1.5l1.7,-.7l-2,-.9Zm1.7,-.7l-2,-.9l1.6,-.4Zm-2,-.9l1.6,-.4l-2,-2.2Zm1.6,-.4l-2,-2.2l1.7,-.2Zm-2,-2.2l1.7,-.2l-1.7,-30.4Zm1.7,-.2l-1.7,-30.4l1.7,-.4Zm-1.7,-30.4l1.7,-.4L460.7,405.7Zm1.7,-.4L460.7,405.7l1.6,-.8Z" class="g1_1" />
<path d="M462.3,405.3h-1.6l1.6,54.4Zm-1.6,0l1.6,54.4h-1.6Z" class="g1_1" />
<path d="M471.1,406.9h-.5l.5,20.6Zm-.5,0l.5,20.6h-.5Z" class="g1_1" />
<path d="M482.7,435.2h-.8l.8,27.7Zm-.8,0l.8,27.7h-.8Zm.8,27.7h-.8l1.1,2.9Zm-.8,0l1.1,2.9l-.7,.2Zm1.1,2.9l-.7,.2l2.4,3.6Zm-.7,.2l2.4,3.6l-.6,.4Zm2.4,3.6l-.6,.4l1.7,1.5Zm-.6,.4l1.7,1.5l-.6,.3Zm1.7,1.5l-.6,.3l2,1.1Zm-.6,.3l2,1.1l-.3,.6Zm2,1.1l-.3,.6l2.4,1.1Zm-.3,.6l2.4,1.1l-.4,.5Zm2.4,1.1l-.4,.5l2.4,.6Zm-.4,.5l2.4,.6l-.2,.7Zm2.4,.6l-.2,.7l2.7,.8Zm-.2,.7l2.7,.8l-.3,.5Zm2.7,.8l-.3,.5l2.2,.6Zm-.3,.5l2.2,.6l-.4,.5Zm2.2,.6l-.4,.5l2,.6Zm-.4,.5l2,.6l-.5,.5Zm2,.6l-.5,.5l2,1.3Zm-.5,.5l2,1.3l-.6,.2Zm2,1.3l-.6,.2l.8,1.6Zm-.6,.2l.8,1.6h-.6Zm.8,1.6h-.6l.2,1.7Zm-.6,0l.2,1.7l-.7,-.4Zm.2,1.7l-.7,-.4l-.6,1.7Zm-.7,-.4l-.6,1.7l-.3,-.6Zm-.6,1.7l-.3,-.6l-1.5,1.3Zm-.3,-.6l-1.5,1.3l-.2,-.6Zm-1.5,1.3l-.2,-.6l-2.9,1.3Zm-.2,-.6l-2.9,1.3v-.7Zm-2.9,1.3v-.7l-2.6,.7Zm0,-.7l-2.6,.7v-.5Zm-2.6,.7v-.5l-5.1,.5Zm0,-.5l-5.1,.5v-.5Z" class="g1_1" />
<path d="M450.2,364.8l-.4,-1.7l-.7,1.9Zm-.4,-1.7l-.7,1.9l-.2,-1.7Zm-.7,1.9l-.2,-1.7l-.3,1.7Zm-.2,-1.7l-.3,1.7l-.8,-1.7Zm-.3,1.7l-.8,-1.7l.4,2Zm-.8,-1.7l.4,2L447.1,364Zm.4,2L447.1,364l.2,1.9ZM447.1,364l.2,1.9l-.9,-1.3Zm.2,1.9l-.9,-1.3l.3,1.8Zm-.9,-1.3l.3,1.8l-1.3,-1.3Zm.3,1.8l-1.3,-1.3l1,1.9Zm-1.3,-1.3l1,1.9l-1.7,-.8Zm1,1.9l-1.7,-.8l1.3,1.5Zm-1.7,-.8l1.3,1.5l-1.7,-.4Zm1.3,1.5l-1.7,-.4l1.5,1.3Zm-1.7,-.4l1.5,1.3h-1.6Zm1.5,1.3h-1.6l1.8,.9Zm-1.6,0l1.8,.9l-1.7,.4Zm1.8,.9l-1.7,.4l1.9,.4Zm-1.7,.4l1.9,.4l-1.5,.7Zm1.9,.4l-1.5,.7h2Zm-1.5,.7h2l-1.3,1.1Zm2,0l-1.3,1.1l1.9,-.5Zm-1.3,1.1l1.9,-.5l-.9,1.4Zm1.9,-.5l-.9,1.4l1.8,-.9Zm-.9,1.4l1.8,-.9l-.9,1.5Zm1.8,-.9l-.9,1.5l1.6,-1.1Zm-.9,1.5l1.6,-1.1l-.7,1.4Zm1.6,-1.1l-.7,1.4l1.6,-1.1Zm-.7,1.4l1.6,-1.1l-.5,1.7Zm1.6,-1.1l-.5,1.7l1.5,-1.5Zm-.5,1.7l1.5,-1.5l-.4,1.7Zm1.5,-1.5l-.4,1.7l1.8,-1.3Zm-.4,1.7l1.8,-1.3l-.3,1.8Zm1.8,-1.3l-.3,1.8l1.2,-1.6Zm-.3,1.8l1.2,-1.6l-.3,1.6Zm1.2,-1.6l-.3,1.6l2.2,-1.1Zm-.3,1.6l2.2,-1.1l-.8,1.5Zm2.2,-1.1l-.8,1.5L457,375Zm-.8,1.5L457,375l-.9,1.5ZM457,375l-.9,1.5l2.4,-.2Zm-.9,1.5l2.4,-.2l-1.3,1.1Zm2.4,-.2l-1.3,1.1l2.9,.9Zm-1.3,1.1l2.9,.9l-1.5,1Zm2.9,.9l-1.5,1l45.5,107Zm-1.5,1l45.5,107L503,488Zm45.5,107L503,488l5.7,-1.7ZM503,488l5.7,-1.7l1.1,1.7Zm5.7,-1.7l1.1,1.7l23.6,-71Zm1.1,1.7l23.6,-71l1.7,.2Zm23.6,-71l1.7,.2L533.4,387Zm1.7,.2L533.4,387h1.7Z" class="g1_1" />
<path d="M535.1,387.3l-1.7,-.5l-8.4,30Zm-1.7,-.5l-8.4,30l-.2,-4.7Zm-8.4,30l-.2,-4.7L503,364.6Zm-.2,-4.7L503,364.6l1.1,-1.7ZM503,364.6l1.1,-1.7l-53,1.7Zm1.1,-1.7l-53,1.7l-.2,-1.7Zm-53,1.7l-.2,-1.7l-.7,1.9Zm-.2,-1.7l-.7,1.9l-.4,-1.7Z" class="g1_1" />
<path d="M503.6,363.3v.7l9.5,-.7Zm0,.7l9.5,-.7l-.6,.7Zm9.5,-.7l-.6,.7L530,400.5Zm-.6,.7L530,400.5l-.8,.4Z" class="g1_1" />
<path d="M511.1,482.7l-.6,.1l2.6,4.1Zm-.6,.1l2.6,4.1l-.6,.5Zm2.6,4.1l-.6,.5l5.9,-.5Zm-.6,.5l5.9,-.5l.4,.5Zm5.9,-.5l.4,.5L543,418.7Zm.4,.5L543,418.7l.7,.2Z" class="g1_1" />
<path d="M544.3,470h-1.7l1.7,1.1Zm-1.7,0l1.7,1.1h-1.7Zm1.7,1.1h-1.7l1.5,1.1Zm-1.7,0l1.5,1.1l-1.7,-.4Zm1.5,1.1l-1.7,-.4l1.3,1.7Zm-1.7,-.4l1.3,1.7l-1.6,-.7Zm1.3,1.7l-1.6,-.7l1.2,1.4Zm-1.6,-.7l1.2,1.4l-1.4,-.9Zm1.2,1.4l-1.4,-.9l.9,2Zm-1.4,-.9l.9,2l-1.5,-1.1Zm.9,2l-1.5,-1.1l.2,2.2Zm-1.5,-1.1l.2,2.2l-.9,-1.3Zm.2,2.2l-.9,-1.3V477Zm-.9,-1.3V477l-.7,-1.7Zm0,1.9l-.7,-1.7l-1.1,2Zm-.7,-1.7l-1.1,2l-.4,-1.6Zm-1.1,2l-.4,-1.6l-1.3,2.2Zm-.4,-1.6l-1.3,2.2l-.4,-1.8Zm-1.3,2.2l-.4,-1.8l-2.3,2.3Zm-.4,-1.8l-2.3,2.3l-.6,-1.6Zm-2.3,2.3l-.6,-1.6l-.5,2Zm-.6,-1.6l-.5,2l-.8,-1.6Zm-.5,2l-.8,-1.6l-.5,2.5Zm-.8,-1.6l-.5,2.5l-1.3,-1.3Zm-.5,2.5l-1.3,-1.3l.7,1.9Zm-1.3,-1.3l.7,1.9l-1.3,-1.1Zm.7,1.9l-1.3,-1.1l1.1,1.6Zm-1.3,-1.1l1.1,1.6l-1.6,-.7Zm1.1,1.6l-1.6,-.7l1.5,1.5Zm-1.6,-.7l1.5,1.5l-1.9,-.4Zm1.5,1.5l-1.9,-.4l1.7,1.1Zm-1.9,-.4l1.7,1.1h-1.7Zm1.7,1.1h-1.7l1.9,.9Zm-1.7,0l1.9,.9l-1.7,.4Zm1.9,.9l-1.7,.4l2,.3Zm-1.7,.4l2,.3l-1.4,1Zm2,.3l-1.4,1l2,-.2Zm-1.4,1l2,-.2l-1.1,1.3Zm2,-.2l-1.1,1.3l2,-.8Zm-1.1,1.3l2,-.8l-.7,1.5Zm2,-.8l-.7,1.5l2,-1.1Zm-.7,1.5l2,-1.1l-.6,1.6Zm2,-1.1l-.6,1.6l2,-1.2Zm-.6,1.6l2,-1.2l-.1,1.8Zm2,-1.2l-.1,1.8l2.2,-1.7Zm-.1,1.8l2.2,-1.7l-.2,1.7Zm2.2,-1.7l-.2,1.7L597.8,486Zm-.2,1.7L597.8,486l.2,1.8ZM597.8,486l.2,1.8l1.3,-2.2Zm.2,1.8l1.3,-2.2l.1,1.8Zm1.3,-2.2l.1,1.8l.8,-1.8Zm.1,1.8l.8,-1.8l.9,1.8Zm.8,-1.8l.9,1.8l-.2,-2.9Zm.9,1.8l-.2,-2.9l1.5,.9Zm-.2,-2.9l1.5,.9l-.9,-2Zm1.5,.9l-.9,-2l1.8,.4Zm-.9,-2l1.8,.4l-1.7,-1.3Zm1.8,.4l-1.7,-1.3h1.7Zm-1.7,-1.3h1.7l-1.7,-.8Zm1.7,0l-1.7,-.8l1.7,-.3Zm-1.7,-.8l1.7,-.3l-2,-.6Zm1.7,-.3l-2,-.6l1.6,-.7Zm-2,-.6l1.6,-.7l-2,.2Zm1.6,-.7l-2,.2l1.5,-1.1Zm-2,.2l1.5,-1.1l-2.2,.3Zm1.5,-1.1l-2.2,.3l1.1,-1.2Zm-2.2,.3l1.1,-1.2l-2,.7Zm1.1,-1.2l-2,.7l.7,-1.7Zm-2,.7l.7,-1.7l-1.1,1.5Zm.7,-1.7l-1.1,1.5l.5,-1.6Zm-1.1,1.5l.5,-1.6l-1.4,1.2Zm.5,-1.6l-1.4,1.2l.3,-1.6Zm-1.4,1.2l.3,-1.6l-1.6,1.3Zm.3,-1.6l-1.6,1.3l.5,-1.7Zm-1.6,1.3l.5,-1.7l-1.4,1.3Zm.5,-1.7l-1.4,1.3l.5,-1.5Zm-1.4,1.3l.5,-1.5l-1.8,1.1Zm.5,-1.5l-1.8,1.1l.5,-1.6Zm-1.8,1.1l.5,-1.6l-1.4,1.5Zm.5,-1.6l-1.4,1.5l.7,-1.7Zm-1.4,1.5l.7,-1.7l-1.5,1.1Zm.7,-1.7l-1.5,1.1l1.1,-1.3Zm-1.5,1.1l1.1,-1.3l-1.8,.6Zm1.1,-1.3l-1.8,.6l1.3,-1.1Zm-1.8,.6l1.3,-1.1l-1.8,.2Zm1.3,-1.1l-1.8,.2l1.4,-.8Zm-1.8,.2l1.4,-.8l-2.2,-.7Zm1.4,-.8l-2.2,-.7l1.7,-.7Z" class="g1_1" />
<path d="M591.7,473.1v0" class="g2_1" />
<path d="M590.8,473.1h1.7l-1.9,-92.9Zm1.7,0l-1.9,-92.9h1.7Zm-1.9,-92.9h1.7l-1.7,-1.3Zm1.7,0l-1.7,-1.3l1.7,.2Zm-1.7,-1.3l1.7,.2l-1.5,-1.7Zm1.7,.2l-1.5,-1.7l1.7,.6Zm-1.5,-1.7l1.7,.6l-1.1,-1.9Zm1.7,.6l-1.1,-1.9l1.4,.8Zm-1.1,-1.9l1.4,.8l-.7,-1.9Zm1.4,.8l-.7,-1.9l1.3,1.1Zm-.7,-1.9l1.3,1.1l-.6,-1.8Zm1.3,1.1l-.6,-1.8l1,1.3Zm-.6,-1.8l1,1.3l.1,-2Zm1,1.3l.1,-2l.6,1.6Zm.1,-2l.6,1.6l.5,-2Zm.6,1.6l.5,-2l.6,1.7Zm.5,-2l.6,1.7l.9,-2.1Zm.6,1.7l.9,-2.1l.6,1.7Zm.9,-2.1l.6,1.7l1.2,-2.2Zm.6,1.7l1.2,-2.2l.6,1.6Zm1.2,-2.2l.6,1.6l.7,-2.2Zm.6,1.6l.7,-2.2l.9,1.7Zm.7,-2.2l.9,1.7l-.3,-2Zm.9,1.7l-.3,-2l1.1,1.3Zm-.3,-2l1.1,1.3l-.2,-2.2Zm1.1,1.3l-.2,-2.2l1.6,.9Zm-.2,-2.2l1.6,.9l-1.2,-2.2Zm1.6,.9l-1.2,-2.2l1.8,.2Zm-1.2,-2.2l1.8,.2l-1.8,-2.6Zm1.8,.2l-1.8,-2.6l1.8,-.9Zm-1.8,-2.6l1.8,-.9l-2.6,.2Zm1.8,-.9l-2.6,.2l.9,-1.3Zm-2.6,.2l.9,-1.3l-2,.5Zm.9,-1.3l-2,.5l.6,-1.4Zm-2,.5l.6,-1.4l-2.4,.9Zm.6,-1.4l-2.4,.9l.4,-1.7Zm-2.4,.9l.4,-1.7l-3,1.5Zm.4,-1.7l-3,1.5v-1.7Zm-3,1.5v-1.7l-50.9,1.7Zm0,-1.7l-50.9,1.7l-1.7,-1.7Zm-50.9,1.7l-1.7,-1.7L544.3,470Zm-1.7,-1.7L544.3,470h-1.7Z" class="g1_1" />
<path d="M598,363.7v.7l5.7,-1.1Zm0,.7l5.7,-1.1v.7Zm5.7,-1.1v.7l3.6,-.3Zm0,.7l3.6,-.3l-.2,.7Zm3.6,-.3l-.2,.7l2.8,.2Zm-.2,.7l2.8,.2l-.4,.5Zm2.8,.2l-.4,.5l2,1.1Zm-.4,.5l2,1.1l-.5,.4Zm2,1.1l-.5,.4l1.1,.6Zm-.5,.4l1.1,.6l-.7,.1Zm1.1,.6l-.7,.1l.7,2.1Zm-.7,.1l.7,2.1l-.7,-.2Zm.7,2.1l-.7,-.2l.1,1.8Zm-.7,-.2l.1,1.8l-.5,-.4Zm.1,1.8l-.5,-.4l-.7,1.7Zm-.5,-.4l-.7,1.7l-.4,-.6Zm-.7,1.7l-.4,-.6l-.4,1.1Zm-.4,-.6l-.4,1.1l-.3,-.5Zm-.4,1.1l-.3,-.5l-1.7,1.3Zm-.3,-.5l-1.7,1.3l-.2,-.6Zm-1.7,1.3l-.2,-.6l-1.8,1.3Zm-.2,-.6l-1.8,1.3l-.2,-.7Zm-1.8,1.3l-.2,-.7l-1.8,1.3Zm-.2,-.7l-1.8,1.3l-.4,-.8Zm-1.8,1.3l-.4,-.8l-.2,1.1Zm-.4,-.8l-.2,1.1l-.5,-.5Zm-.2,1.1l-.5,-.5l-.4,1.6Zm-.5,-.5l-.4,1.6l-.5,-.3Zm-.4,1.6l-.5,-.3v1.4Zm-.5,-.3v1.4l-.6,-.3Zm0,1.4l-.6,-.3l.2,2Zm-.6,-.3l.2,2h-.7Zm.2,2h-.7l.7,90.9Zm-.7,0l.7,90.9h-.7Zm.7,90.9h-.7l.7,1.8Zm-.7,0l.7,1.8h-.7Zm.7,1.8h-.7l.9,1Zm-.7,0l.9,1h-.8Zm.9,1h-.8l1.1,.9Zm-.8,0l1.1,.9l-.7,.2Zm1.1,.9l-.7,.2l1.3,.9Zm-.7,.2l1.3,.9l-.7,.3Zm1.3,.9l-.7,.3l1.4,.6Zm-.7,.3l1.4,.6l-.5,.5Zm1.4,.6l-.5,.5h1.4Zm-.5,.5h1.4l-.3,.6Zm1.4,0l-.3,.6l2,-.2Zm-.3,.6l2,-.2l-.2,.7Zm2,-.2l-.2,.7l2.2,-.1Zm-.2,.7l2.2,-.1l-.2,.7Zm2.2,-.1l-.2,.7h1.9Zm-.2,.7h1.9l-.2,.5Zm1.9,0l-.2,.5l1.6,.4Zm-.2,.5l1.6,.4l-.5,.6Zm1.6,.4l-.5,.6l1.6,.9Zm-.5,.6l1.6,.9l-.7,.2Zm1.6,.9l-.7,.2l1.1,1.6Zm-.7,.2l1.1,1.6h-.7Zm1.1,1.6h-.7l.1,2.6Zm-.7,0l.1,2.6l-.5,-.4Zm.1,2.6l-.5,-.4l-.7,1.8Zm-.5,-.4l-.7,1.8l-.4,-.7Zm-.7,1.8l-.4,-.7l-1.1,1.5Zm-.4,-.7l-1.1,1.5l-.2,-.8Zm-1.1,1.5l-.2,-.8l-1.6,1.1Zm-.2,-.8l-1.6,1.1l-.2,-.7Zm-1.6,1.1l-.2,-.7l-1.9,.9Zm-.2,-.7l-1.9,.9v-.7Zm-1.9,.9v-.7l-2.7,.7Zm0,-.7l-2.7,.7v-.5Zm-2.7,.7v-.5l-1.5,.5Zm0,-.5l-1.5,.5v-.5Zm-1.5,.5v-.5l-5.1,.5Zm0,-.5l-5.1,.5v-.5Z" class="g1_1" />
<path d="M635.7,405.5h-1.8l1.8,54.6Zm-1.8,0l1.8,54.6h-1.8Zm1.8,54.6h-1.8l1.8,2Zm-1.8,0l1.8,2h-1.8Zm1.8,2h-1.8l1.7,1.5Zm-1.8,0l1.7,1.5l-1.7,-.2Zm1.7,1.5l-1.7,-.2l1.3,1.8Zm-1.7,-.2l1.3,1.8l-1.7,-.3Zm1.3,1.8l-1.7,-.3l1.3,1.8Zm-1.7,-.3l1.3,1.8l-1.6,-.4Zm1.3,1.8l-1.6,-.4l1.1,2.1Zm-1.6,-.4l1.1,2.1l-1.5,-.6Zm1.1,2.1l-1.5,-.6l.9,2Zm-1.5,-.6l.9,2l-1.4,-.7Zm.9,2l-1.4,-.7l.7,2.2Zm-1.4,-.7l.7,2.2l-1.5,-.9Zm.7,2.2l-1.5,-.9l.4,2.5Zm-1.5,-.9l.4,2.5l-1.5,-.9Zm.4,2.5l-1.5,-.9l.8,1.9Zm-1.5,-.9l.8,1.9l-1.5,-1.1Zm.8,1.9l-1.5,-1.1l.2,2.3Zm-1.5,-1.1l.2,2.3L628.8,474Zm.2,2.3L628.8,474l-.2,2.4ZM628.8,474l-.2,2.4l-1.1,-1.3Zm-.2,2.4l-1.1,-1.3l-.2,2.4Zm-1.1,-1.3l-.2,2.4l-1.1,-1.4Zm-.2,2.4l-1.1,-1.4l-.5,2.3Zm-1.1,-1.4l-.5,2.3l-1,-1.4Zm-.5,2.3l-1,-1.4l-.7,2.4Zm-1,-1.4l-.7,2.4l-.7,-1.7Zm-.7,2.4l-.7,-1.7l-.9,2.4Zm-.7,-1.7l-.9,2.4l-.8,-1.5Zm-.9,2.4l-.8,-1.5l-.5,2.2Zm-.8,-1.5l-.5,2.2L620,479.5Zm-.5,2.2L620,479.5l.3,2.4ZM620,479.5l.3,2.4l-1.6,-.7Zm.3,2.4l-1.6,-.7l1.5,1.5Zm-1.6,-.7l1.5,1.5l-1.7,-.2Zm1.5,1.5l-1.7,-.2l1.8,1.3Zm-1.7,-.2l1.8,1.3l-1.6,.3Zm1.8,1.3l-1.6,.3l1.8,.2Zm-1.6,.3l1.8,.2l-1.4,1.1Zm1.8,.2l-1.4,1.1l2.3,-.2Zm-1.4,1.1l2.3,-.2l-.9,1.5Zm2.3,-.2l-.9,1.5l2.4,-.7Zm-.9,1.5l2.4,-.7l-.5,1.4Zm2.4,-.7l-.5,1.4l2.3,-1.1Zm-.5,1.4l2.3,-1.1l-.3,1.7Zm2.3,-1.1l-.3,1.7l3.5,-1.5Zm-.3,1.7l3.5,-1.5l-.2,1.7Zm3.5,-1.5l-.2,1.7l28.8,-1.7Zm-.2,1.7l28.8,-1.7v1.7Zm28.8,-1.7v1.7l1.4,-1.7Zm0,1.7l1.4,-1.7l.4,1.7Zm1.4,-1.7l.4,1.7l2,-2.6Zm.4,1.7l2,-2.6l.9,1.3Zm2,-2.6l.9,1.3l.4,-2.6Zm.9,1.3l.4,-2.6l1.5,.9Zm.4,-2.6l1.5,.9l-1.3,-2Zm1.5,.9l-1.3,-2l1.8,.2Zm-1.3,-2l1.8,.2l-1.8,-1.7Zm1.8,.2l-1.8,-1.7l1.6,-.5Zm-1.8,-1.7l1.6,-.5L661,481Zm1.6,-.5L661,481l1.3,-1.3ZM661,481l1.3,-1.3l-2.9,-.2Zm1.3,-1.3l-2.9,-.2l.9,-1.4Zm-2.9,-.2l.9,-1.4l-2.7,.3Zm.9,-1.4l-2.7,.3l.7,-1.4Zm-2.7,.3l.7,-1.4l-3.1,.3Zm.7,-1.4l-3.1,.3l.9,-1.6Zm-3.1,.3l.9,-1.6l-3.1,.4Zm.9,-1.6l-3.1,.4l.9,-1.5Zm-3.1,.4l.9,-1.5l-2.6,.2Zm.9,-1.5l-2.6,.2l1.1,-1.3Zm-2.6,.2l1.1,-1.3l-2,.5Zm1.1,-1.3l-2,.5l1.3,-1.1Zm-2,.5l1.3,-1.1h-2.4Zm1.3,-1.1h-2.4l1.3,-1.1Zm-2.4,0l1.3,-1.1l-2.4,-.5Zm1.3,-1.1l-2.4,-.5l1.3,-.9Zm-2.4,-.5l1.3,-.9l-2,-.2Zm1.3,-.9l-2,-.2l1.4,-.9Zm-2,-.2l1.4,-.9l-2.5,-1.5Zm1.4,-.9l-2.5,-1.5l1.4,-.5Zm-2.5,-1.5l1.4,-.5l-2,-1.1Zm1.4,-.5l-2,-1.1l1.7,-.4Zm-2,-1.1l1.7,-.4l-2,-2.2Zm1.7,-.4l-2,-2.2l1.8,-.2Zm-2,-2.2l1.8,-.2L645.5,433Zm1.8,-.2L645.5,433l1.6,-.4ZM645.5,433l1.6,-.4l-13,-26.8Zm1.6,-.4l-13,-26.8l1.5,-.5Z" class="g1_1" />
<path d="M644.5,407.1h-.7l.7,20.6Zm-.7,0l.7,20.6h-.7Z" class="g1_1" />
<path d="M655.9,435.4h-.5l.7,27.6Zm-.5,0l.7,27.6h-.7Zm.7,27.6h-.7l.9,3Zm-.7,0l.9,3l-.6,.2Zm.9,3l-.6,.2l2.2,3.6Zm-.6,.2l2.2,3.6l-.5,.4Zm2.2,3.6l-.5,.4l1.8,1.5Zm-.5,.4l1.8,1.5l-.5,.3Zm1.8,1.5l-.5,.3l2,1.3Zm-.5,.3l2,1.3l-.6,.4Zm2,1.3l-.6,.4l2.4,1.1Zm-.6,.4l2.4,1.1l-.4,.5Zm2.4,1.1l-.4,.5l2.6,.8Zm-.4,.5l2.6,.8l-.4,.5Zm2.6,.8l-.4,.5l2.8,.7Zm-.4,.5l2.8,.7l-.4,.6Zm2.8,.7l-.4,.6l2.4,.5Zm-.4,.6l2.4,.5l-.4,.6Zm2.4,.5l-.4,.6l1.9,.5Zm-.4,.6l1.9,.5l-.4,.6Zm1.9,.5l-.4,.6l2,1.3Zm-.4,.6l2,1.3l-.7,.3Zm2,1.3l-.7,.3l.9,1.7Zm-.7,.3l.9,1.7l-.7,-.2Zm.9,1.7l-.7,-.2l.2,1.8Zm-.7,-.2l.2,1.8l-.6,-.3Zm.2,1.8l-.6,-.3l-.5,1.4Zm-.6,-.3l-.5,1.4l-.4,-.5Zm-.5,1.4l-.4,-.5l-1.5,1.5Zm-.4,-.5l-1.5,1.5l-.2,-.8Zm-1.5,1.5l-.2,-.8l-2.9,1.3Zm-.2,-.8l-2.9,1.3l-.2,-.7Zm-2.9,1.3l-.2,-.7l-2.5,.9Zm-.2,-.7l-2.5,.9v-.7Zm-2.5,.9v-.7l-5,.7Zm0,-.7l-5,.7v-.7Z" class="g1_1" />
<path d="M623.5,365l-.4,-1.7l-.6,1.8Zm-.4,-1.7l-.6,1.8l-.1,-1.6Zm-.6,1.8l-.1,-1.6l-.6,1.6Zm-.1,-1.6l-.6,1.6l-.7,-1.6Zm-.6,1.6l-.7,-1.6l.3,2.2Zm-.7,-1.6l.3,2.2l-1.1,-1.5Zm.3,2.2l-1.1,-1.5l.4,1.9Zm-1.1,-1.5l.4,1.9l-1.1,-1.3Zm.4,1.9l-1.1,-1.3l.6,1.8Zm-1.1,-1.3l.6,1.8l-1.3,-1.3Zm.6,1.8l-1.3,-1.3l.7,1.9Zm-1.3,-1.3l.7,1.9l-1.5,-.8Zm.7,1.9l-1.5,-.8l1.3,1.5Zm-1.5,-.8l1.3,1.5l-1.6,-.4Zm1.3,1.5l-1.6,-.4l1.4,1.5Zm-1.6,-.4l1.4,1.5l-1.6,-.2Zm1.4,1.5l-1.6,-.2l1.6,.9Zm-1.6,-.2l1.6,.9l-1.6,.4Zm1.6,.9l-1.6,.4l2,.4Zm-1.6,.4l2,.4l-1.6,.7Zm2,.4l-1.6,.7h2Zm-1.6,.7h2l-1.3,1.1Zm2,0l-1.3,1.1l2,-.6Zm-1.3,1.1l2,-.6l-1.1,1.5Zm2,-.6l-1.1,1.5l1.8,-.9Zm-1.1,1.5l1.8,-.9l-.7,1.5Zm1.8,-.9l-.7,1.5l1.5,-1.1Zm-.7,1.5l1.5,-1.1l-.8,1.4Zm1.5,-1.1l-.8,1.4l1.7,-1.1Zm-.8,1.4l1.7,-1.1l-.6,1.7Zm1.7,-1.1l-.6,1.7l1.5,-1.5Zm-.6,1.7l1.5,-1.5l-.4,1.7Zm1.5,-1.5l-.4,1.7l2.1,-1.1Zm-.4,1.7l2.1,-1.1l-.4,1.6Zm2.1,-1.1l-.4,1.6l1.3,-1.6Zm-.4,1.6l1.3,-1.6l-.4,1.6Zm1.3,-1.6l-.4,1.6l2,-1.1Zm-.4,1.6l2,-1.1l-.5,1.7Zm2,-1.1l-.5,1.7l2.5,-.8Zm-.5,1.7l2.5,-.8l-.9,1.5Zm2.5,-.8l-.9,1.5l2.4,-.2Zm-.9,1.5l2.4,-.2l-1.3,1.1Zm2.4,-.2l-1.3,1.1l3,.9Zm-1.3,1.1l3,.9l-1.5,.9Zm3,.9l-1.5,.9l45.5,107.1Zm-1.5,.9l45.5,107.1l-1.1,1.7Zm45.5,107.1l-1.1,1.7l5.6,-1.7Zm-1.1,1.7l5.6,-1.7l1.3,1.7Zm5.6,-1.7l1.3,1.7l23.5,-71Zm1.3,1.7l23.5,-71l1.8,.2Zm23.5,-71l1.8,.2l-1.8,-30.1Zm1.8,.2l-1.8,-30.1h1.8Z" class="g1_1" />
<path d="M708.3,387.5l-1.4,-.5l-8.6,30Zm-1.4,-.5l-8.6,30l-.2,-4.7Zm-8.6,30l-.2,-4.7L676.3,364.8Zm-.2,-4.7L676.3,364.8l1.1,-1.7ZM676.3,364.8l1.1,-1.7l-53,1.7Zm1.1,-1.7l-53,1.7v-1.7Zm-53,1.7v-1.7l-.9,1.9Zm0,-1.7l-.9,1.9l-.4,-1.7Z" class="g1_1" />
<path d="M676.8,363.7v.5l9.5,-.5Zm0,.5l9.5,-.5l-.3,.5Zm9.5,-.5l-.3,.5l17.2,36.7Zm-.3,.5l17.2,36.7l-.5,.2Z" class="g1_1" />
<path d="M684.5,482.8l-.7,.4l2.5,3.9Zm-.7,.4l2.5,3.9l-.3,.7Zm2.5,3.9l-.3,.7l5.7,-.7Zm-.3,.7l5.7,-.7l.5,.7Zm5.7,-.7l.5,.7l24.2,-68.9Zm.5,.7l24.2,-68.9l.6,.1Z" class="g1_1" />
<path d="M717.5,470.2h-1.6l1.6,1.1Zm-1.6,0l1.6,1.1h-1.6Zm1.6,1.1h-1.6l1.4,1.3Zm-1.6,0l1.4,1.3l-1.6,-.4Zm1.4,1.3l-1.6,-.4l1.4,1.5Zm-1.6,-.4l1.4,1.5l-1.6,-.6Zm1.4,1.5l-1.6,-.6l1.3,1.3Zm-1.6,-.6l1.3,1.3l-1.5,-.7Zm1.3,1.3l-1.5,-.7l.7,1.8Zm-1.5,-.7l.7,1.8l-1.2,-1.1Zm.7,1.8l-1.2,-1.1l.1,2.2Zm-1.2,-1.1l.1,2.2l-1.1,-1.3Zm.1,2.2l-1.1,-1.3v1.9Zm-1.1,-1.3v1.9l-.5,-1.7Zm0,1.9l-.5,-1.7l-1.3,2.2Zm-.5,-1.7l-1.3,2.2l-.4,-1.6Zm-1.3,2.2l-.4,-1.6l-1.2,2Zm-.4,-1.6l-1.2,2l-.4,-1.7Zm-1.2,2l-.4,-1.7l-2.4,2.2Zm-.4,-1.7l-2.4,2.2l-.4,-1.6Zm-2.4,2.2l-.4,-1.6l-.5,2Zm-.4,-1.6l-.5,2l-.7,-1.7Zm-.5,2l-.7,-1.7l-.8,2.6Zm-.7,-1.7l-.8,2.6l-1.1,-1.3Zm-.8,2.6l-1.1,-1.3l.8,1.9Zm-1.1,-1.3l.8,1.9l-1.5,-1Zm.8,1.9l-1.5,-1l1.1,1.5Zm-1.5,-1l1.1,1.5l-1.7,-.5Zm1.1,1.5l-1.7,-.5l1.5,1.2Zm-1.7,-.5l1.5,1.2l-1.6,-.3Zm1.5,1.2l-1.6,-.3l1.6,1.1Zm-1.6,-.3l1.6,1.1h-1.8Zm1.6,1.1h-1.8l1.8,.9Zm-1.8,0l1.8,.9l-1.6,.5Zm1.8,.9l-1.6,.5l2,.2Zm-1.6,.5l2,.2l-1.5,.9Zm2,.2l-1.5,.9l2,-.1Zm-1.5,.9l2,-.1l-1.1,1.2Zm2,-.1l-1.1,1.2l2,-.7Zm-1.1,1.2l2,-.7l-.7,1.5Zm2,-.7l-.7,1.5l2,-.9Zm-.7,1.5l2,-.9l-.5,1.6Zm2,-.9l-.5,1.6l2,-1.3Zm-.5,1.6l2,-1.3l-.2,1.7Zm2,-1.3l-.2,1.7l2.2,-1.7Zm-.2,1.7l2.2,-1.7v1.9Zm2.2,-1.7v1.9l60.3,-1.9Zm0,1.9l60.3,-1.9l.2,1.7Zm60.3,-1.9l.2,1.7l1.1,-2Zm.2,1.7l1.1,-2l.2,1.6Zm1.1,-2l.2,1.6l.9,-1.6Zm.2,1.6l.9,-1.6l.9,1.6Zm.9,-1.6l.9,1.6l-.2,-2.9Zm.9,1.6l-.2,-2.9l1.5,.9Zm-.2,-2.9l1.5,.9l-.9,-2Zm1.5,.9l-.9,-2l1.6,.5Zm-.9,-2l1.6,.5l-1.4,-1.4Zm1.6,.5l-1.4,-1.4h1.6Zm-1.4,-1.4h1.6l-1.6,-.8Zm1.6,0l-1.6,-.8l1.6,-.2Zm-1.6,-.8l1.6,-.2l-2,-.7Zm1.6,-.2l-2,-.7l1.5,-.7Zm-2,-.7l1.5,-.7l-1.9,.2Zm1.5,-.7l-1.9,.2l1.3,-1.1Zm-1.9,.2l1.3,-1.1l-2,.3Zm1.3,-1.1l-2,.3l.9,-1.3Zm-2,.3l.9,-1.3l-1.8,.8Zm.9,-1.3l-1.8,.8l.7,-1.5Zm-1.8,.8l.7,-1.5l-1.3,1.3Zm.7,-1.5l-1.3,1.3l.6,-1.7Zm-1.3,1.3l.6,-1.7l-1.5,1.3Zm.6,-1.7l-1.5,1.3l.6,-1.6Zm-1.5,1.3l.6,-1.6l-1.7,1.3Zm.6,-1.6l-1.7,1.3l.4,-1.7Zm-1.7,1.3l.4,-1.7l-1.3,1.5Zm.4,-1.7l-1.3,1.5l.4,-1.7Zm-1.3,1.5l.4,-1.7l-1.7,1.3Zm.4,-1.7l-1.7,1.3l.4,-1.6Zm-1.7,1.3l.4,-1.6l-1.3,1.2Zm.4,-1.6l-1.3,1.2l.7,-1.4Zm-1.3,1.2l.7,-1.4l-1.6,.9Zm.7,-1.4l-1.6,.9l1.1,-1.3Zm-1.6,.9l1.1,-1.3l-1.8,.6Zm1.1,-1.3l-1.8,.6l1.4,-1.1Zm-1.8,.6l1.4,-1.1l-2,.1Zm1.4,-1.1l-2,.1l1.7,-.7Zm-2,.1l1.7,-.7l-2.2,-.7Zm1.7,-.7l-2.2,-.7l1.4,-.8Z" class="g1_1" />
<path d="M765,473.3v0" class="g2_1" />
<path d="M764.3,473.3h1.6l-2,-92.9Zm1.6,0l-2,-92.9h1.8Zm-2,-92.9h1.8l-1.8,-1.3Zm1.8,0l-1.8,-1.3l1.8,.2Zm-1.8,-1.3l1.8,.2l-1.4,-1.5Zm1.8,.2l-1.4,-1.5l1.6,.4Zm-1.4,-1.5l1.6,.4l-1.3,-1.9Zm1.6,.4l-1.3,-1.9l1.7,.9Zm-1.3,-1.9l1.7,.9l-.9,-2Zm1.7,.9l-.9,-2l1.4,1.1Zm-.9,-2l1.4,1.1l-.7,-1.8Zm1.4,1.1l-.7,-1.8l1.1,1.3Zm-.7,-1.8l1.1,1.3v-1.9Zm1.1,1.3v-1.9l.7,1.5Zm0,-1.9l.7,1.5l.6,-1.8Zm.7,1.5l.6,-1.8l.3,1.6Zm.6,-1.8l.3,1.6l1.1,-2.2Zm.3,1.6l1.1,-2.2l.4,1.7Zm1.1,-2.2l.4,1.7l1.3,-2.2Zm.4,1.7l1.3,-2.2l.5,1.6Zm1.3,-2.2l.5,1.6l1,-2Zm.5,1.6l1,-2l.7,1.5Zm1,-2l.7,1.5l-.4,-2Zm.7,1.5l-.4,-2l1.3,1.2Zm-.4,-2l1.3,1.2l-.2,-2.2Zm1.3,1.2l-.2,-2.2l1.5,1Zm-.2,-2.2l1.5,1l-1.1,-2.2Zm1.5,1l-1.1,-2.2l1.6,.1Zm-1.1,-2.2l1.6,.1L774.9,367Zm1.6,.1L774.9,367l1.6,-.8ZM774.9,367l1.6,-.8l-2.3,.2Zm1.6,-.8l-2.3,.2l.9,-1.4Zm-2.3,.2l.9,-1.4l-2.2,.7Zm.9,-1.4l-2.2,.7l.7,-1.7Zm-2.2,.7l.7,-1.7l-2.6,1.1Zm.7,-1.7l-2.6,1.1l.4,-1.8Zm-2.6,1.1l.4,-1.8l-2.9,1.5Zm.4,-1.8l-2.9,1.5l.2,-1.7Zm-2.9,1.5l.2,-1.7l-51.2,1.7Zm.2,-1.7l-51.2,1.7l-1.6,-1.7Zm-51.2,1.7l-1.6,-1.7l1.6,107.1Zm-1.6,-1.7l1.6,107.1h-1.6Z" class="g1_1" />
<path d="M771.2,363.9v.7l5.9,-.9Zm0,.7l5.9,-.9v.5Zm5.9,-.9v.5l3.5,-.3Zm0,.5l3.5,-.3v.7Zm3.5,-.3v.7l2.7,.2Zm0,.7l2.7,.2l-.3,.5Zm2.7,.2l-.3,.5l2,1.1Zm-.3,.5l2,1.1l-.6,.4Zm2,1.1l-.6,.4l.9,.7Zm-.6,.4l.9,.7h-.7Zm.9,.7h-.7l.7,2Zm-.7,0l.7,2l-.7,-.1Zm.7,2l-.7,-.1l.2,1.8Zm-.7,-.1l.2,1.8l-.6,-.4Zm.2,1.8l-.6,-.4l-.5,1.7Zm-.6,-.4l-.5,1.7l-.6,-.6Zm-.5,1.7l-.6,-.6L783,373Zm-.6,-.6L783,373l-.4,-.5ZM783,373l-.4,-.5l-1.7,1.3Zm-.4,-.5l-1.7,1.3l-.1,-.6Zm-1.7,1.3l-.1,-.6l-1.9,1.3Zm-.1,-.6l-1.9,1.3l-.2,-.7Zm-1.9,1.3l-.2,-.7l-2,1.2Zm-.2,-.7l-2,1.2l-.2,-.5Zm-2,1.2l-.2,-.5l-.3,.9Zm-.2,-.5l-.3,.9l-.4,-.5Zm-.3,.9l-.4,-.5l-.5,1.6Zm-.4,-.5l-.5,1.6l-.6,-.4Zm-.5,1.6l-.6,-.4l.2,1.5Zm-.6,-.4l.2,1.5l-.7,-.2Zm.2,1.5l-.7,-.2l.3,1.9Zm-.7,-.2l.3,1.9h-.7Zm.3,1.9h-.7l.7,90.9Zm-.7,0l.7,90.9h-.7Zm.7,90.9h-.7l.7,1.8Zm-.7,0l.7,1.8h-.7Zm.7,1.8h-.7l.7,.9Zm-.7,0l.7,.9l-.5,.2Zm.7,.9l-.5,.2l.9,.8Zm-.5,.2l.9,.8l-.6,.3Zm.9,.8l-.6,.3l1.1,.8Zm-.6,.3l1.1,.8l-.5,.3Zm1.1,.8l-.5,.3l1.3,.6Zm-.5,.3l1.3,.6l-.4,.5Zm1.3,.6l-.4,.5h1.3Zm-.4,.5h1.3l-.2,.6Zm1.3,0l-.2,.6l1.8,-.2Zm-.2,.6l1.8,-.2l-.1,.7Zm1.8,-.2l-.1,.7h2.3Zm-.1,.7h2.3l-.1,.6Zm2.3,0l-.1,.6h1.8Zm-.1,.6h1.8l-.4,.5Zm1.8,0l-.4,.5l1.9,.4Zm-.4,.5l1.9,.4l-.6,.5Zm1.9,.4l-.6,.5l1.5,1Zm-.6,.5l1.5,1l-.6,.3Zm1.5,1l-.6,.3l1.1,1.5Zm-.6,.3l1.1,1.5h-.7Zm1.1,1.5h-.7l.2,2.6Zm-.7,0l.2,2.6l-.6,-.4Zm.2,2.6l-.6,-.4l-.7,1.8Zm-.6,-.4l-.7,1.8l-.6,-.5Zm-.7,1.8l-.6,-.5l-1.1,1.3Zm-.6,-.5l-1.1,1.3l-.1,-.8Zm-1.1,1.3l-.1,-.8l-1.7,1.1Zm-.1,-.8l-1.7,1.1v-.5Zm-1.7,1.1v-.5l-1.8,.7Zm0,-.5l-1.8,.7v-.7Zm-1.8,.7v-.7l-2.8,.9Zm0,-.7l-2.8,.9v-.7Zm-2.8,.9v-.7l-1.4,.7Zm0,-.7l-1.4,.7v-.7Zm-1.4,.7v-.7l-5.4,.7Zm0,-.7l-5.4,.7v-.7Z" class="g1_1" />
<path d="M615.4,288h-1.3l-1.1,.1" class="g3_1" />
<path d="M494,530.7v0m12.9,8.1v0m11.7,-9v0m.5,17.4v0m11,-8.3v0m24.6,-.9v0m11.6,9v0m24.3,-.7v0m11,-8.5v0m12.9,8.1v0m11.7,-9v0m11.6,9.2v0m12.1,-9.5v0m12.2,8.6v0m11,-8.5v0m12.9,8.1v0m11.7,-9v0m11.4,9.2v0m12.3,-9.5v0m-213.3,4.2v0M520.4,538v0m4.8,-.5v0M574,531.1v0m7.5,-1.1v0m-49,6.4v0m12.3,-1.7v0m4.8,-.5v0m7.3,-.9v0m12.5,-1.7v0M631.3,547v0m7.4,-1.1v0m61.2,-8.1v0m4.6,-.5v0m7.5,-.9v0m12.3,-1.7v0m4.8,-.7v0m7.3,-.9v0M651,544.3v0m4.7,-.6v0m7.4,-.9v0m12.2,-1.7v0m4.8,-.5v0m7.3,-1.1v0m48.3,-6.8v0m-28.5,0v0m-28.2,.2v0m18,11.4v0m3.8,2.3v0m-50,-13.7v0m17.9,11.4v0m3.9,2.5v0M622.5,532.9v0m18,11.5v0m3.9,2.4v0M594.3,532.9v0m18,11.5v0M566.1,533.1v0M584,544.4v0m3.9,2.6v0M537.7,533.1v0m17.9,11.3v0m3.9,2.6v0M509.4,533.1v0m18,11.5v0m3.8,2.4v0M711.1,530.5v0m7.9,7.3v0m-36.9,-.9v0m1.7,1.7v0m7.9,7.1v0m-45.9,-9v0m9,8.3v0m1.7,1.5v0M609,535.8v0m1.6,1.7v0m7.9,7.1v0m-45.8,-9.1v0m9,8.4v0m1.6,1.5v0M535.8,534.7v0m1.7,1.5v0m7.9,7.3v0m-46.1,-9.1v0m9.2,8.4v0M652.4,327.6v0m-141.3,.3v0m114.6,.6v0" class="g4_1" />
<path d="M707.2,413.5l.8,.2l8.4,-25.1Zm.8,.2l8.4,-25.1l.6,.2Z" class="g5_1" />
<path d="M534,412.4l.5,.2L543,387.5Zm.5,.2L543,387.5l.7,.2Z" class="g5_1" />
<path d="M480.5,519.9v0m85.2,-11.4v0m36.9,-4.8v0m-60.5,7.9v0m237,-13v0m-141.3,.2v0m19,12.3v0M496.4,499.2v0m19.1,12.1v0m120.4,-8.7v0m-80.6,52.8v0m23.6,-.1v0m12.3,8.4v0m11,-8.4v0m12.8,8v0m11.8,-9v0m11.5,9.2v0m12.1,-9.3v0m23.3,0v0m-120.5,3.1v0m4.8,-.8v0m7.3,-.9v0M577.6,554v0m4.8,-.6v0m75.7,2.2v0m-28.2,0v0m-28.3,0v0m-28.2,.2v0m-28.4,0v0m119.3,-2v0m-36.8,-.9v0m1.6,1.6v0m7.9,7.2v0m-45.8,-9.2v0m9,8.4v0m1.6,1.5v0M589.7,552.3v0M602,550.9v0m4.8,-.8v0m7.5,-.9v0M593.6,292.9v0m24.5,-.9v0m23.9,-.2v0m-71,4.6v0m12.3,-1.7v0m4.8,-.5v0m7.3,-1.1v0m12.3,-1.7v0m4.8,-.5v0m32.2,3.3v0m-28.2,0v0m-28.4,.2v0m-28.3,0v0m108.6,-.8v0m1.8,1.7v0m-38.1,-1.8v0m-36.9,-1v0m1.7,1.7v0m-74.3,17.4v0m12.3,-9.5v0m12.3,8.6v0m11,-8.4v0m12.8,8v0m11.8,-9v0m.5,17.5v0m10.8,-8.3v0M606.4,301v0m.6,17.6v0m11.7,-9v0m11,-8.4v0m.5,17.4v0m12.3,-9.4v0m11.8,-9v0m23.6,-.1v0m-23.1,17.7v0m10.8,-8.4v0m12.9,8.1v0m11.7,-9v0m11.5,9.2v0M714,308.1v0m12.3,8.6v0M534.5,301.2v0m4.6,-.6v0M558.9,298v0m4.8,-.7v0m15.8,21.5v0m12.2,-1.7v0m4.8,-.5v0m7.3,-1.1v0M616.1,314v0m4.8,-.7v0m7.3,-1v0m12.3,-1.6v0m4.8,-.6v0m44.2,-5.8v0m4.7,-.6v0m7.4,-1.1v0m-49,6.4v0m12.5,-1.4v0m4.6,-.8v0m7.5,-.9v0m-.4,-9.3v0m13.8,8.8v0m17.9,11.5v0M648.6,296.6v0m13.7,8.8v0m18,11.5v0M620.2,296.8v0m31.9,20.1v0M591.9,296.8v0m31.9,20.1v0M563.7,296.8v0m31.7,20.3v0m-18,-11.5v0m-28.2,0v0m18,11.5v0M521,305.7v0m17.9,11.4v0m-28.2,0v0m213.2,-5.5v0m-45.8,-9.2v0m9,8.3v0m1.6,1.6v0M641.2,301.7v0m1.7,1.5v0m7.9,7.3v0m9,8.3v0m-55,-17.5v0m9.1,8.3v0m1.7,1.6v0m7.9,7.2v0M567.9,300.6v0m1.8,1.5v0m16.9,15.6v0m1.7,1.4v0m-10.7,-9.9v0m-36.8,-.7v0m1.6,1.5v0m7.9,7.3v0m-36.8,-.7v0m1.6,1.4v0" class="g4_1" />
<path d="M624.7,564.8l3.2,-.2h3.3l3.1,-.4l3.3,-.1l3.3,-.4l3.1,-.2l3.1,-.4l3.3,-.3l3.1,-.6l3.1,-.3l1.7,-.4l1.6,-.2l1.5,-.4l1.7,-.1l1.4,-.4l1.7,-.2l1.4,-.4l1.7,-.3l1.5,-.2l1.6,-.4l1.5,-.3l1.6,-.4l1.5,-.4l1.6,-.3l1.7,-.4l1.6,-.4l1.5,-.5l1.7,-.4l1.4,-.4l1.7,-.5l-13.6,-2.4m-49.8,12.2c17.3,-.9,34.3,-5.1,50,-12.3m-50.1,12.4v0m63.5,-9.9v0m-13.6,-2.4v0m-121,0l-13.4,2.4l2,.5l2.2,.8l2.1,.5l2.2,.4l2,.5l2.2,.6l2,.5l2.2,.4l2.2,.6l2,.3l2.2,.4l2.2,.4l2.2,.3l2.2,.4l2,.4l2.2,.3l1.9,.2l1.8,.4l2,.2l1.8,.1l1.9,.2l1.8,.2l1.8,.2l1.9,.2l1.8,.2l1.8,.1l2.1,.2h1.8l1.8,.2l1.9,.2h3.8M553.7,552.4c15.9,7.2,33,11.4,50.5,12.4M553.6,552.5v0m-13.4,2.4v0m64,9.9v0m71.9,-13l13.9,2.5l2.6,-.7l2.4,-.7l2.5,-.8l2.4,-.9l2.4,-.7l2.6,-.9l2.3,-.9l2.4,-1l2.4,-.9l2.2,-.9l2.4,-.9l2.4,-1.1l2.2,-.9l2.2,-1.1l2.4,-1.1l2.2,-1.1l2.2,-1.1l2.2,-1.1l2.2,-1.1l2,-1.3l2.2,-1.1l2,-1.3l2,-1.1l2.2,-1.3l2,-1.3l1.9,-1.2l2,-1.3l2,-1.3l1.8,-1.5l2,-1.3l1.9,-1.4l1.8,-1.3l1.1,-.9l.9,-.8l1.1,-.9l1.1,-.9l.9,-.7l1.1,-.9l1,-1l1.1,-.9l.9,-.7l1.1,-.9l.9,-.9l.9,-1l.9,-.9l.9,-.9l1,-.9l.9,-.9l.9,-.9l.9,-1l.9,-.9l.9,-.9l.8,-.9l.9,-.9l.9,-1.1l.7,-.9l1,-1l.7,-.9l.7,-1.1l.9,-.9l.8,-.9l.7,-1.1l.7,-.9l.8,-.9l.7,-1.1l.7,-1l.8,-1.1l.7,-.9l.6,-1.1l.7,-.9l.7,-1.1l.6,-.9l.7,-1.1l.6,-.9l.5,-1.1l.7,-1.1l.6,-.9l.5,-1.1l.6,-1.1l.5,-1l.6,-1.1l.5,-1.1l.6,-1.1l.4,-.9l.5,-1.1l.6,-1.1l.3,-1.1l.6,-1.1l.3,-.9l.6,-1.1l.4,-1.1l.3,-1.1l.4,-1.1l.4,-1.1l.3,-1.1l.4,-1.1l.4,-1.1l.3,-1.1l.4,-1.1l.2,-1.1l.3,-1.1l.2,-.9l.4,-1.1l.2,-1.1l.3,-1.1l.2,-1.1l.2,-1.3l.2,-1.1l.2,-1.1l.2,-1.1l.1,-1.1l.2,-1.1v-1.1L811,437l.2,-1.1v-1.1l.2,-1.1v-1.1l.2,-1.1v-9l-.2,-1.1v-2.2l-.2,-1.1V417l-.2,-1.1l-.2,-1.1v-1.1l-.2,-1.1l-.1,-1.1l-.2,-1.1l-.2,-1.1l-.2,-1.1l-.2,-1.1l-.3,-1.1l-.2,-1.1l-.2,-1.1l-.4,-1.1l-.2,-1.1l-.3,-1.1l-.4,-1.1l-.2,-1.1l-.3,-1.1l-.4,-1.1l-.4,-1.1l-.3,-1.1l-.4,-1.1l-.4,-1.1l-.3,-1.1l-.6,-1.1l-.4,-.9l-.3,-1.1l-.6,-1.1l-.3,-1.1l-.6,-1.1l-.5,-.9l-.6,-1.1l-.4,-1.1l-.5,-1.1l-.6,-.9l-.5,-1.1l-.6,-1.1l-.5,-1.1l-.7,-.9l-.6,-1.1l-.5,-1l-.8,-1.1l-.5,-1.1l-.8,-.9l-.5,-1.1l-.7,-.9l-.8,-1.1l-.7,-.9l-.6,-1.1l-.7,-.9l-.7,-1.1l-.8,-.9l-.7,-1l-.9,-1.1l-.7,-.9l-.8,-.9l-.9,-1.1l-.7,-.9l-.8,-.9l-.9,-.9l-.9,-1l-.7,-1.1l-.9,-.9l-1,-.9l-.7,-.9l-.9,-.9l-.9,-.9l-.9,-1l-1,-.9l-.9,-.9l-1.1,-.9l-.9,-.9l-.9,-.9l-.9,-.8l-1.1,-.9l-.9,-.9l-1.1,-.9l-1,-.8l-1.1,-.9l-1.1,-.9l-.9,-.7l-1.1,-.9l-1.1,-.8l-1.1,-.9l-1.1,-.7l-1.1,-.9l-1.1,-.8l-1.1,-.9l-1.1,-.7l-1.1,-.8l-1.1,-.7l-1.3,-.9L748.5,325l-1.7,-.9L745.2,323l-1.7,-1.1l-1.8,-.9l-1.6,-1.1l-1.7,-1l-1.8,-1.1l-1.9,-.9l-1.8,-.9l-1.6,-1.1l-1.9,-.9l-1.8,-.9l-2,-.8l-1.9,-.9l-1.8,-.9l-1.8,-.9l-2,-.7l-1.9,-1l-2,-.7l-2,-.9l-1.8,-.7l-2.1,-.8l-2,-.7l-2,-.7l-2,-.8l-2,-.7l-2,-.6l-2.1,-.7l-2,-.7l-2.2,-.6l-2,-.7l-11.2,2.2m55.6,49.7C720.8,329.1,701.6,311.9,678.9,300.7m54.4,50h.9" class="g6_1" />
<path d="M733.4,350.5C719.6,329.2,700.2,312,677.4,300.9" class="g7_1" />
<path d="M641.6,305.4l18,-1.7l17.6,-2.5m.8,49.3C668.8,333.3,656.5,318,641.8,305.2m35,45.5h1.1" class="g6_1" />
<path d="M676.9,350.5C667.7,333.3,655.3,318,640.5,305.4" class="g7_1" />
<path d="M587.9,305.6l13.2,.7l13,.2l13.2,-.2l13,-.7" class="g6_1" />
<path d="M588.1,305.4c-14.8,12.6,-27.2,27.9,-36.5,45.1" class="g7_1" />
<path d="M550.5,350.7h1.1m35.2,-45.5c-14.7,12.8,-27,28.1,-36.2,45.3m.4,-49.3l17.8,2.5l17.8,1.7" class="g6_1" />
<path d="M551.2,300.9c-22.9,11.1,-42.2,28.3,-56,49.6" class="g7_1" />
<path d="M494,350.7h1.1m54.5,-50c-22.6,11.2,-41.8,28.4,-55.5,49.8m55.5,-49.7l-11.2,-2.2l-2.4,.7l-2.2,.8l-2.2,.7l-2.4,.7l-2.2,.8l-2.2,.7l-2.2,.9l-2.2,.7l-2,1l-2.2,.7l-2.2,.9l-2,.9l-2.2,.9l-2,1l-2.2,.9l-2,.9l-2.1,1.1l-2,.9l-2,1.1l-2,.9l-1.8,1.1l-2.1,1.1l-2,1.1l-1.8,1.1l-1.8,1.1l-2.1,1.1l-1.8,1.1l-1.8,1.3l-1.7,1.1l-1.8,1.1l-1.8,1.3l-1.7,1.3l-1.1,.7l-1.1,.9L470,332l-1.1,.9l-1.1,.7l-1.1,.9l-1.1,.8l-.9,.9l-1.1,.7l-1.1,.9l-.9,.9l-1.1,1l-.9,.7l-1,.9l-1.1,.9l-.9,.9l-.9,1l-.9,.9l-.9,.9l-1.1,.9l-.9,.9l-.8,.9l-.9,1l-.9,.9l-.9,.9l-.9,.9l-.8,.9l-.9,.9l-.7,1.1l-.9,1l-.8,.9l-.7,.9l-.9,1.1l-.8,.9l-.7,.9l-.7,1.1l-.8,.9l-.7,1.1l-.7,1l-.8,.9l-.7,1.1l-.5,.9l-.8,1.1l-.7,1.1l-.6,.9l-.7,1.1l-.5,.9l-.6,1.1l-.7,1.1l-.6,.9l-.5,1.1l-.6,1.1l-.5,1l-.6,1.1l-.5,1.1l-.6,1.1l-.3,.9l-.6,1.1l-.5,1.1l-.4,1.1l-.6,1.1l-.3,.9l-.4,1.1l-.5,1.1l-.4,1.1l-.4,1.1l-.3,1.1l-.4,1.1l-.4,1.1l-.3,1.1l-.4,1.1l-.2,1.1l-.4,1.1l-.3,1.1l-.2,1.1l-.4,1.1l-.2,1.1l-.1,1.1l-.2,1.1l-.4,1.1l-.2,1.1l-.2,1.1l-.1,1.1l-.2,1.3v1.1l-.2,1.1l-.2,1.1v1.1l-.2,1.1v1.1l-.2,1.1v2.4l-.1,1.1V428l.1,1.5v2.7l.2,1.5v1.5l.2,1.4l.2,1.5l.2,1.3l.2,1.5l.1,1.4l.4,1.5l.2,1.5l.4,1.2l.1,1.5l.4,1.5l.4,1.4l.3,1.3l.4,1.5l.6,1.5l.3,1.4l.4,1.3l.5,1.5l.6,1.3l.5,1.4l.6,1.5l.5,1.3l.6,1.4l.5,1.3l.6,1.5l.7,1.3l.6,1.4l.5,1l.6,1.1l.5,1.1l.6,1.1l.7,.9l.6,1.1l.5,1.1l.6,.9l.7,1.1l.5,.9l.8,1.1l.5,.9l.8,1.1l.7,.9l.5,1.1l.8,1l.7,1.1l.7,.9l.8,1.1l.7,.9l.9,.9l.8,1.1l.7,.9l.7,.9l.9,1.1l.8,1l.9,.9l.7,.9l.9,.9l1,1.1l.7,.9l.9,.9l.9,1l.9,.9l1,.9l.9,.9l.9,.9l.9,.9l1.1,.8l.9,.9l.9,.9l1.1,.9l1,.9l1.1,.8l.9,.9l1.1,.9l.9,.9l1.1,.8l1.1,.9l1.1,.7l.9,.9l1.1,.8l1.1,.9l1.1,.7l1.1,.7l1.3,1l1.1,.7l1.1,.7l1.1,.9l1.3,.8l1.1,.7l1.1,.7l1.3,.8l1.1,.7l1.6,.9l1.5,.9l1.4,1l1.7,.9l1.6,.9l1.5,.9l1.7,.7l1.6,1l1.7,.9l1.6,.7l1.7,.9l1.6,.8l1.7,.7l1.6,.7l1.7,.9l1.6,.8l1.8,.7l1.7,.7l1.8,.8l1.7,.7l1.8,.6l1.8,.7l1.7,.7l1.8,.6l1.9,.7l1.8,.6l1.8,.7l1.7,.5l1.8,.6l2,.5l1.9,.6l1.8,.5l13.7,-2.5M495.3,502.3c14.1,21.4,33.8,38.5,57,49.4M496.2,502.5h-1.1" class="g6_1" />
<path d="M496.3,502.3c14.3,21.4,34.2,38.4,57.6,49.1" class="g7_1" />
<path d="M588.6,547.6l-17.4,1.6l-17.4,2.4m-2.2,-49.3c9.4,17.2,22,32.5,37.1,45.1M552.5,502.5h-1.1" class="g6_1" />
<path d="M552.6,502.3c9.5,17.2,22.2,32.5,37.4,45" class="g7_1" />
<path d="M589.9,547.4l24.2,-.8l24.4,.8" class="g6_1" />
<path d="M638.6,547.3c15.2,-12.5,27.8,-27.8,37.4,-45" class="g8_1" />
<path d="M676.8,502.5h-.9m-36,44.9C655,534.8,667.5,519.5,677,502.3m-2.4,49.3l-17.4,-2.4l-17.4,-1.6" class="g6_1" />
<path d="M674.7,551.4c23.4,-10.7,43.3,-27.7,57.5,-49.1" class="g7_1" />
<path d="M733.1,502.5H732m-55.7,49.2c23.2,-10.9,42.9,-28,57,-49.4m-57.2,49.5v0m13.9,2.5v0m0,-255.7v0m-11.2,2.2v0m55.4,49.9v0m-.9,0v0M677.2,301.2v0m-35.6,4.2v0m36.3,45.3v0m-1.1,0v0M640.3,305.6v0m-26.2,.9v0m-26.2,-.9v0m-36.3,45.1v0m-1.1,0v0m36.1,-45.3v0M551,301.2v0m-55.9,49.5v0m-1.1,0v0m55.6,-49.9v0m-11.2,-2.2v0m0,255.7v0m13.7,-2.5v0m-57,-49.3v0m1.1,0v0m57.6,49.1v0m34.8,-4v0M551.4,502.5v0m1.1,0v0m37.4,44.9v0m24.2,-.8v0m24.4,.8v0m37.4,-44.9v0m.9,0v0m-37,45.1v0m34.8,4v0M732,502.5v0m1.1,0v0" class="g6_1" />
<path d="M639.5,304.5C632,298.2,624,292.7,615.5,287.9" class="g9_1" />
<path d="M615.4,288l-2.4,.1" class="g6_1" />
<path d="M613.1,287.9c-8.5,4.8,-16.6,10.3,-24,16.6" class="g7_1" />
<path d="M639.4,304.6l-12.6,.8l-12.7,.2l-12.5,-.2L589,304.6m50.4,0v0M615.4,288v0m-2.4,.1v0m-24,16.5v0m25.1,1v0" class="g6_1" />
<path d="M676,300.3c-11.1,-5.3,-22.9,-9,-35,-11.2" class="g10_1" />
<path d="M640.9,289.2l-3,-.1l-2.9,-.2l-2.9,-.2l-3,-.2l-3.1,-.2l-2.9,-.2h-5.9m23.6,16.3c-7.3,-6.2,-15.1,-11.7,-23.4,-16.5m58.5,12.5L658.3,303l-17.6,1.6m35.2,-4.2v0m-35,-11.2v0m-23.7,-1.1v0m23.5,16.5v0M611.2,287.9c-8.3,4.8,-16.1,10.3,-23.4,16.5M611,288.1h-5.9l-2.9,.2l-2.9,.2l-3,.2l-2.9,.2l-2.9,.2l-3,.1" class="g6_1" />
<path d="M587.6,289.1c-12.1,2.2,-23.9,5.9,-35,11.2" class="g11_1" />
<path d="M587.7,304.6L570.1,303l-17.6,-2.6m35.2,4.2v0M611,288.1v0m-23.5,1.1v0m-35,11.2v0m124.9,-.3l10.8,-1.9l-1.7,-.5l-1.6,-.4l-1.7,-.5l-1.6,-.4l-1.7,-.4l-1.6,-.5l-1.7,-.4l-1.6,-.4l-1.7,-.3l-1.6,-.4l-1.9,-.4l-1.6,-.3l-1.7,-.4l-1.6,-.2l-1.7,-.3l-1.8,-.4l-2.7,-.4l-2.8,-.5l-2.9,-.4l-2.8,-.4m27.3,9.7c-8.7,-4.2,-17.8,-7.5,-27.2,-9.8m27.1,9.9v0m10.8,-1.9v0m-38,-7.9v0m-72,-.1c-9.4,2.3,-18.5,5.6,-27.2,9.8m27.2,-9.7l-2.2,.4l-2.4,.2l-2.2,.4l-2.2,.3L567,292l-2.4,.4l-2.2,.5l-2.2,.4l-2.6,.5l-2.5,.6l-2.4,.5l-2.6,.6l-2.5,.7l-2.4,.6l-2.6,.7l-2.4,.5l10.8,2.1m27.2,-9.8v0m-38,7.7v0M415,426.6v3.8l.2,2l.2,1.9l.2,2l.1,1.8l.2,2l.4,1.9l.2,2l.3,1.8l.6,2l.4,1.9l.5,1.8l.4,2l.5,1.8l.6,2.1l.7,1.8l.6,1.8l.7,1.9l.7,1.8l.8,2l.9,1.8l.7,1.9l.9,1.8l.9,1.8l1,1.9l1.1,1.8l.9,1.7l1.1,1.8l1.1,1.8l1.1,1.7l1.1,1.8l1.3,1.7l1.2,1.8l1.1,1.6l1.5,1.9l1.3,1.6l1.3,1.7l1.4,1.6l1.5,1.7l1.5,1.6l1.4,1.7l1.5,1.6l1.5,1.7l1.6,1.4l1.7,1.7l1.6,1.5l1.7,1.6l1.6,1.5l1.9,1.4l1.8,1.5l1.6,1.5l1.9,1.4l1.8,1.5l2,1.5l1.9,1.3l2,1.4l1.8,1.3l2,1.3l2,1.5l2.1,1.2l2,1.3l2.2,1.1l2,1.3l2.2,1.3l2.2,1.1l2.2,1.3l2.2,1.1l2.2,1.1l2.2,1.1l2.4,1.1l2.2,1.1l2.4,1.1l2.3,.9l2.2,1.1l2.4,.9l2.4,.9l2.6,.9l2.4,1l2.3,.9l2.6,.9l2.4,.7l2.6,.9l2.5,.8l2.4,.7l2.6,.7l2.5,.8l2.6,.7l2.6,.6l2.5,.7l2.8,.5l2.6,.6l2.5,.7l2.8,.4l2.5,.5l2.8,.6l2.6,.4l2.7,.5l2.8,.4l2.5,.3l2.8,.4l2.7,.4l2.8,.2l2.7,.3l2.6,.2l2.7,.2l2.8,.2l2.7,.2l2.8,.1l2.7,.2h2.8l2.7,.2h8.3l2.7,-.2h2.8l2.7,-.2h2.8l2.7,-.1l2.8,-.2l2.7,-.2l2.8,-.2l2.7,-.4l2.6,-.1l2.8,-.4l2.7,-.4l2.8,-.3l2.5,-.4l2.8,-.4l2.7,-.5l2.6,-.4l2.7,-.5l2.6,-.6l2.8,-.5l2.5,-.6l2.6,-.5l2.6,-.8l2.7,-.5l2.6,-.8l2.5,-.7l2.4,-.7l2.6,-.8l2.6,-.7l2.5,-.7l2.4,-.9l2.6,-.8l2.4,-.9l2.5,-.9l2.4,-.9l2.4,-.9l2.4,-1.1l2.4,-1l2.3,-.9l2.2,-1.1l2.4,-1.1l2.2,-1.1l2.4,-1.1l2.2,-1.1l2.2,-1.1l2.2,-1.1l2.2,-1.3l2.2,-1.1l2,-1.2l2.2,-1.3l2,-1.3l2.1,-1.3l2,-1.3l2,-1.3l2,-1.4l1.8,-1.3l2.1,-1.5l1.8,-1.3l1.8,-1.4l1.9,-1.5L765,518l1.8,-1.4l1.9,-1.5l1.6,-1.5L772,512l1.6,-1.5l1.7,-1.6l1.6,-1.5l1.7,-1.6l1.4,-1.7l1.5,-1.5L783,501l1.4,-1.7l1.5,-1.6l1.3,-1.8l1.4,-1.7l1.3,-1.6l1.3,-1.7l1.1,-1.8l1.3,-1.7l1.3,-1.8l1.1,-1.7l1.1,-1.8l1.1,-1.8l.9,-1.9l1.1,-1.6l.9,-1.8l.9,-1.9l.9,-1.8l1,-1.8l.7,-1.9l.7,-1.8l.9,-2l.6,-1.9l.7,-1.8l.8,-1.8l.5,-2l.6,-1.9l.5,-1.8l.6,-2l.3,-1.9l.4,-2l.4,-1.8l.3,-2l.4,-1.9l.2,-2l.3,-1.8l.2,-2v-1.9l.2,-2v-1.8l.2,-2v-1.9l-.2,-2v-2l-.2,-1.8v-2l-.2,-1.9l-.3,-2l-.2,-1.8l-.4,-2l-.3,-1.9l-.4,-2l-.4,-1.8l-.3,-1.9l-.6,-2l-.5,-1.8l-.6,-2l-.5,-1.9l-.8,-1.8l-.7,-1.8l-.6,-2l-.9,-1.9l-.7,-1.8l-.7,-1.8l-1,-1.9L802,380l-.9,-1.8l-.9,-1.9l-1.1,-1.8l-.9,-1.7L797.1,371L796,369.2l-1.1,-1.7l-1.3,-1.8L792.3,364l-1.1,-1.8l-1.3,-1.6l-1.3,-1.7l-1.4,-1.8l-1.3,-1.7l-1.5,-1.6L783,352.1l-1.5,-1.6L780,348.8l-1.4,-1.4l-1.7,-1.7l-1.6,-1.6l-1.7,-1.5L772,340.9l-1.7,-1.4L768.7,338l-1.9,-1.5L765,335.1l-1.8,-1.5l-1.9,-1.5l-1.8,-1.4l-1.8,-1.5l-2.1,-1.3l-1.8,-1.4l-2,-1.3l-2,-1.3l-2,-1.3l-2.1,-1.3l-2,-1.3l-2.2,-1.2l-2,-1.3l-2.2,-1.1l-2.2,-1.3L732.9,314l-2.2,-1.1l-2.2,-1.3l-2.4,-1.1l-2.2,-.9l-2.4,-1.1l-2.2,-1.1l-2.3,-.9l-2.4,-1.1l-2.4,-.9l-2.4,-1l-2.4,-.9l-2.5,-.9l-2.4,-.9l-2.6,-.7l-2.4,-1l-2.5,-.7l-2.6,-.7l-2.6,-.8l-2.4,-.7l-2.5,-.7l-2.6,-.8l-2.7,-.5l-2.6,-.7l-2.6,-.6l-2.5,-.5l-2.8,-.6l-2.6,-.5l-2.7,-.6l-2.6,-.4l-2.7,-.5l-2.8,-.4l-2.5,-.3l-2.8,-.4l-2.7,-.4l-2.8,-.3l-2.6,-.2l-2.7,-.4l-2.8,-.2l-2.7,-.2l-2.8,-.1l-2.7,-.2l-2.8,-.2h-2.7l-2.8,-.2h-11l-2.7,.2h-2.8l-2.7,.2h-2.8l-2.7,.2l-2.8,.1l-2.7,.4l-2.6,.2l-2.7,.2l-2.8,.3l-2.7,.4l-2.8,.4l-2.5,.3l-2.8,.4l-2.7,.4l-2.6,.5l-2.8,.6l-2.5,.3l-2.8,.6l-2.5,.5l-2.6,.6l-2.8,.7l-2.5,.6l-2.6,.7l-2.6,.7l-2.5,.8l-2.6,.7l-2.4,.7l-2.5,.8l-2.6,.7l-2.4,.9l-2.6,.9l-2.3,.8l-2.4,.9l-2.6,.9l-2.4,1.1l-2.4,.9l-2.2,.9l-2.3,1.1l-2.4,1.1l-2.2,1.1l-2.4,1l-2.2,1.2l-2.2,1.1l-2.2,1.1l-2.2,1.1l-2.2,1.3l-2.2,1.3l-2,1.1l-2.2,1.3l-2,1.3l-2.1,1.3l-2,1.2l-2,1.5l-1.8,1.3l-2,1.5l-1.9,1.2l-2,1.5l-1.8,1.5l-1.9,1.4l-1.6,1.5l-1.8,1.5l-1.9,1.4l-1.6,1.5l-1.7,1.7l-1.6,1.4l-1.7,1.7l-1.6,1.4l-1.5,1.7l-1.5,1.6l-1.4,1.7l-1.5,1.6l-1.5,1.7l-1.4,1.6l-1.3,1.7l-1.3,1.6l-1.5,1.7l-1.1,1.8l-1.2,1.7l-1.3,1.8l-1.1,1.7l-1.1,1.8l-1.1,1.8l-1.1,1.7l-.9,1.8l-1.1,1.8l-1,1.9l-.9,1.8l-.9,1.8l-.7,1.9l-.9,1.8l-.8,1.8l-.7,2.1l-.7,1.8l-.6,1.8l-.7,1.9l-.6,2l-.5,1.8l-.4,1.8l-.5,2.1l-.4,1.8l-.6,2l-.3,1.8l-.2,2.1l-.4,1.8l-.2,2l-.1,1.8l-.2,2.1l-.2,1.8l-.2,2v3.9M615.9,564.1c8.1,-4.6,15.8,-9.9,23,-15.8" class="g6_1" />
<path d="M615.9,564.1c19.8,.1,39.3,-4,57.3,-12" class="g12_1" />
<path d="M638.9,548.3l17,1.6l17.1,2.2m-34.1,-3.8v0m-23.1,15.8v0m57.2,-12v0" class="g6_1" />
<path d="M591,548.2c7.3,5.9,15.1,11.2,23.3,15.7" class="g13_1" />
<path d="M614.3,563.9c8.2,-4.5,16,-9.8,23.3,-15.7" class="g7_1" />
<path d="M590.8,548.3l15.6,-.7H622l15.4,.7m-46.6,0v0m23.3,15.8v0m23.3,-15.8v0" class="g6_1" />
<path d="M555.4,552.1c18,8,37.5,12.1,57.3,12" class="g7_1" />
<path d="M589.7,548.3c7.2,5.9,14.9,11.2,23,15.8m-57.4,-12l17.2,-2.2l17,-1.6m-34.2,3.8v0m57.3,12v0M589.5,548.3v0m33.2,-61.6l1.9,.4l3.3,.3h35.2l2.7,-.2l2.9,-.5l1.9,-.7l.9,-1.1l.5,-1.5l-.1,-1.8l-1.5,-1.9l-1.5,-1.1l-2,-1.1l-2.4,-1.3l-2.2,-1.1l-2,-1.6l-1.5,-1.7L657.7,470l-1.6,-4l-.4,-3l-.2,-27.6l21.3,52h5.9l1.4,-4.4l2.1,4.4h5.6l25,-68.4v52.3l-.2,1.1l-.4,.9l-.2,.7l-.7,1l-.9,1.1l-.9,.3l-1.7,.4l-1.6,.4l-2.8,.7l-1.1,.4l-1.6,.9l-.6,.7l-.3,.7l-.4,1v.9l.2,1.1l.3,1.1l.8,.7l1.1,.7l1.4,.6l1.7,.4l2,.1l60.3,-.1l1.5,-.4H774l1.1,-1.5l.5,-1.4l.2,-1.1v-.8l-.4,-1.3l-.3,-.7l-.9,-.9l-1.1,-.6l-1.7,-.7l-1.1,-.2l-.9,-.3l-1.3,-.4l-.7,-.2l-.8,-.5l-.5,-.6l-.6,-.7l-.5,-1.5l-.2,-92.9v-1.3L765,378l.5,-1.1l.6,-1.1l.5,-.6l1,-.5l1.1,-.4l1.4,-.4l1.9,-.5l1.4,-.6l.8,-.5l1.1,-1.3l.3,-1.5v-2.9l-1.1,-.9l-1.3,-.9l-2,-.6l-2.5,-.3H716.8v24.9l-9.2,24.9V387.3l-4.8,13.6l-16.6,-37h-9.4l-52.4,.1l-1.1,.2l-.9,.2h-1l-.5,.6l-.7,.5l-.8,.4l-.5,.9l-.4,.9l-.2,1.3l.2,.9l.4,.9l.5,.9l.8,.8l1.6,.9l1.1,.5l.9,.2l1.7,.4l.9,.2l1.6,.3l1.9,1l1.3,1.1l1.4,2l11.6,28v20.6l-9.4,-22.2v56.6l-.2,1.5l-.1,1.5l-.4,1.4l-.6,1.7l-.5,1.3l-.7,1.4l-1.1,1.5l-.8,.9l-1.1,1.3l-1.3,1.3l-1.2,.9l-1.7,.9l-1.5,.7l-1.6,1l-1.5,.9l-.9,1.3l-.2,.9v1.4l.4,1l1.1,1.1l1.8,.7m1.9,.4v0m3.3,.3v0m35.2,0v0m2.7,-.2v0m2.9,-.5v0m1.9,-.7v0m.9,-1.1v0m.5,-1.5v0m-.1,-1.8v0m-1.5,-1.9v0m-1.5,-1.1v0m-2,-1.1v0m-2.4,-1.3v0m-2.2,-1.1v0m-2,-1.6v0m-1.5,-1.7v0M657.7,470v0m-1.6,-4v0m-.4,-3v0m-.2,-27.6v0m21.3,52v0m5.9,0v0m1.4,-4.4v0m2.1,4.4v0m5.6,0v0m25,-68.4v0m0,51.2v0m0,1.1v0m-.2,1.1v0m-.4,.9v0m-.2,.7v0m-.7,1v0m-.9,1.1v0m-.9,.3v0m-1.7,.4v0m-1.6,.4v0m-2.8,.7v0m-1.1,.4v0m-1.6,.9v0m-.6,.7v0m-.3,.7v0m-.4,1v0m0,.9v0m.2,1.1v0m.3,1.1v0m.8,.7v0m1.1,.7v0m1.4,.6v0m1.7,.4v0m2,.1v0m60.3,-.1v0m1.5,-.4v0m1.3,0v0m1.1,-1.5v0m.5,-1.4v0m.2,-1.1v0m0,-.8v0m-.4,-1.3v0m-.3,-.7v0m-.9,-.9v0m-1.1,-.6v0m-1.7,-.7v0m-1.1,-.2v0m-.9,-.3v0m-1.3,-.4v0m-.7,-.2v0m-.8,-.5v0m-.5,-.6v0m-.6,-.7v0m-.5,-1.5v0m-.2,-92.9v0m0,-1.3v0M765,378v0m.5,-1.1v0m.6,-1.1v0m.5,-.6v0m1,-.5v0m1.1,-.4v0m1.4,-.4v0m1.9,-.5v0m1.4,-.6v0m.8,-.5v0m1.1,-1.3v0m.3,-1.5v0m0,-2.9v0m-1.1,-.9v0m-1.3,-.9v0m-2,-.6v0m-2.5,-.3v0m-51.9,0v0m0,24.9v0m-9.2,24.9v0m0,-26.4v0m-4.8,13.6v0m-16.6,-37v0m-9.4,0v0m-52.4,.1v0m-1.1,.2v0m-.9,.2v0m-1,0v0m-.5,.6v0m-.7,.5v0m-.8,.4v0m-.5,.9v0m-.4,.9v0m-.2,1.3v0m.2,.9v0m.4,.9v0m.5,.9v0m.8,.8v0m1.6,.9v0m1.1,.5v0m.9,.2v0m1.7,.4v0m.9,.2v0m1.6,.3v0m1.9,1v0m1.3,1.1v0m1.4,2v0m11.6,28v0m0,20.6v0m-9.4,-22.2v0m0,54.6v0m0,2v0m-.2,1.5v0m-.1,1.5v0m-.4,1.4v0m-.6,1.7v0m-.5,1.3v0m-.7,1.4v0m-1.1,1.5v0m-.8,.9v0m-1.1,1.3v0m-1.3,1.3v0m-1.2,.9v0m-1.7,.9v0m-1.5,.7v0m-1.6,1v0m-1.5,.9v0m-.9,1.3v0m-.2,.9v0m0,1.4v0m.4,1v0m1.1,1.1v0M600,364.6l-2,-.6l-2.8,-.3H543.3v23.8l-8.9,25.1V387l-4.8,13.7l-16.7,-37h-9.3l-52.5,.2L450,364l-.9,.2h-.9l-.6,.6l-.9,.3l-.5,.6l-.8,.9l-.1,.9l-.2,1.1v1.1l.3,.9l.6,1l.7,.7l1.9,.9l.9,.4l1.1,.3l1.4,.4l1,.2l1.6,.4l1.8,.9l1.3,1.1l1.7,1.8l11.3,28.2v20.6l-9.1,-22.2v56.6l-.2,1.3l-.4,1.7l-.3,1.4l-.4,1.5l-.6,1.3l-.9,1.6l-1.1,1.5l-.5,.9l-1.3,1.3l-1.3,1.1l-1.3,1.1l-1.4,.9l-1.5,.8l-1.8,.9l-1.5,.9l-.9,1.3l-.2,.9l.2,1.5l.3,.9l1.1,1.1l1.7,.7l1.8,.4l3.3,.3h35.4l2.6,-.1l3.1,-.6l1.6,-.9l1.1,-1.1l.4,-1.5l-.2,-1.6l-1.3,-1.9l-1.6,-1.1l-1.8,-1.1l-2.4,-1.2l-2.2,-1.3l-2,-1.5l-1.5,-1.6l-1.3,-1.9l-1.6,-4l-.4,-2.9V435.2l21.3,52h5.6l1.7,-4.4l2,4.4h5.7l24.7,-68.3v52.2l-.1,.9l-.2,1.1l-.4,.8l-.5,.9l-1,.9l-.9,.5l-1.6,.4l-1.7,.4l-2.7,.7l-1.3,.4l-1.5,.9l-.7,.7l-.4,.8l-.2,.9l-.1,.9l.1,1.1l.6,1.1l.7,.7l1.1,.8l1.3,.5l1.7,.4l2.2,.2l60.3,-.2l1.3,-.4h1.4l.9,-1.6l.8,-1.3l.2,-1.1v-.9l-.6,-1.1l-.4,-.8l-.9,-.9l-1.1,-.7l-1.4,-.6l-1.1,-.3l-1,-.2l-1.4,-.4l-.8,-.2l-.5,-.5l-.6,-.6l-.5,-.7l-.6,-1.5l-.3,-92.9v-1.3l.3,-1.1l.4,-1.3l.7,-.9l.6,-.6l.9,-.5l1.1,-.4l1.5,-.3l1.6,-.6l1.5,-.7l.7,-.4l1.1,-1.3l.6,-1.6v-2.8l-1.1,-.9l-1.3,-.9m-2,-.6v0m-2.8,-.3v0m-51.9,0v0m0,23.8v0m-8.9,25.1v0m0,-25.6v0m-4.8,13.7v0m-16.7,-37v0m-9.3,0v0m-52.5,.2v0M450,364v0m-.9,.2v0m-.9,0v0m-.6,.6v0m-.9,.3v0m-.5,.6v0m-.8,.9v0m-.1,.9v0m-.2,1.1v0m0,1.1v0m.3,.9v0m.6,1v0m.7,.7v0m1.9,.9v0m.9,.4v0m1.1,.3v0m1.4,.4v0m1,.2v0m1.6,.4v0m1.8,.9v0m1.3,1.1v0m1.7,1.8v0m11.3,28.2v0m0,20.6v0m-9.1,-22.2v0m0,54.4v0m0,2.2v0m-.2,1.3v0m-.4,1.7v0m-.3,1.4v0m-.4,1.5v0m-.6,1.3v0m-.9,1.6v0m-1.1,1.5v0m-.5,.9v0m-1.3,1.3v0m-1.3,1.1v0m-1.3,1.1v0m-1.4,.9v0m-1.5,.8v0m-1.8,.9v0m-1.5,.9v0m-.9,1.3v0m-.2,.9v0m.2,1.5v0m.3,.9v0m1.1,1.1v0m1.7,.7v0m1.8,.4v0m3.3,.3v0m35.4,0v0m2.6,-.1v0m3.1,-.6v0m1.6,-.9v0m1.1,-1.1v0m.4,-1.5v0m-.2,-1.6v0m-1.3,-1.9v0m-1.6,-1.1v0m-1.8,-1.1v0m-2.4,-1.2v0m-2.2,-1.3v0m-2,-1.5v0m-1.5,-1.6v0m-1.3,-1.9v0m-1.6,-4v0m-.4,-2.9v0m0,-27.7v0m21.3,52v0m5.6,0v0m1.7,-4.4v0m2,4.4v0m5.7,0v0m24.7,-68.3v0m0,51.1v0m0,1.1v0m-.1,.9v0m-.2,1.1v0m-.4,.8v0m-.5,.9v0m-1,.9v0m-.9,.5v0m-1.6,.4v0m-1.7,.4v0m-2.7,.7v0m-1.3,.4v0m-1.5,.9v0m-.7,.7v0m-.4,.8v0m-.2,.9v0m-.1,.9v0m.1,1.1v0m.6,1.1v0m.7,.7v0m1.1,.8v0m1.3,.5v0m1.7,.4v0m2.2,.2v0m60.3,-.2v0m1.3,-.4v0m1.4,0v0m.9,-1.6v0m.8,-1.3v0m.2,-1.1v0m0,-.9v0m-.6,-1.1v0m-.4,-.8v0m-.9,-.9v0m-1.1,-.7v0m-1.4,-.6v0m-1.1,-.3v0m-1,-.2v0m-1.4,-.4v0m-.8,-.2v0m-.5,-.5v0m-.6,-.6v0m-.5,-.7v0m-.6,-1.5v0m-.3,-92.9v0m0,-1.3v0m.3,-1.1v0m.4,-1.3v0m.7,-.9v0m.6,-.6v0m.9,-.5v0m1.1,-.4v0m1.5,-.3v0m1.6,-.6v0m1.5,-.7v0m.7,-.4v0m1.1,-1.3v0m.6,-1.6v0m0,-2.8v0m-1.1,-.9v0" class="g6_1" />

</svg>
